<svg xmlns="http://www.w3.org/2000/svg" xmlns:xlink="http://www.w3.org/1999/xlink" fill="none" version="1.1" width="40" height="40" viewBox="0 0 40 40"><g><g><rect x="5" y="2" width="30" height="30.000001907348633" rx="15" fill="#FFFFFF" fill-opacity="1"/><rect x="5" y="2" width="30" height="30.000001907348633" rx="15" fill-opacity="0" stroke-opacity="1" stroke="#FFFFFF" fill="none" stroke-width="2"/><g><path d="M18.46,21.314000953674316L21.848000499999998,21.314000953674316L21.848000499999998,23.441999953674316L23.234,23.441999953674316L23.234,21.314000953674316L26.048000000000002,21.314000953674316L26.048000000000002,20.012000953674317L23.234,20.012000953674317L23.234,18.44400095367432L25.572001,18.44400095367432L25.572001,17.142000953674316L23.234,17.142000953674316L23.234,16.288001053674314L21.848000499999998,16.288001053674314L21.848000499999998,17.142000953674316L18.684,17.142000953674316L18.684,18.44400095367432L21.848000499999998,18.44400095367432L21.848000499999998,20.012000953674317L20.1400003,20.012000953674317L20.4060001,19.018000953674317L19.0900002,18.836000953674315L18.46,21.314000953674316ZM13.95200002,10.940000553674317L13.95200002,23.455999953674315L15.3240001,23.455999953674315L15.3240001,12.312000253674316L16.9760001,12.312000253674316C16.6400001,13.418000253674316,16.1920002,14.664000553674317,15.6040001,16.05000015367432C16.4860001,17.212000953674316,16.934,18.262000953674317,16.934,19.200000953674316C16.934,19.424000953674316,16.878,19.578000953674316,16.794000099999998,19.662000953674315C16.6820002,19.74600095367432,16.4860001,19.788000953674317,16.1920002,19.81600095367432C15.9820001,19.81600095367432,15.7160001,19.788000953674317,15.3940001,19.732000953674316L15.8840001,21.216000953674317C16.8640001,21.202000953674315,17.5500002,21.006000953674317,17.9560003,20.642000953674316C18.2220001,20.36200095367432,18.362000000000002,19.872000953674316,18.362000000000002,19.200000953674316C18.2780004,18.248000953674314,17.8299999,17.128000953674317,17.018000100000002,15.826001153674316C17.5500002,14.510000753674316,18.0120001,13.264000853674316,18.4040003,12.088000253674316L18.4040003,10.940000553674317L13.95200002,10.940000553674317ZM20.6300001,10.506000553674316C19.8740001,11.794000653674317,18.9780002,12.774001153674316,17.9700003,13.474000953674317L18.8800001,14.552000553674317C19.1880002,14.314000653674317,19.4820004,14.048000853674317,19.7900004,13.768000553674316C20.098,14.146000853674316,20.4620004,14.496000753674316,20.9100003,14.832000753674317C20.042000299999998,15.154000253674317,19.048000299999998,15.420001053674316,17.9000001,15.616000153674316L18.586,16.890000353674317C20,16.554000853674317,21.2180004,16.134000753674314,22.2400007,15.644000053674317C23.247999999999998,16.134000753674314,24.494,16.512000053674317,25.978001,16.792000753674316L26.496000000000002,15.504000653674316C25.432000000000002,15.322001453674316,24.494,15.084000553674317,23.682000000000002,14.776000453674317C24.522,14.160000753674316,25.137999999999998,13.460000953674317,25.516001,12.648000753674317L25.516001,11.500000953674316L21.6100006,11.500000953674316C21.7360001,11.276000953674316,21.8620005,11.052000953674316,22.0019999,10.814001053674316L20.6300001,10.506000553674316ZM22.3100004,14.160000753674316C21.6380005,13.768000553674316,21.092,13.320000653674317,20.6860003,12.802000953674316C20.7000003,12.774001153674316,20.7140002,12.760000253674317,20.7420001,12.732000353674316L23.92,12.732000353674316C23.528,13.264000853674316,22.9960003,13.740000753674316,22.3100004,14.160000753674316Z" fill="#FE6615" fill-opacity="1"/></g></g><g><g><path d="M16.25,29.875001907348633C16.25,29.875001907348633,23.75,29.875001907348633,23.75,29.875001907348633C23.75,29.875001907348633,21.665695200000002,35.25420190734863,20.9153457,37.19071390734863C20.752739,37.610370607348635,20.3555517,37.875000907348635,19.905493,37.875000907348635C19.9017134,37.87500190734863,19.897933000000002,37.87500190734863,19.8941529,37.87500190734863C19.434835,37.87500190734863,19.0373659,37.59595770734863,18.8813987,37.163930907348636C18.1742402,35.20511440734863,16.25,29.875001907348633,16.25,29.875001907348633Z" fill="#FE6615" fill-opacity="1"/><path d="M14.825817,28.875001907348633L16.75346881,34.21456430734863L17.940815399999998,37.503495207348635Q18.1651036,38.12476820734863,18.6994052,38.499899907348635Q19.2336631,38.87500190734863,19.8941529,38.87500190734863L19.8970952,38.87500190734863L19.905493,38.875000907348635Q20.5499301,38.875000907348635,21.0773487,38.519306207348635Q21.6129565,38.15808870734863,21.847794999999998,37.552014807348634L23.132548800000002,34.23630430734863L25.209919,28.87500180734863L16.25,28.875001907348633L14.825817,28.875001907348633ZM18.8813987,37.163930907348636L16.61101308,30.875001907348633L16.25,29.875001907348633L23.75,29.875001907348633L23.362524999999998,30.875001907348633L20.9153457,37.19071390734863C20.752739,37.610370607348635,20.3555517,37.875000907348635,19.905493,37.875000907348635L19.8941529,37.87500190734863C19.434835,37.87500190734863,19.0373659,37.59595770734863,18.8813987,37.163930907348636Z" fill-rule="evenodd" fill="#FFFFFF" fill-opacity="1"/></g></g><g><rect x="5" y="2" width="30" height="30.000001907348633" rx="15" fill="#FFFFFF" fill-opacity="1"/><rect x="6.25" y="3.25" width="27.5" height="27.500001907348633" rx="13.75" fill-opacity="0" stroke-opacity="1" stroke="#FE6615" fill="none" stroke-width="2.5"/><g><path d="M18.46,21.314000953674316L21.848000499999998,21.314000953674316L21.848000499999998,23.441999953674316L23.234,23.441999953674316L23.234,21.314000953674316L26.048000000000002,21.314000953674316L26.048000000000002,20.012000953674317L23.234,20.012000953674317L23.234,18.44400095367432L25.572001,18.44400095367432L25.572001,17.142000953674316L23.234,17.142000953674316L23.234,16.288001053674314L21.848000499999998,16.288001053674314L21.848000499999998,17.142000953674316L18.684,17.142000953674316L18.684,18.44400095367432L21.848000499999998,18.44400095367432L21.848000499999998,20.012000953674317L20.1400003,20.012000953674317L20.4060001,19.018000953674317L19.0900002,18.836000953674315L18.46,21.314000953674316ZM13.95200002,10.940000553674317L13.95200002,23.455999953674315L15.3240001,23.455999953674315L15.3240001,12.312000253674316L16.9760001,12.312000253674316C16.6400001,13.418000253674316,16.1920002,14.664000553674317,15.6040001,16.05000015367432C16.4860001,17.212000953674316,16.934,18.262000953674317,16.934,19.200000953674316C16.934,19.424000953674316,16.878,19.578000953674316,16.794000099999998,19.662000953674315C16.6820002,19.74600095367432,16.4860001,19.788000953674317,16.1920002,19.81600095367432C15.9820001,19.81600095367432,15.7160001,19.788000953674317,15.3940001,19.732000953674316L15.8840001,21.216000953674317C16.8640001,21.202000953674315,17.5500002,21.006000953674317,17.9560003,20.642000953674316C18.2220001,20.36200095367432,18.362000000000002,19.872000953674316,18.362000000000002,19.200000953674316C18.2780004,18.248000953674314,17.8299999,17.128000953674317,17.018000100000002,15.826001153674316C17.5500002,14.510000753674316,18.0120001,13.264000853674316,18.4040003,12.088000253674316L18.4040003,10.940000553674317L13.95200002,10.940000553674317ZM20.6300001,10.506000553674316C19.8740001,11.794000653674317,18.9780002,12.774001153674316,17.9700003,13.474000953674317L18.8800001,14.552000553674317C19.1880002,14.314000653674317,19.4820004,14.048000853674317,19.7900004,13.768000553674316C20.098,14.146000853674316,20.4620004,14.496000753674316,20.9100003,14.832000753674317C20.042000299999998,15.154000253674317,19.048000299999998,15.420001053674316,17.9000001,15.616000153674316L18.586,16.890000353674317C20,16.554000853674317,21.2180004,16.134000753674314,22.2400007,15.644000053674317C23.247999999999998,16.134000753674314,24.494,16.512000053674317,25.978001,16.792000753674316L26.496000000000002,15.504000653674316C25.432000000000002,15.322001453674316,24.494,15.084000553674317,23.682000000000002,14.776000453674317C24.522,14.160000753674316,25.137999999999998,13.460000953674317,25.516001,12.648000753674317L25.516001,11.500000953674316L21.6100006,11.500000953674316C21.7360001,11.276000953674316,21.8620005,11.052000953674316,22.0019999,10.814001053674316L20.6300001,10.506000553674316ZM22.3100004,14.160000753674316C21.6380005,13.768000553674316,21.092,13.320000653674317,20.6860003,12.802000953674316C20.7000003,12.774001153674316,20.7140002,12.760000253674317,20.7420001,12.732000353674316L23.92,12.732000353674316C23.528,13.264000853674316,22.9960003,13.740000753674316,22.3100004,14.160000753674316Z" fill="#FE6615" fill-opacity="1"/></g></g></g></svg>