<svg xmlns="http://www.w3.org/2000/svg" xmlns:xlink="http://www.w3.org/1999/xlink" fill="none" version="1.1" width="26" height="26" viewBox="0 0 26 26"><g><g><ellipse cx="13" cy="13" rx="12" ry="12" fill="#002FD7" fill-opacity="1"/><path d="M26,13Q26,13.319132,25.984341,13.637879Q25.968681,13.956627,25.937401,14.274222Q25.90612,14.591818,25.859293,14.907495Q25.812466,15.223173,25.750206,15.536173Q25.687946,15.849173,25.610403,16.15874Q25.53286,16.468307,25.44022,16.773699Q25.34758,17.07909,25.240067,17.379566Q25.132555,17.680042,25.010429,17.974882Q24.888302,18.269722,24.751856,18.558214Q24.61541,18.846706,24.464973,19.128157Q24.314535,19.409605,24.150469,19.683334Q23.986401,19.957062,23.809101,20.222412Q23.631802,20.487762,23.441696,20.744091Q23.251587,21.00042,23.049133,21.247112Q22.846678,21.493805,22.632362,21.730265Q22.418045,21.966726,22.192387,22.192387Q21.966726,22.418045,21.730267,22.632362Q21.493805,22.846678,21.247112,23.049133Q21.00042,23.251587,20.744091,23.441694Q20.487762,23.631802,20.222412,23.809103Q19.957062,23.986403,19.683334,24.150471Q19.409605,24.314537,19.128157,24.464975Q18.846706,24.615412,18.558214,24.751858Q18.269722,24.888306,17.974882,25.010431Q17.680042,25.132557,17.379566,25.24007Q17.07909,25.347584,16.773699999999998,25.440224Q16.468308,25.532862,16.158739,25.610405Q15.849172,25.687946,15.536172,25.750206Q15.223172,25.812466,14.907495,25.859293Q14.591818,25.90612,14.274222,25.937401Q13.956627,25.968681,13.637878,25.984341Q13.319132,26,13,26Q12.680868,26,12.362121,25.984341Q12.043373,25.968681,11.725779,25.937401Q11.408182,25.90612,11.092505,25.859293Q10.7768259,25.812466,10.4638252,25.750206Q10.1508255,25.687946,9.8412571,25.610403Q9.5316887,25.53286,9.2262993,25.44022Q8.9209089,25.34758,8.620431400000001,25.240067Q8.319954899999999,25.132555,8.025115,25.010429Q7.7302752,24.888302,7.4417839,24.751856Q7.1532917,24.61541,6.8718429,24.464973Q6.5903931,24.314535,6.3166642,24.150469Q6.0429354,23.986401,5.7775865,23.809101Q5.512238,23.631802,5.2559085,23.441696Q4.9995794,23.251587,4.7528872,23.049133Q4.506194600000001,22.846678,4.2697334,22.632362Q4.0332723,22.418045,3.8076117,22.192387Q3.5819511,21.966726,3.3676353,21.730267Q3.1533194,21.493805,2.950864,21.247112Q2.7484088,21.00042,2.5583019,20.744091Q2.3681951999999997,20.487762,2.1908947999999997,20.222412Q2.0135946000000002,19.957062,1.84952796,19.683334Q1.68546128,19.409605,1.53502351,19.128157Q1.38458568,18.846706,1.24813914,18.558214Q1.11169261,18.269722,0.989566058,17.974882Q0.86743951,17.680042,0.75992715,17.379566Q0.6524148000000001,17.07909,0.55977565,16.773699999999998Q0.46713649999999995,16.468308,0.38959372000000003,16.158739Q0.31205094,15.849172,0.24979138,15.536172Q0.18753182999999995,15.223172,0.14070541000000003,14.907495Q0.09387897999999995,14.591818,0.06259853000000004,14.274222Q0.031318190000000024,13.956627,0.015659089999999987,13.637878Q0,13.319132,0,13Q0,12.680868,0.015659089999999987,12.362121Q0.031318190000000024,12.043373,0.06259853000000004,11.725779Q0.09387897999999995,11.408182,0.14070541000000003,11.092505Q0.18753182999999995,10.7768259,0.24979143999999998,10.4638252Q0.31205106000000005,10.1508255,0.38959378,9.8412571Q0.46713656000000003,9.5316887,0.55977568,9.2262993Q0.6524148599999999,8.9209089,0.75992723,8.620431400000001Q0.86743958,8.319954899999999,0.989566147,8.025115Q1.1116927,7.7302752,1.24813926,7.4417839Q1.38458583,7.1532917,1.53502369,6.8718429Q1.68546146,6.5903931,1.84952813,6.3166642Q2.0135947,6.0429354,2.1908951,5.7775865Q2.3681954000000003,5.512238,2.5583022,5.2559085Q2.748409,4.9995794,2.9508643,4.7528872Q3.1533196,4.506194600000001,3.3676357,4.2697334Q3.5819516,4.0332723,3.8076119,3.8076117Q4.0332723,3.5819511,4.2697337,3.3676353Q4.506195099999999,3.1533194,4.7528875,2.950864Q4.9995799000000005,2.7484088,5.255909,2.5583019Q5.5122385,2.3681951999999997,5.7775869,2.1908947999999997Q6.0429354,2.0135946000000002,6.3166647,1.84952796Q6.5903931,1.68546128,6.8718429,1.53502351Q7.1532917,1.38458568,7.4417834,1.24813914Q7.7302752,1.11169261,8.025115,0.989566058Q8.319954899999999,0.86743951,8.620431400000001,0.75992715Q8.9209089,0.6524148000000001,9.2262993,0.55977565Q9.5316887,0.46713649999999995,9.8412571,0.38959372000000003Q10.1508255,0.31205094,10.4638252,0.24979138Q10.7768259,0.18753182999999995,11.092505,0.14070541000000003Q11.408182,0.09387897999999995,11.725778,0.06259853000000004Q12.043373,0.031318190000000024,12.36212,0.015659089999999987Q12.680868,0,13,0Q13.319132,0,13.637879,0.015659089999999987Q13.956627,0.031318190000000024,14.274222,0.06259853000000004Q14.591818,0.09387897999999995,14.907495,0.14070541000000003Q15.223173,0.18753182999999995,15.536173,0.24979143999999998Q15.849173,0.31205106000000005,16.15874,0.38959378Q16.468307,0.46713656000000003,16.773699,0.55977568Q17.07909,0.6524148599999999,17.379566,0.75992723Q17.680042,0.86743958,17.974882,0.989566147Q18.269722,1.1116927,18.558214,1.24813926Q18.846706,1.38458583,19.128157,1.53502369Q19.409605,1.68546146,19.683334,1.84952813Q19.957062,2.0135947,20.222412,2.1908951Q20.487762,2.3681954000000003,20.744091,2.5583022Q21.00042,2.748409,21.247112,2.9508643Q21.493805,3.1533196,21.730265,3.3676357Q21.966726,3.5819516,22.192387,3.8076119Q22.418045,4.0332723,22.632362,4.2697337Q22.846678,4.506195099999999,23.049133,4.7528875Q23.251587,4.9995799000000005,23.441694,5.255909Q23.631802,5.5122385,23.809103,5.7775869Q23.986403,6.0429354,24.150471,6.3166647Q24.314537,6.5903931,24.464975,6.8718429Q24.615412,7.1532917,24.751858,7.4417834Q24.888306,7.7302752,25.010431,8.025115Q25.132557,8.319954899999999,25.24007,8.620431400000001Q25.347584,8.9209089,25.440224,9.2262993Q25.532862,9.5316887,25.610405,9.8412571Q25.687946,10.1508255,25.750206,10.4638252Q25.812466,10.7768259,25.859293,11.092505Q25.90612,11.408182,25.937401,11.725778Q25.968681,12.043373,25.984341,12.36212Q26,12.680868,26,13ZM25,13Q25,12.705416,24.985544,12.411186Q24.97109,12.116959,24.942217,11.823793Q24.913342,11.530628,24.870117,11.239233Q24.826893,10.9478378,24.769421,10.6589146Q24.71195,10.3699913,24.640373,10.0842361Q24.568794,9.7984819,24.483284,9.5165834Q24.39777,9.234684,24.298527,8.957321199999999Q24.199284,8.6799579,24.086552,8.4077983Q23.97382,8.1356392,23.84787,7.8693385Q23.72192,7.6030383,23.583054,7.3432388Q23.444187,7.0834394,23.29274,6.8307667Q23.141294,6.578094,22.977633,6.3331566Q22.813971,6.0882196,22.638489,5.8516078Q22.463005,5.614996,22.276125,5.3872805Q22.089245,5.159564,21.891415,4.941292300000001Q21.693584,4.7230206,21.485281,4.5147185Q21.276979,4.3064165,21.058708,4.1085864999999995Q20.840437,3.9107563,20.612722,3.7238746Q20.385006,3.5369925,20.148394,3.3615096Q19.911781,3.1860261,19.666843,3.0223644Q19.421906,2.8587027000000003,19.169233,2.7072564Q18.916561,2.5558104999999998,18.656763,2.4169447Q18.396961,2.278079,18.130661,2.1521285Q17.864361,2.0261778,17.592201,1.91344553Q17.320042,1.8007133,17.042679,1.70147121Q16.765315,1.602229,16.483418,1.51671594Q16.201518,1.43120289,15.915762,1.35962492Q15.630007,1.28804699,15.341084,1.2305766Q15.05216,1.17310622,14.760766,1.12988187Q14.469372,1.086657502,14.176207,1.057783276Q13.883041,1.028909048,13.588812,1.014454524Q13.294583,1,13,1Q12.705416,1,12.411186,1.014454524Q12.116959,1.028909048,11.823793,1.057783276Q11.530628,1.086657502,11.239233,1.12988186Q10.9478378,1.17310622,10.6589146,1.2305766Q10.3699913,1.28804699,10.0842361,1.35962492Q9.7984819,1.43120289,9.5165834,1.51671594Q9.234684,1.602229,8.957321199999999,1.7014711500000002Q8.6799579,1.8007133,8.4077983,1.91344553Q8.1356392,2.0261778,7.8693385,2.1521285Q7.6030383,2.2780792,7.3432388,2.4169449Q7.0834394,2.5558106,6.8307667,2.7072567999999997Q6.578094,2.8587029,6.3331566,3.0223646Q6.0882196,3.1860266,5.8516078,3.3615096Q5.614996,3.5369928,5.3872805,3.7238746Q5.159564,3.9107563,4.941292300000001,4.1085863Q4.7230206,4.3064165,4.5147185,4.5147185Q4.3064165,4.7230206,4.1085864999999995,4.941292300000001Q3.9107563,5.159564,3.7238746,5.3872805Q3.5369925,5.614996,3.3615096,5.8516078Q3.1860261,6.0882196,3.0223644,6.3331566Q2.8587027000000003,6.578094,2.7072564,6.8307667Q2.5558104999999998,7.0834398,2.4169447,7.3432398Q2.278079,7.6030388,2.1521285,7.869339Q2.0261778,8.1356392,1.91344553,8.4077983Q1.8007133,8.6799579,1.70147121,8.957321199999999Q1.602229,9.234684,1.51671594,9.5165834Q1.43120289,9.7984819,1.35962492,10.0842371Q1.28804699,10.3699923,1.2305766,10.6589155Q1.17310622,10.9478378,1.12988187,11.239233Q1.086657502,11.530628,1.057783276,11.823793Q1.028909048,12.116959,1.014454524,12.411186Q1,12.705416,1,13Q1,13.294583,1.014454524,13.588813Q1.028909048,13.883041,1.057783276,14.176207Q1.086657502,14.469372,1.12988186,14.760765Q1.17310622,15.05216,1.2305766,15.341084Q1.28804699,15.630007,1.35962492,15.915763Q1.43120289,16.201517000000003,1.51671594,16.483417Q1.602229,16.765314,1.7014711500000002,17.042677Q1.8007133,17.32004,1.91344553,17.592199Q2.0261778,17.864359,2.1521285,18.130661Q2.2780792,18.396961,2.4169449,18.656761Q2.5558106,18.916561,2.7072567999999997,19.169233Q2.8587029,19.421906,3.0223646,19.666842Q3.1860266,19.911779,3.3615096,20.14839Q3.5369928,20.385002,3.7238746,20.612719Q3.9107563,20.840433,4.1085863,21.058704Q4.3064165,21.276978,4.5147185,21.485279Q4.7230206,21.693581,4.941292300000001,21.891413Q5.159564,22.089243,5.3872805,22.276125Q5.614996,22.463005,5.8516078,22.638487Q6.0882196,22.813971,6.3331566,22.977633Q6.578094,23.141294,6.8307667,23.292742Q7.0834398,23.444187,7.3432398,23.583054Q7.6030388,23.72192,7.869339,23.84787Q8.1356392,23.97382,8.4077983,24.086552Q8.6799579,24.199284,8.957321199999999,24.298527Q9.234684,24.39777,9.5165834,24.483284Q9.7984819,24.568794,10.0842371,24.640373Q10.3699923,24.71195,10.6589155,24.769421Q10.9478378,24.826893,11.239233,24.870115Q11.530628,24.913342,11.823793,24.942217Q12.116959,24.97109,12.411186,24.985546Q12.705416,25,13,25Q13.294583,25,13.588813,24.985544Q13.883041,24.97109,14.176207,24.942217Q14.469372,24.913342,14.760765,24.870117Q15.05216,24.826893,15.341084,24.769421Q15.630007,24.71195,15.915763,24.640373Q16.201517000000003,24.568794,16.483417,24.483284Q16.765314,24.39777,17.042677,24.298527Q17.32004,24.199284,17.592199,24.086552Q17.864359,23.97382,18.130661,23.84787Q18.396961,23.72192,18.656761,23.583054Q18.916561,23.444187,19.169233,23.29274Q19.421906,23.141294,19.666842,22.977633Q19.911779,22.813971,20.14839,22.638489Q20.385002,22.463005,20.612719,22.276125Q20.840433,22.089245,21.058704,21.891415Q21.276978,21.693584,21.485279,21.485281Q21.693581,21.276979,21.891413,21.058708Q22.089243,20.840437,22.276125,20.612722Q22.463005,20.385006,22.638487,20.148394Q22.813971,19.911781,22.977633,19.666843Q23.141294,19.421906,23.292742,19.169233Q23.444187,18.916561,23.583054,18.656763Q23.72192,18.396961,23.84787,18.130661Q23.97382,17.864361,24.086552,17.592201Q24.199284,17.320042,24.298527,17.042679Q24.39777,16.765315,24.483284,16.483418Q24.568794,16.201518,24.640373,15.915762Q24.71195,15.630007,24.769421,15.341084Q24.826893,15.05216,24.870115,14.760766Q24.913342,14.469372,24.942217,14.176207Q24.97109,13.883041,24.985546,13.588812Q25,13.294583,25,13Z" fill="#FFFFFF" fill-opacity="1"/></g><g><path d="M5,8.5384614L5,8.6923075C5,8.947208,5.20663774,9.1538458,5.46153831,9.1538458L6.0769231,9.1538458C6.6716912,9.1538458,7.153846,9.6360006,7.153846,10.2307687L7.153846,10.999998999999999C7.153846,11.1699328,7.2916045,11.3076916,7.4615383,11.3076916C7.6314721,11.3076916,7.7692308,11.445450300000001,7.7692308,11.6153841L7.7692308,11.9230766C7.7692308,12.0930104,7.9069891000000005,12.230768699999999,8.0769229,12.230768699999999C8.2468567,12.230768699999999,8.384615199999999,12.0930104,8.384615199999999,11.9230766L8.384615199999999,11.7692304C8.384615199999999,11.514329400000001,8.591253,11.3076916,8.8461537,11.3076916L9.6036048,11.3076916C9.9926958,11.3076916,10.3532577,11.511838000000001,10.553443399999999,11.8454809L11.7542496,13.846825599999999C11.954434899999999,14.180468600000001,12.3149967,14.384614899999999,12.704087699999999,14.384614899999999L13.2959118,14.384614899999999C13.6850033,14.384614899999999,14.0455647,14.180468600000001,14.2457504,13.846825599999999L15.446558,11.8454809C15.646744,11.511838000000001,16.007305000000002,11.3076916,16.396397,11.3076916L17.153847,11.3076916C17.408748,11.3076916,17.615385,11.514329400000001,17.615385,11.7692304L17.615385,11.9230762C17.615385,12.0930099,17.753143,12.230768699999999,17.923078,12.230768699999999C18.093012,12.230768699999999,18.23077,12.0930099,18.23077,11.9230762L18.23077,11.615383099999999C18.23077,11.445449799999999,18.368527999999998,11.3076916,18.538462000000003,11.3076916C18.708395,11.3076916,18.846153,11.1699333,18.846153,11L18.846153,10.2307687C18.846153,9.6360006,19.328308,9.1538458,19.923077,9.1538458L20.538462000000003,9.1538458C20.793363,9.1538458,21,8.947208,21,8.6923075C21,8.4374069,20.793363,8.2307692,20.538462000000003,8.2307692L19.461537999999997,8.2307692C19.121671,8.2307692,18.846153,7.95525211,18.846153,7.6153841C18.846153,7.27551684,18.570636999999998,7,18.230769000000002,7C17.890902,7,17.615385,7.27551684,17.615385,7.6153841C17.615385,7.95525211,17.339868,8.2307692,17,8.2307692L15.615385,8.2307692C15.360484,8.2307692,15.153847,8.4374069,15.153847,8.6923075C15.153847,8.947208,15.360484,9.1538458,15.615385,9.1538458L16.692308,9.1538458C17.032176,9.1538458,17.307693,9.4293628,17.307693,9.7692304C17.307693,10.109098,17.032176,10.384614899999999,16.692308,10.384614899999999L15.769232,10.384614899999999L14.8461533,10.384614899999999C14.6762199,10.384614899999999,14.5384607,10.2468567,14.5384607,10.0769229C14.5384607,9.9069891,14.4007015,9.7692306,14.2307682,9.7692306L11.769230799999999,9.7692306C11.599297,9.7692306,11.4615388,9.9069891,11.4615388,10.0769229C11.4615388,10.2468567,11.3237805,10.384614899999999,11.153846699999999,10.384614899999999L9.9230771,10.384614899999999L9.3076925,10.384614899999999C8.9678249,10.384614899999999,8.6923077,10.109098,8.6923077,9.7692304C8.6923077,9.4293628,8.9678249,9.1538458,9.3076925,9.1538458L10.6923079,9.1538458C10.947208400000001,9.1538458,11.1538463,8.947208,11.1538463,8.6923075C11.1538463,8.4374069,10.947208400000001,8.2307692,10.6923079,8.2307692L9.3076925,8.2307692C8.9678249,8.2307692,8.6923077,7.95525211,8.6923077,7.61538458C8.6923077,7.27551705,8.4167907,7,8.0769231,7L7.7692306,7C7.429363,7,7.153846,7.27551705,7.153846,7.61538458C7.153846,7.95525211,6.878329,8.2307692,6.5384614,8.2307692L5.30769232,8.2307692C5.13775854,8.2307692,5,8.3685277,5,8.5384614ZM17.097501,13.1538458C16.6952,13.1538458,16.475659999999998,13.6348634,16.710458,13.9615378Q17.525962,15.0961533,17.923078,16.2307682Q18.364614,17.492306,18.288923,18.753845C18.271183,19.04952,18.497156,19.307692,18.793364,19.307692C19.007322000000002,19.307692,19.197556,19.169938000000002,19.246009,18.961537Q19.56346,17.596152,19.153846,16.2307682Q18.716105,14.7716341,17.448028,13.312499500000001C17.360264,13.211513,17.231294,13.1538458,17.097501,13.1538458ZM7.4615386,16.2307682Q7.051923,17.596152,7.3693752,18.961537C7.4178283,19.169938000000002,7.608062,19.307692,7.8220209999999994,19.307692C8.1182284,19.307692,8.3442018,19.04952,8.3264616,18.753845Q8.2507694,17.492306,8.6923077,16.2307682Q9.089423199999999,15.0961533,9.9049282,13.9615378C10.1397257,13.6348629,9.920185100000001,13.1538458,9.5178838,13.1538458C9.3840904,13.1538458,9.2551212,13.211513,9.167357899999999,13.312499500000001Q7.8992789000000005,14.7716341,7.4615386,16.2307682Z" fill="#FFFFFF" fill-opacity="1"/><path d="M8.5512283,7.14107911Q8.3547647,6.944615368,8.0769229,6.944615386L7.7692306,6.944615386Q7.4913886000000005,6.944615386,7.294925,7.14107911Q7.0984614,7.33754274,7.0984614,7.61538452Q7.0984614,7.8473441,6.9344412,8.0113643Q6.7704213,8.1753844,6.5384617,8.1753844L5.30769229,8.1753844Q5.15730081,8.1753844,5.050958134,8.2817272Q4.944615364,8.3880699,4.944615349,8.5384614L4.944615386,8.6923074Q4.944615386,8.906424,5.096018597,9.0578272Q5.24742176,9.2092302,5.46153829,9.2092302L6.076923,9.2092302Q6.5000581,9.2092302,6.7992597,9.5084319Q7.0984614,9.807633599999999,7.0984614,10.2307687L7.0984614,10.999998999999999Q7.0984614,11.1503901,7.2048039,11.2567329Q7.3111467,11.3630762,7.4615381,11.3630762Q7.5660474,11.3630762,7.639946699999999,11.436975499999999Q7.7138462,11.510874699999999,7.7138462,11.615383600000001L7.7138462,11.9230762Q7.7138462,12.0734677,7.8201888,12.1798105Q7.926531300000001,12.2861528,8.0769229,12.2861528Q8.2273142,12.2861528,8.333657,12.1798105Q8.4399996,12.0734677,8.4399996,11.9230762L8.4399996,11.7692304Q8.4399996,11.6009955,8.5589592,11.4820356Q8.6779189,11.3630762,8.8461535,11.3630757L9.6036043,11.3630762Q9.8808327,11.3630762,10.122075599999999,11.4996653Q10.3633184,11.636254300000001,10.5059509,11.8739758L11.7067571,13.8753204Q11.8644032,14.1380634,12.1310406,14.2890315Q12.3976784,14.4399996,12.704087300000001,14.4399996L13.2959118,14.4399996Q13.6023207,14.4399996,13.8689575,14.2890315Q14.1355953,14.1380634,14.2932425,13.8753204L15.494049,11.8739753Q15.636682,11.6362548,15.877925,11.4996653Q16.119168000000002,11.3630762,16.396397,11.3630762L17.153846,11.3630762Q17.32208,11.3630762,17.44104,11.4820361Q17.559998999999998,11.600996,17.559998999999998,11.7692304L17.559998999999998,11.9230762Q17.559998999999998,12.0734677,17.666342,12.179809599999999Q17.772685,12.2861528,17.923077,12.2861528Q18.073469,12.2861528,18.179812,12.179809599999999Q18.286154,12.0734677,18.286154,11.9230762L18.286154,11.615383099999999Q18.286154,11.510874300000001,18.360053,11.436975Q18.433951999999998,11.3630762,18.538460999999998,11.3630762Q18.688852,11.3630762,18.795196,11.2567334Q18.901536999999998,11.150391599999999,18.901536999999998,10.9999998L18.901536999999998,10.2307687Q18.901536999999998,9.8076344,19.20074,9.5084319Q19.499941,9.2092302,19.923076000000002,9.2092302L20.538460999999998,9.2092302Q20.752578,9.2092302,20.903981,9.0578272Q21.055384,8.9064243,21.055384,8.6923074Q21.055384,8.478190399999999,20.903981,8.3267876Q20.752578,8.1753844,20.538460999999998,8.1753844L19.461537,8.1753844Q19.229578,8.1753844,19.065558,8.0113643Q18.901536999999998,7.84734339,18.901536999999998,7.61538452Q18.901536999999998,7.33754286,18.705073,7.14107905Q18.508609999999997,6.944615368,18.230767999999998,6.944615386Q17.952927000000003,6.944615386,17.756463,7.14107898Q17.559998999999998,7.33754268,17.559998999999998,7.6153841Q17.559998999999998,7.84734321,17.395979,8.0113642Q17.231959,8.1753844,17,8.1753844L15.615385,8.1753844Q15.401267,8.1753844,15.249865,8.3267876Q15.098461,8.478190399999999,15.098461,8.6923074Q15.098461,8.9064243,15.249865,9.0578272Q15.401267,9.2092302,15.615385,9.2092302L16.692307,9.2092302Q16.924267999999998,9.2092302,17.088287,9.373250500000001Q17.252307000000002,9.5372705,17.252307000000002,9.7692301Q17.252307000000002,10.0011899,17.088287,10.1652098Q16.924267999999998,10.3292301,16.692307,10.3292301L14.8461523,10.3292301Q14.7416439,10.3292301,14.6677446,10.255331Q14.5938454,10.1814318,14.5938454,10.0769229Q14.5938454,9.9265313,14.4875021,9.8201885Q14.3811588,9.713846,14.2307682,9.713846L11.7692304,9.713846Q11.618839699999999,9.713846,11.5124969,9.8201885Q11.4061537,9.9265316,11.4061537,10.0769229Q11.4061537,10.1814318,11.332254899999999,10.255331Q11.2583556,10.3292301,11.1538463,10.3292301L9.3076921,10.3292301Q9.0757327,10.3292301,8.9117122,10.1652098Q8.7476921,10.0011897,8.7476921,9.7692301Q8.7476921,9.5372708,8.9117122,9.373250500000001Q9.0757327,9.2092302,9.3076921,9.2092302L10.6923079,9.2092302Q10.906424000000001,9.2092302,11.057827,9.0578272Q11.2092304,8.9064236,11.2092304,8.6923074Q11.2092304,8.4781911,11.057827,8.3267876Q10.906424000000001,8.1753844,10.6923079,8.1753844L9.3076921,8.1753844Q9.0757327,8.1753844,8.9117122,8.0113642Q8.7476921,7.8473441600000005,8.7476921,7.61538452Q8.7476921,7.33754289,8.5512283,7.14107911ZM7.7692306,7.055384614L8.0769229,7.055384614Q8.3088822,7.055384614,8.4729025,7.21940477Q8.6369228,7.38342506,8.6369228,7.61538452Q8.6369228,7.89322644,8.8333864,8.089690000000001Q9.02985,8.2861537,9.3076921,8.2861537L10.6923079,8.2861537Q10.860542299999999,8.2861537,10.9795017,8.4051133Q11.0984612,8.5240729,11.0984612,8.6923074Q11.0984612,8.8605418,10.9795017,8.9795014Q10.860542299999999,9.0984612,10.6923079,9.0984612L9.3076921,9.0984612Q9.02985,9.0984612,8.8333864,9.2949247Q8.6369228,9.4913886,8.6369228,9.7692301Q8.6369228,10.0470719,8.8333864,10.2435355Q9.02985,10.4399993,9.3076921,10.4399993L11.1538463,10.4399993Q11.3042374,10.4399993,11.4105802,10.3336568Q11.516923,10.227313500000001,11.516923,10.0769229Q11.516923,9.9724133,11.5908222,9.8985143Q11.664721499999999,9.824615,11.7692304,9.824615L14.2307682,9.824615Q14.3352776,9.824615,14.4091768,9.8985143Q14.4830761,9.9724135,14.4830761,10.0769229Q14.4830761,10.2273147,14.5894184,10.3336568Q14.6957598,10.4399993,14.8461523,10.4399993L16.692307,10.4399993Q16.97015,10.4399993,17.166614,10.2435355Q17.363076,10.0470726,17.363076,9.7692301Q17.363076,9.4913878,17.166614,9.294925Q16.97015,9.0984612,16.692307,9.0984612L15.615385,9.0984612Q15.44715,9.0984612,15.328191,8.9795014Q15.20923,8.8605415,15.20923,8.6923074Q15.20923,8.5240732,15.328191,8.4051133Q15.44715,8.2861537,15.615385,8.2861537L17,8.2861537Q17.277842,8.2861537,17.474305,8.0896899Q17.670769,7.89322597,17.670769,7.6153841Q17.670769,7.38342544,17.834789,7.21940467Q17.99881,7.055384614,18.230767999999998,7.055384614Q18.462728,7.055384614,18.626747,7.2194047Q18.790768,7.38342559,18.790768,7.61538452Q18.790768,7.89322609,18.987232,8.089690000000001Q19.183695999999998,8.2861537,19.461537,8.2861537L20.538460999999998,8.2861537Q20.706695,8.2861537,20.825654999999998,8.4051133Q20.944614,8.5240732,20.944614,8.6923074Q20.944614,8.8605415,20.825654999999998,8.9795014Q20.706695,9.0984612,20.538460999999998,9.0984612L19.923076000000002,9.0984612Q19.454059,9.0984612,19.122414,9.4301062Q18.790768,9.7617517,18.790768,10.2307687L18.790768,10.9999998Q18.790768,11.1045084,18.716869000000003,11.178407700000001Q18.64297,11.2523069,18.538460999999998,11.2523069Q18.38807,11.2523069,18.281727,11.3586493Q18.175385,11.464991600000001,18.175385,11.615383099999999L18.175385,11.9230762Q18.175385,12.0275855,18.101486,12.1014848Q18.027587,12.1753836,17.923077,12.1753836Q17.818567,12.1753836,17.744668,12.1014848Q17.670769,12.0275855,17.670769,11.9230762L17.670769,11.7692304Q17.670769,11.5551133,17.519365999999998,11.4037104Q17.367963,11.2523069,17.153846,11.2523069L16.396397,11.2523069Q16.089987,11.2523069,15.82335,11.4032741Q15.556713,11.554240700000001,15.399067,11.816984699999999L14.1982584,13.8183298Q14.0556259,14.056050299999999,13.8143826,14.1926403Q13.5731392,14.329230299999999,13.2959118,14.329230299999999L12.704087300000001,14.329230299999999Q12.4268599,14.329230299999999,12.1856165,14.1926403Q11.944373599999999,14.056050800000001,11.801741100000001,13.8183298L10.600935,11.816985599999999Q10.443288800000001,11.5542417,10.1766515,11.4032741Q9.910014199999999,11.2523069,9.6036043,11.2523069L8.8461535,11.2523065Q8.6320367,11.2523069,8.4806335,11.403709899999999Q8.329230299999999,11.5551133,8.329230299999999,11.7692304L8.329230299999999,11.9230762Q8.329230299999999,12.027586,8.2553313,12.1014853Q8.1814327,12.1753836,8.0769229,12.1753836Q7.9724131,12.1753836,7.8985145,12.1014853Q7.8246155,12.027586,7.8246155,11.9230762L7.8246155,11.615383600000001Q7.8246155,11.464992500000001,7.7182724,11.3586497Q7.6119297,11.2523069,7.4615381,11.2523069Q7.357029,11.2523069,7.2831297,11.178407199999999Q7.2092307,11.1045084,7.2092307,10.999998999999999L7.2092307,10.2307687Q7.2092307,9.7617514,6.8775854,9.4301062Q6.5459403,9.0984612,6.076923,9.0984612L5.46153829,9.0984612Q5.29330394,9.0984612,5.17434426,8.9795014Q5.055384614,8.8605417,5.055384614,8.6923074L5.05538458,8.5384614Q5.05538458,8.4339522,5.12928382,8.3600529Q5.20318305,8.2861537,5.30769229,8.2861537L6.5384617,8.2861537Q6.8163034,8.2861537,7.0127671,8.089690000000001Q7.2092307,7.89322633,7.2092307,7.61538452Q7.2092307,7.38342476,7.3732505,7.21940477Q7.5372705,7.055384614,7.7692306,7.055384614ZM9.1255536,13.2761688Q7.8496552,14.744300800000001,7.4084897000000005,16.2148533Q6.9946414,17.594347,7.3154292000000005,18.974079Q7.3559437,19.148335,7.5003253999999995,19.257013Q7.641231100000001,19.363076,7.8220209999999994,19.363076Q8.067288399999999,19.363076,8.2331488,19.178685Q8.3965371,18.997042,8.3817465,18.750526999999998Q8.3067207,17.500097,8.7445827,16.2490635Q9.1390591,15.1219893,9.9499002,13.993862199999999Q10.146044700000001,13.7209668,10.0004292,13.411602Q9.8530364,13.0984612,9.517883300000001,13.0984612Q9.279992100000001,13.0984612,9.1255536,13.2761688ZM16.665483000000002,13.993862199999999Q17.476323999999998,15.1219883,17.870801,16.2490644Q18.308661,17.500098,18.233637,18.750526999999998Q18.218847,18.997041,18.382236,19.178685Q18.548097,19.363076,18.793364,19.363076Q18.974153,19.363076,19.115059000000002,19.257013Q19.259439,19.148335,19.299953000000002,18.974079Q19.620741000000002,17.594347,19.206894,16.2148523Q18.765728,14.7442999,17.489829999999998,13.2761688Q17.335393,13.0984612,17.0975,13.0984612Q16.762348,13.0984612,16.614956,13.411602Q16.469341,13.7209668,16.665483000000002,13.993862199999999ZM7.4233205,18.948994Q7.109204500000001,17.597958,7.514587199999999,16.246682200000002Q7.9489024,14.7989669,9.2091618,13.3488293Q9.330482,13.2092304,9.517883300000001,13.2092304Q9.7827477,13.2092304,9.9002066,13.4587755Q10.0180831,13.709208,9.8599544,13.929213Q9.0397868,15.0703163,8.6400323,16.2124701Q8.1948175,17.484512000000002,8.2711761,18.757161Q8.2831914,18.957417,8.150794,19.104607Q8.0179372,19.252307000000002,7.8220209999999994,19.252307000000002Q7.6782603,19.252307000000002,7.566941,19.168514000000002Q7.4547194999999995,19.084044,7.4233205,18.948994ZM18.344209,18.757161Q18.420566,17.484512000000002,17.975352,16.212471Q17.575598,15.0703182,16.755429,13.929213Q16.597302,13.709208,16.715178,13.4587755Q16.832636,13.2092304,17.0975,13.2092304Q17.284903999999997,13.2092304,17.406221000000002,13.3488293Q18.666482000000002,14.7989678,19.100797,16.246681199999998Q19.506179,17.597958,19.192062,18.948994Q19.160664,19.084043,19.048442,19.168514000000002Q18.937123,19.252307000000002,18.793364,19.252307000000002Q18.597445,19.252307000000002,18.464589,19.104607Q18.332193,18.957418,18.344209,18.757161Z" fill-rule="evenodd" fill="#FFFFFF" fill-opacity="1"/></g></g></svg>