<svg xmlns="http://www.w3.org/2000/svg" xmlns:xlink="http://www.w3.org/1999/xlink" fill="none" version="1.1" width="16" height="16" viewBox="0 0 16 16"><g><g><ellipse cx="8" cy="8" rx="6" ry="6" fill="#33c01a" fill-opacity="1"/><path d="M16,8Q16,8.1963887,15.990363,8.392541399999999Q15.980726,8.5886936,15.961477,8.7841372Q15.942227,8.979579900000001,15.913411,9.1738429Q15.884594,9.3681059,15.846281,9.5607214Q15.807966,9.7533369,15.760248,9.943840999999999Q15.71253,10.1343441,15.655521,10.3222771Q15.598513,10.5102091,15.532351,10.695118Q15.466188,10.8800259,15.391034,11.0614662Q15.31588,11.2429066,15.231913,11.4204397Q15.147945,11.5979729,15.055368,11.7711735Q14.962791,11.9443731,14.861827,12.112822Q14.760862,12.28127,14.651755,12.444561Q14.542647,12.607853,14.425659,12.765594Q14.308671,12.923336,14.184084,13.075148Q14.059496,13.226957,13.927608,13.372473Q13.795721,13.517986,13.656854,13.656854Q13.517986,13.795721,13.372472,13.927608Q13.226957,14.059496,13.075147,14.184084Q12.923336,14.308671,12.765594,14.425659Q12.607853,14.542648,12.444561,14.651756Q12.28127,14.760864,12.112822,14.861828Q11.9443731,14.962791,11.7711735,15.055369Q11.5979729,15.147945,11.4204397,15.231914Q11.2429066,15.31588,11.0614662,15.391035Q10.8800259,15.466189,10.695118,15.532351Q10.5102091,15.598513,10.3222771,15.655522Q10.1343441,15.71253,9.943840999999999,15.760249Q9.7533374,15.807966,9.5607219,15.846281Q9.3681068,15.884594,9.173843399999999,15.913411Q8.979579900000001,15.942227,8.784136799999999,15.961477Q8.5886936,15.980726,8.3925409,15.990364Q8.1963887,16,8,16Q7.8036108,16,7.6074581,15.990363Q7.4113059,15.980726,7.2158628,15.961477Q7.0204191,15.942227,6.8261557,15.913411Q6.6318922,15.884594,6.4392772,15.846281Q6.2466617,15.807966,6.0561585,15.760248Q5.8656549,15.71253,5.6777227,15.655521Q5.48979,15.598513,5.304880900000001,15.532351Q5.119972199999999,15.466188,4.9385324,15.391034Q4.757092500000001,15.31588,4.5795591,15.231913Q4.402025699999999,15.147945,4.228826,15.055368Q4.0556263999999995,14.962791,3.8871779,14.861827Q3.7187295000000002,14.760862,3.555438,14.651755Q3.3921466000000002,14.542647,3.2344056,14.425659Q3.0766644000000003,14.308671,2.92485374,14.184084Q2.77304304,14.059496,2.62752837,13.927608Q2.48201376,13.795721,2.34314579,13.656854Q2.20427781,13.517986,2.072391048,13.372472Q1.940504283,13.226957,1.81591643,13.075147Q1.69132859,12.923336,1.57433987,12.765594Q1.45735109,12.607853,1.34824324,12.444561Q1.23913538,12.28127,1.1381712,12.112822Q1.03720707,11.9443731,0.9446299,11.7711735Q0.8520528,11.5979729,0.7680857000000001,11.4204397Q0.6841185999999999,11.2429066,0.6089637999999999,11.0614662Q0.5338091,10.8800259,0.46764760000000005,10.695118Q0.4014861999999999,10.5102091,0.34447739999999993,10.3222771Q0.2874687,10.1343441,0.23975009999999997,9.943840999999999Q0.1920314999999999,9.7533374,0.15371789999999996,9.5607219Q0.11540440000000007,9.3681068,0.08658800000000011,9.173843399999999Q0.05777169999999998,8.979579900000001,0.038522100000000004,8.784136799999999Q0.01927279999999998,8.5886936,0.00963639999999999,8.3925409Q0,8.1963887,0,8Q0,7.8036108,0.00963639999999999,7.6074581Q0.01927279999999998,7.4113059,0.038522100000000004,7.2158628Q0.05777180000000004,7.0204191,0.08658809999999995,6.8261557Q0.11540440000000007,6.6318922,0.15371800000000002,6.4392772Q0.19203159999999997,6.2466617,0.23975009999999997,6.0561585Q0.2874687,5.8656549,0.34447739999999993,5.6777227Q0.4014861999999999,5.48979,0.4676477000000001,5.304880900000001Q0.5338092000000001,5.119972199999999,0.6089640000000001,4.9385324Q0.6841187,4.757092500000001,0.7680857999999999,4.5795591Q0.8520528999999999,4.402025699999999,0.9446300000000001,4.228826Q1.03720719,4.0556263999999995,1.13817132,3.8871779Q1.23913538,3.7187295000000002,1.34824324,3.555438Q1.45735109,3.3921466000000002,1.57433987,3.2344056Q1.69132861,3.0766644000000003,1.81591645,2.92485374Q1.940504313,2.77304304,2.072391085,2.62752837Q2.20427786,2.48201376,2.34314585,2.34314579Q2.48201382,2.20427781,2.62752843,2.072391048Q2.77304304,1.940504283,2.9248538,1.81591643Q3.0766644000000003,1.69132859,3.2344056,1.57433987Q3.3921466000000002,1.45735109,3.555438,1.34824324Q3.7187295000000002,1.23913538,3.8871779,1.1381712Q4.0556263999999995,1.03720707,4.228826,0.9446299Q4.402025699999999,0.8520528,4.5795591,0.7680857000000001Q4.757092500000001,0.6841185999999999,4.9385324,0.6089637999999999Q5.119972199999999,0.5338091,5.304881099999999,0.46764760000000005Q5.48979,0.4014861999999999,5.6777227,0.34447739999999993Q5.8656549,0.2874687,6.0561581,0.23975009999999997Q6.2466617,0.1920314999999999,6.4392772,0.15371789999999996Q6.6318922,0.11540440000000007,6.8261557,0.08658800000000011Q7.0204191,0.05777169999999998,7.2158628,0.038522100000000004Q7.4113059,0.01927279999999998,7.6074581,0.00963639999999999Q7.8036108,0,8,0Q8.1963887,0,8.392541399999999,0.00963639999999999Q8.5886936,0.01927279999999998,8.7841372,0.038522100000000004Q8.979579900000001,0.05777180000000004,9.1738429,0.08658809999999995Q9.3681059,0.11540440000000007,9.5607214,0.15371800000000002Q9.7533369,0.19203159999999997,9.943840999999999,0.23975009999999997Q10.1343441,0.2874687,10.3222771,0.34447739999999993Q10.5102091,0.4014861999999999,10.695118,0.4676477000000001Q10.8800259,0.5338092000000001,11.0614662,0.6089640000000001Q11.2429066,0.6841187,11.4204397,0.7680857999999999Q11.5979729,0.8520528999999999,11.7711735,0.9446300000000001Q11.9443731,1.03720719,12.112822,1.13817132Q12.28127,1.23913538,12.444561,1.34824324Q12.607853,1.45735109,12.765594,1.57433987Q12.923336,1.69132861,13.075148,1.81591645Q13.226957,1.940504313,13.372473,2.072391085Q13.517986,2.20427786,13.656854,2.34314585Q13.795721,2.48201382,13.927608,2.62752843Q14.059496,2.77304304,14.184084,2.9248538Q14.308671,3.0766644000000003,14.425659,3.2344056Q14.542648,3.3921466000000002,14.651756,3.555438Q14.760864,3.7187295000000002,14.861828,3.8871779Q14.962791,4.0556263999999995,15.055369,4.228826Q15.147945,4.402025699999999,15.231914,4.5795591Q15.31588,4.757092500000001,15.391035,4.9385324Q15.466189,5.119972199999999,15.532351,5.304881099999999Q15.598513,5.48979,15.655522,5.6777227Q15.71253,5.8656549,15.760249,6.0561581Q15.807966,6.2466617,15.846281,6.4392772Q15.884594,6.6318922,15.913411,6.8261557Q15.942227,7.0204191,15.961477,7.2158628Q15.980726,7.4113059,15.990364,7.6074581Q16,7.8036108,16,8ZM14,8Q14,7.8527079,13.992772,7.7055931Q13.985545,7.5584793,13.971108,7.4118967Q13.956671,7.2653141,13.935059,7.1196165Q13.913446,6.9739189,13.88471,6.8294573Q13.855975,6.6849957,13.820187,6.5421181Q13.784397,6.399241,13.741642,6.2582917Q13.698885,6.117342,13.649263,5.9786605999999995Q13.599642,5.8399789,13.543276,5.7038991Q13.48691,5.5678196,13.423935,5.4346692999999995Q13.36096,5.3015191999999995,13.291527,5.1716194Q13.222094,5.0417197,13.14637,4.9153833Q13.070647,4.789047,12.988816,4.666578299999999Q12.906985,4.5441098,12.819244,4.4258039Q12.731503,4.307498,12.638062,4.1936402Q12.544622,4.079782,12.445707,3.9706460999999997Q12.346792,3.8615103,12.24264,3.7573593Q12.13849,3.6532083,12.029354,3.5542933000000003Q11.9202185,3.4553782,11.8063612,3.3619373Q11.692503,3.2684963,11.5741968,3.1807548Q11.4558907,3.093013,11.3334217,3.0111822Q11.2109528,2.9293513300000003,11.0846167,2.85362822Q10.9582806,2.77790523,10.8283815,2.70847237Q10.6984806,2.63903952,10.5653305,2.57606423Q10.4321804,2.5130888799999997,10.2961006,2.45672277Q10.1600208,2.40035665,10.0213394,2.3507356Q9.8826575,2.3011145,9.7417088,2.25835797Q9.600759,2.21560144,9.457881,2.17981246Q9.3150034,2.14402349,9.170541799999999,2.1152883Q9.0260801,2.086553112,8.880383,2.064940937Q8.734685899999999,2.0433287509999998,8.5881033,2.028891638Q8.4415207,2.014454524,8.294405900000001,2.007227262Q8.1472917,2,8,2Q7.8527079,2,7.7055931,2.007227262Q7.5584793,2.014454524,7.4118967,2.028891638Q7.2653141,2.0433287509999998,7.1196165,2.064940929Q6.9739189,2.086553112,6.8294573,2.1152883Q6.6849957,2.14402349,6.5421181,2.17981246Q6.399241,2.21560144,6.2582917,2.25835797Q6.117342,2.3011145,5.9786605999999995,2.35073557Q5.8399789,2.40035665,5.7038991,2.45672277Q5.5678196,2.5130888799999997,5.4346692999999995,2.57606423Q5.3015191999999995,2.63903958,5.1716194,2.70847243Q5.0417197,2.77790529,4.9153833,2.8536284Q4.789047,2.92935145,4.666578299999999,3.0111822999999998Q4.5441098,3.0930133,4.4258039,3.1807548Q4.307498,3.2684964,4.1936402,3.3619373Q4.079782,3.4553782,3.9706460999999997,3.5542932Q3.8615103,3.6532083,3.7573593,3.7573593Q3.6532083,3.8615103,3.5542933000000003,3.9706460999999997Q3.4553782,4.079782,3.3619373,4.1936402Q3.2684963,4.307498,3.1807548,4.4258039Q3.093013,4.5441098,3.0111822,4.666578299999999Q2.9293513300000003,4.789047,2.85362822,4.9153833Q2.77790523,5.0417199,2.70847237,5.1716199Q2.63903952,5.3015194,2.57606423,5.4346695Q2.5130888799999997,5.5678196,2.45672277,5.7038991Q2.40035665,5.8399789,2.3507356,5.9786605999999995Q2.3011145,6.117342,2.25835797,6.2582917Q2.21560144,6.399241,2.17981246,6.5421185Q2.14402349,6.6849961,2.1152883,6.8294578Q2.086553112,6.9739189,2.064940937,7.1196165Q2.0433287509999998,7.2653141,2.028891638,7.4118967Q2.014454524,7.5584793,2.007227262,7.7055931Q2,7.8527079,2,8Q2,8.1472917,2.007227262,8.2944064Q2.014454524,8.4415207,2.028891638,8.5881033Q2.0433287509999998,8.734685899999999,2.064940929,8.8803825Q2.086553112,9.0260801,2.1152883,9.170541799999999Q2.14402349,9.3150034,2.17981246,9.4578815Q2.21560144,9.600758599999999,2.25835797,9.741708299999999Q2.3011145,9.8826571,2.35073557,10.0213385Q2.40035665,10.1600199,2.45672277,10.2960997Q2.5130888799999997,10.4321795,2.57606423,10.5653305Q2.63903958,10.6984806,2.70847243,10.8283806Q2.77790529,10.9582806,2.8536284,11.0846167Q2.92935145,11.2109528,3.0111822999999998,11.3334208Q3.0930133,11.4558897,3.1807548,11.5741949Q3.2684964,11.6925011,3.3619373,11.8063593Q3.4553782,11.9202166,3.5542932,12.029352Q3.6532083,12.138489,3.7573593,12.24264Q3.8615103,12.34679,3.9706460999999997,12.445706Q4.079782,12.544621,4.1936402,12.638062Q4.307498,12.731503,4.4258039,12.819243Q4.5441098,12.906985,4.666578299999999,12.988816Q4.789047,13.070647,4.9153833,13.146371Q5.0417199,13.222094,5.1716199,13.291527Q5.3015194,13.36096,5.4346695,13.423935Q5.5678196,13.48691,5.7038991,13.543276Q5.8399789,13.599642,5.9786605999999995,13.649263Q6.117342,13.698885,6.2582917,13.741642Q6.399241,13.784397,6.5421185,13.820187Q6.6849961,13.855975,6.8294578,13.88471Q6.9739189,13.913446,7.1196165,13.935058Q7.2653141,13.956671,7.4118967,13.971108Q7.5584793,13.985545,7.7055931,13.992773Q7.8527079,14,8,14Q8.1472917,14,8.2944064,13.992772Q8.4415207,13.985545,8.5881033,13.971108Q8.734685899999999,13.956671,8.8803825,13.935059Q9.0260801,13.913446,9.170541799999999,13.88471Q9.3150034,13.855975,9.4578815,13.820187Q9.600758599999999,13.784397,9.741708299999999,13.741642Q9.8826571,13.698885,10.0213385,13.649263Q10.1600199,13.599642,10.2960997,13.543276Q10.4321795,13.48691,10.5653305,13.423935Q10.6984806,13.36096,10.8283806,13.291527Q10.9582806,13.222094,11.0846167,13.14637Q11.2109528,13.070647,11.3334208,12.988816Q11.4558897,12.906985,11.5741949,12.819244Q11.6925011,12.731503,11.8063593,12.638062Q11.9202166,12.544622,12.029352,12.445707Q12.138489,12.346792,12.24264,12.24264Q12.34679,12.13849,12.445706,12.029354Q12.544621,11.9202185,12.638062,11.8063612Q12.731503,11.692503,12.819243,11.5741968Q12.906985,11.4558907,12.988816,11.3334217Q13.070647,11.2109528,13.146371,11.0846167Q13.222094,10.9582806,13.291527,10.8283815Q13.36096,10.6984806,13.423935,10.5653305Q13.48691,10.4321804,13.543276,10.2961006Q13.599642,10.1600208,13.649263,10.0213394Q13.698885,9.8826575,13.741642,9.7417088Q13.784397,9.600759,13.820187,9.457881Q13.855975,9.3150034,13.88471,9.170541799999999Q13.913446,9.0260801,13.935058,8.880383Q13.956671,8.734685899999999,13.971108,8.5881033Q13.985545,8.4415207,13.992773,8.294405900000001Q14,8.1472917,14,8Z" fill="#FFFFFF" fill-opacity="1"/></g><g></g></g></svg>