<svg xmlns="http://www.w3.org/2000/svg" xmlns:xlink="http://www.w3.org/1999/xlink" fill="none" version="1.1" width="15.166748046875" height="15.1669921875" viewBox="0 0 15.166748046875 15.1669921875"><g><g><ellipse cx="7.5833740234375" cy="7.58349609375" rx="7" ry="7" fill="#FF0000" fill-opacity="1"/><path d="M15.1667070234375,7.58349609375Q15.1667070234375,7.76965619375,15.1575730234375,7.95559219375Q15.1484380234375,8.14152809375,15.1301920234375,8.32679219375Q15.1119440234375,8.512056393750001,15.0846280234375,8.69620129375Q15.0573120234375,8.88034629375,15.0209940234375,9.06293009375Q14.9846760234375,9.24551389375,14.9394430234375,9.42609409375Q14.8942090234375,9.60667609375,14.8401700234375,9.78482059375Q14.7861310234375,9.96296499375,14.7234150234375,10.13824269375Q14.6607000234375,10.31352139375,14.5894580234375,10.48551079375Q14.5182170234375,10.65750109375,14.4386230234375,10.82578709375Q14.3590300234375,10.99407509375,14.2712750234375,11.15825409375Q14.1835190234375,11.32243109375,14.0878140234375,11.48210709375Q13.9921090234375,11.64178209375,13.8886840234375,11.79656909375Q13.7852590234375,11.95135509375,13.6743630234375,12.10088109375Q13.5634680234375,12.25040609375,13.4453700234375,12.39431009375Q13.3272700234375,12.53821409375,13.2022520234375,12.67614909375Q13.0772350234375,12.81408509375,12.9456000234375,12.94572109375Q12.8139650234375,13.07735509375,12.6760290234375,13.20237309375Q12.5380940234375,13.32739109375,12.3941900234375,13.44549109375Q12.2502860234375,13.56358909375,12.1007590234375,13.67448509375Q11.9512350234375,13.78537909375,11.7964480234375,13.88880509375Q11.6416610234375,13.99223009375,11.4819860234375,14.08793509375Q11.3223110234375,14.18364109375,11.1581330234375,14.27139709375Q10.9939540234375,14.35915209375,10.8256660234375,14.43874509375Q10.6573790234375,14.51833909375,10.4853897234375,14.58958009375Q10.3134002234375,14.66082209375,10.1381216234375,14.72353709375Q9.9628429234375,14.78625309375,9.7846994234375,14.84029309375Q9.6065550234375,14.89433209375,9.4259739234375,14.93956509375Q9.2453918234375,14.98479809375,9.0628090234375,15.02111609375Q8.8802252234375,15.05743409375,8.6960792234375,15.08475009375Q8.511934323437501,15.11206609375,8.3266706234375,15.13031409375Q8.1414065234375,15.14855909375,7.9554701234375,15.15769509375Q7.7695341234375,15.16682809375,7.5833740234375,15.16682909375Q7.3972134234375,15.16682809375,7.2112775234375,15.15769509375Q7.0253410234375,15.14855909375,6.8400769234375,15.13031409375Q6.6548128234375,15.11206609375,6.4706678234375,15.08475009375Q6.2865219234375,15.05743409375,6.1039386234375,15.02111609375Q5.9213552234375,14.98479809375,5.7407741234375,14.93956509375Q5.5601926234375,14.89433109375,5.3820486234375,14.84029209375Q5.2039041234375,14.78625309375,5.0286259234375,14.72353709375Q4.8533478234375,14.66082209375,4.6813574234375,14.58958009375Q4.509367423437499,14.51833909375,4.341080623437501,14.43874509375Q4.172793623437499,14.35915209375,4.0086150234375,14.27139709375Q3.8444361234375,14.18364109375,3.6847610234375,14.08793609375Q3.5250861234375,13.99223109375,3.3702996234375,13.88880609375Q3.2155127234375,13.78538109375,3.0659876234375,13.67448509375Q2.9164622234375,13.56359009375,2.7725584234375,13.44549209375Q2.6286545234375,13.32739209375,2.4907186234375,13.20237409375Q2.3527827234375,13.07735709375,2.2211475234374998,12.94572209375Q2.0895123234375,12.81408709375,1.9644947234375,12.67615109375Q1.8394770234375,12.53821609375,1.7213781234375,12.39431209375Q1.6032791234375,12.25040809375,1.4923836034375,12.10088109375Q1.3814879034375,11.95135709375,1.2780627634375001,11.79657009375Q1.1746375534375,11.64178309375,1.0789320434375,11.48210809375Q0.9832264734375,11.32243309375,0.8954710934375,11.15825509375Q0.8077157134375,10.99407609375,0.7281218934375,10.82578809375Q0.6485280764375,10.65750109375,0.5772875845375,10.48551179375Q0.5060470924375,10.31352229375,0.44333155343749997,10.13824369375Q0.3806160134375,9.96296499375,0.3265765034375,9.78482149375Q0.2725369934375,9.60667709375,0.2273037134375,9.42609599375Q0.1820704334375,9.24551389375,0.14575237343750003,9.06293109375Q0.10943430343749999,8.88034729375,0.08211887343750002,8.69620129375Q0.05480349343750002,8.512056393750001,0.03655654343750003,8.32679269375Q0.018309653437500018,8.14152859375,0.009175183437500012,7.95559219375Q0.00004077343749997464,7.76965619375,0.00004071343750000622,7.58349609375Q0.00004077343749997464,7.39733549375,0.009175183437500012,7.21139959375Q0.018309653437500018,7.02546309375,0.03655654343750003,6.84019899375Q0.05480349343750002,6.65493489375,0.08211892343750005,6.47078989375Q0.10943430343749999,6.28664399375,0.14575237343750003,6.10406069375Q0.1820704334375,5.92147729375,0.2273037134375,5.74089619375Q0.2725369934375,5.56031469375,0.3265765034375,5.38217069375Q0.3806160134375,5.20402619375,0.44333155343749997,5.02874799375Q0.5060470924375,4.85346989375,0.5772875845375,4.68147949375Q0.6485280764375,4.509489493749999,0.7281218934375,4.341202693750001Q0.8077157134375,4.172915693749999,0.8954710934375,4.00873709375Q0.9832264734375,3.84455819375,1.0789320134375,3.68488309375Q1.1746375534375,3.52520819375,1.2780627634375001,3.37042169375Q1.3814879034375,3.21563479375,1.4923836034375,3.06610969375Q1.6032791234375,2.91658429375,1.7213781234375,2.77268049375Q1.8394770234375,2.62877659375,1.9644947234375,2.49084069375Q2.0895123234375,2.35290479375,2.2211475234374998,2.2212695937499998Q2.3527827234375,2.08963439375,2.4907186234375,1.96461679375Q2.6286542234375,1.83959909375,2.7725582234375,1.72150019375Q2.9164619234375,1.60340119375,3.0659873234375,1.49250567375Q3.2155127234375,1.38160997375,3.3702993234375,1.2781848337500001Q3.5250859234375,1.17475962375,3.6847610234375,1.07905411375Q3.8444361234375,0.98334854375,4.0086150234375,0.89559316375Q4.172793623437499,0.80783778375,4.341080623437501,0.72824396375Q4.509367423437499,0.64865014675,4.6813574234375,0.57740965485Q4.8533478234375,0.50616916275,5.0286255234375,0.44345362374999997Q5.2039041234375,0.38073808375,5.3820486234375,0.32669857375Q5.5601926234375,0.27265906375,5.7407741234375,0.22742578375Q5.9213552234375,0.18219250375,6.1039386234375,0.14587444375000003Q6.2865219234375,0.10955637374999999,6.4706673234375,0.08224094375000002Q6.6548133234375,0.05492556375000002,6.8400774234375,0.03667861375000003Q7.0253410234375,0.018431723750000018,7.2112770234375,0.009297253750000012Q7.3972134234375,0.00016284374999997464,7.5833740234375,0.00016278375000000622Q7.7695341234375,0.00016284374999997464,7.9554701234375,0.009297253750000012Q8.1414060234375,0.018431723750000018,8.3266701234375,0.03667861375000003Q8.511934323437501,0.05492556375000002,8.6960792234375,0.08224099375000005Q8.8802242234375,0.10955637374999999,9.0628080234375,0.14587444375000003Q9.2453918234375,0.18219250375,9.4259720234375,0.22742578375Q9.6065540234375,0.27265906375,9.7846985234375,0.32669857375Q9.9628429234375,0.38073808375,10.1381206234375,0.44345362374999997Q10.3133993234375,0.50616916275,10.4853887234375,0.57740965485Q10.6573790234375,0.64865014675,10.8256650234375,0.72824396375Q10.9939530234375,0.80783778375,11.1581320234375,0.89559316375Q11.3223090234375,0.98334854375,11.4819850234375,1.07905408375Q11.6416600234375,1.17475962375,11.7964470234375,1.2781848337500001Q11.9512330234375,1.38160997375,12.1007590234375,1.49250567375Q12.2502840234375,1.60340119375,12.3941880234375,1.72150019375Q12.5380920234375,1.83959909375,12.6760270234375,1.96461679375Q12.8139630234375,2.08963439375,12.9455990234375,2.2212695937499998Q13.0772330234375,2.35290479375,13.2022510234375,2.49084069375Q13.3272690234375,2.62877629375,13.4453690234375,2.77268029375Q13.5634670234375,2.91658399375,13.6743630234375,3.06610939375Q13.7852570234375,3.21563479375,13.8886830234375,3.37042139375Q13.9921080234375,3.52520799375,14.0878130234375,3.68488309375Q14.1835190234375,3.84455819375,14.2712750234375,4.00873709375Q14.3590300234375,4.172915693749999,14.4386230234375,4.341202693750001Q14.5182170234375,4.509489493749999,14.5894580234375,4.68147949375Q14.6607000234375,4.85346989375,14.7234150234375,5.02874759375Q14.7861310234375,5.20402619375,14.8401710234375,5.38217069375Q14.8942100234375,5.56031469375,14.9394430234375,5.74089619375Q14.9846760234375,5.92147729375,15.0209940234375,6.10406069375Q15.0573120234375,6.28664399375,15.0846280234375,6.47078939375Q15.1119440234375,6.65493539375,15.1301920234375,6.84019949375Q15.1484380234375,7.02546309375,15.1575730234375,7.21139909375Q15.1667070234375,7.39733549375,15.1667070234375,7.58349609375ZM14.5833740234375,7.58349609375Q14.5833740234375,7.41165589375,14.5749420234375,7.24002269375Q14.5665090234375,7.06838939375,14.5496660234375,6.89737649375Q14.5328230234375,6.72636319375,14.5076080234375,6.55638269375Q14.4823930234375,6.38640209375,14.4488700234375,6.21786359375Q14.4153440234375,6.04932499375,14.3735910234375,5.88263459375Q14.3318380234375,5.71594429375,14.2819560234375,5.55150319375Q14.2320730234375,5.38706209375,14.1741800234375,5.22526689375Q14.1162890234375,5.06347179375,14.0505290234375,4.90471169375Q13.9847680234375,4.74595169375,13.9112970234375,4.59061049375Q13.8378260234375,4.43526839375,13.7568220234375,4.283719093749999Q13.6758170234375,4.13216929375,13.5874730234375,3.98477649375Q13.4991290234375,3.83738419375,13.4036600234375,3.69450429375Q13.3081900234375,3.55162429375,13.2058260234375,3.41360089375Q13.1034600234375,3.27557759375,12.9944470234375,3.14274309375Q12.8854320234375,3.00990869375,12.7700310234375,2.88258309375Q12.6546310234375,2.75525809375,12.5331210234375,2.63374849375Q12.4116120234375,2.51223899375,12.2842860234375,2.39683809375Q12.1569610234375,2.28143719375,12.0241270234375,2.1724228937500003Q11.8912920234375,2.06340849375,11.7532670234375,1.96104339375Q11.6152440234375,1.85867809375,11.4723640234375,1.76320879375Q11.3294850234375,1.66773929375,11.1820930234375,1.57939577375Q11.0347000234375,1.49105215375,10.8831510234375,1.41004717375Q10.7316020234375,1.32904213375,10.5762596234375,1.25557094375Q10.4209175234375,1.18209970375,10.2621574234375,1.11633926375Q10.1033973234375,1.05057883375,9.9416027234375,0.99268758375Q9.7798080234375,0.93479630375,9.6153669234375,0.88491368375Q9.4509258234375,0.83503106375,9.2842350234375,0.79327727375Q9.1175442234375,0.75152348375,8.9490051234375,0.71799910375Q8.7804670234375,0.68447471375,8.6104870234375,0.65926051175Q8.4405069234375,0.63404629375,8.269494023437499,0.61720300075Q8.0984812234375,0.6003597027500001,7.9268474234375,0.59192789815Q7.7552142234375,0.58349609375,7.5833740234375,0.58349609375Q7.4115338234375,0.58349609375,7.2399006234375,0.59192789815Q7.0682673234375,0.6003597027500001,6.8972544234375,0.61720300075Q6.7262411234375,0.63404629375,6.5562606234375,0.65926050375Q6.3862800234375,0.68447471375,6.2177415234375,0.71799910375Q6.0492029234375,0.75152348375,5.8825125234375,0.79327726375Q5.7158222234375,0.83503106375,5.5513811234375,0.88491368375Q5.3869400234375,0.93479630375,5.2251448234375,0.99268755375Q5.0633497234375,1.05057883375,4.9045896234375,1.11633926375Q4.7458296234375,1.18209970375,4.5904884234375,1.25557088375Q4.4351463234375,1.3290420737500002,4.283597023437499,1.4100471137500001Q4.1320472234375,1.49105203375,3.9846544234375,1.57939565375Q3.8372621234375,1.66773919375,3.6943822234375,1.76320859375Q3.5515022234375,1.85867799375,3.4134788234375,1.96104319375Q3.2754555234375,2.06340839375,3.1426210234375,2.1724228937500003Q3.0097866234375,2.28143719375,2.8824610234375,2.39683819375Q2.7551360234375,2.51223899375,2.6336264234375,2.63374849375Q2.5121169234375,2.75525809375,2.3967160234375,2.88258309375Q2.2813151234375,3.00990869375,2.1723008234375003,3.14274309375Q2.0632864234375,3.27557759375,1.9609213234375,3.41360089375Q1.8585560234375,3.55162429375,1.7630867234375,3.69450429375Q1.6676172234375,3.83738419375,1.5792737034375,3.98477669375Q1.4909300834375,4.13216899375,1.4099251034375,4.283718793749999Q1.3289200634375,4.43526839375,1.2554488734375,4.59060999375Q1.1819776334375,4.74595169375,1.1162171934375,4.90471169375Q1.0504567634375,5.06347179375,0.9925655134375,5.22526689375Q0.9346742334375,5.38706209375,0.8847916134375,5.55150319375Q0.8349089934375,5.71594429375,0.7931552034375,5.88263459375Q0.7514014134375,6.04932499375,0.7178770334375,6.21786359375Q0.6843526434375,6.38640209375,0.6591384414375,6.55638269375Q0.6339242234375,6.72636319375,0.6170809304375,6.89737609375Q0.6002376324375001,7.06838889375,0.5918058278375,7.24002269375Q0.5833740234375,7.41165589375,0.5833740234375,7.58349609375Q0.5833740234375,7.75533629375,0.5918058278375,7.92696999375Q0.6002376324375001,8.09860329375,0.6170809304375,8.269616093749999Q0.6339242234375,8.44062899375,0.6591384334375,8.61060909375Q0.6843526434375,8.78058909375,0.7178770334375,8.94912719375Q0.7514014134375,9.11766629375,0.7931551934375,9.28435709375Q0.8349089934375,9.45104789375,0.8847916134375,9.61548899375Q0.9346742334375,9.77993009375,0.9925654834375,9.94172479375Q1.0504567634375,10.10351939375,1.1162171934375,10.26227949375Q1.1819776334375,10.42103959375,1.2554488134375,10.57638169375Q1.3289200034375002,10.73172409375,1.4099250434375001,10.88327309375Q1.4909299634375,11.03482209375,1.5792735834375,11.18221509375Q1.6676171234375,11.32960709375,1.7630865234375,11.47248609375Q1.8585559234375,11.61536609375,1.9609211234375,11.75338909375Q2.0632863234375,11.89141409375,2.1723008234375003,12.02424909375Q2.2813151234375,12.15708309375,2.3967161234375,12.28440809375Q2.5121169234375,12.41173409375,2.6336264234375,12.53324309375Q2.7551360234375,12.65475309375,2.8824610234375,12.77015409375Q3.0097866234375,12.88555409375,3.1426210234375,12.99456909375Q3.2754555234375,13.10358209375,3.4134788234375,13.20594709375Q3.5515022234375,13.30831209375,3.6943822234375,13.40378209375Q3.8372621234375,13.49925109375,3.9846546234375,13.58759509375Q4.1320469234375,13.67593909375,4.283596723437499,13.75694509375Q4.4351463234375,13.83795009375,4.5904879234375,13.91142109375Q4.7458296234375,13.98489209375,4.9045896234375,14.05065109375Q5.0633497234375,14.11641209375,5.2251448234375,14.17430409375Q5.3869400234375,14.23219509375,5.5513811234375,14.28207909375Q5.7158222234375,14.33196109375,5.8825125234375,14.37371409375Q6.0492029234375,14.41546709375,6.2177415234375,14.44899209375Q6.3862800234375,14.48251509375,6.5562606234375,14.50773009375Q6.7262411234375,14.53294609375,6.8972540234375,14.54978909375Q7.0682668234375,14.56663209375,7.2399006234375,14.57506409375Q7.4115338234375,14.58349609375,7.5833740234375,14.58349609375Q7.7552142234375,14.58349609375,7.9268479234375,14.57506409375Q8.0984812234375,14.56663109375,8.269494023437499,14.54978809375Q8.4405069234375,14.53294509375,8.6104870234375,14.50773009375Q8.7804670234375,14.48251509375,8.9490051234375,14.44899209375Q9.1175442234375,14.41546609375,9.2842350234375,14.37371309375Q9.4509258234375,14.33196009375,9.6153669234375,14.28207809375Q9.7798080234375,14.23219509375,9.9416027234375,14.17430209375Q10.1033973234375,14.11641109375,10.2621574234375,14.05065109375Q10.4209175234375,13.98489009375,10.5762596234375,13.91141909375Q10.7316020234375,13.83794809375,10.8831510234375,13.75694409375Q11.0347000234375,13.67593909375,11.1820930234375,13.58759509375Q11.3294850234375,13.49925109375,11.4723640234375,13.40378209375Q11.6152440234375,13.30831209375,11.7532670234375,13.20594809375Q11.8912920234375,13.10358209375,12.0241270234375,12.99456909375Q12.1569610234375,12.88555409375,12.2842860234375,12.77015309375Q12.4116120234375,12.65475309375,12.5331210234375,12.53324309375Q12.6546310234375,12.41173409375,12.7700320234375,12.28440809375Q12.8854320234375,12.15708309375,12.9944470234375,12.02424909375Q13.1034600234375,11.89141409375,13.2058250234375,11.75338909375Q13.3081900234375,11.61536609375,13.4036600234375,11.47248609375Q13.4991290234375,11.32960709375,13.5874730234375,11.18221509375Q13.6758170234375,11.03482209375,13.7568230234375,10.88327309375Q13.8378280234375,10.73172409375,13.9112990234375,10.57638169375Q13.9847700234375,10.42103959375,14.0505290234375,10.26227949375Q14.1162900234375,10.10351939375,14.1741820234375,9.94172479375Q14.2320730234375,9.77993009375,14.2819570234375,9.61548899375Q14.3318390234375,9.45104789375,14.3735920234375,9.28435709375Q14.4153450234375,9.11766629375,14.4488700234375,8.94912719375Q14.4823930234375,8.78058909375,14.5076080234375,8.61060909375Q14.5328240234375,8.44062899375,14.5496670234375,8.269616093749999Q14.5665100234375,8.09860329375,14.5749420234375,7.92696949375Q14.5833740234375,7.75533629375,14.5833740234375,7.58349609375Z" fill="#FFFFFF" fill-opacity="1"/></g><g><path d="M9.858373623437501,8.18749619375C9.7053737234375,7.94449619375,9.489373723437499,7.76449629375,9.210373923437501,7.63849619375C9.4533739234375,7.521496293749999,9.651373823437499,7.34149619375,9.7863736234375,7.10749629375C9.9213738234375,6.882496393749999,9.9933738234375,6.63049649375,9.9933738234375,6.35149619375C9.9933738234375,5.80249639375,9.8223738234375,5.37049629375,9.489373723437499,5.07349629375C9.1473737234375,4.77649641375,8.6703739234375,4.62349653375,8.0673740234375,4.62349653375L5.6733739934375,4.62349653375L5.6733739934375,10.83349609375L8.1663739234375,10.83349609375C8.7693739234375,10.83349609375,9.237373823437501,10.680496193749999,9.5703740234375,10.365496193750001C9.9033737234375,10.050496093749999,10.0743737234375,9.61849589375,10.0743737234375,9.051495993749999C10.0743737234375,8.71849629375,10.0023737234375,8.430496193749999,9.858373623437501,8.18749619375ZM6.8523741234374995,7.161496193750001L6.8523741234374995,5.64949609375L7.9773738234375,5.64949609375C8.2473738234375,5.64949609375,8.4543738234375,5.71249629375,8.5983739234375,5.8474964937500005C8.733373923437501,5.98249629375,8.8053739234375,6.17149639375,8.8053739234375,6.42349629375C8.8053739234375,6.65749649375,8.733373923437501,6.83749629375,8.5983739234375,6.96349619375C8.4543738234375,7.09849619375,8.2473738234375,7.161496193750001,7.9773738234375,7.161496193750001L6.8523741234374995,7.161496193750001ZM8.6883738234375,9.58249619375C8.5443740234375,9.735496093750001,8.3283739234375,9.80749609375,8.0493738234375,9.80749609375L6.8523741234374995,9.80749609375L6.8523741234374995,8.18749619375L8.0493738234375,8.18749619375C8.3283739234375,8.18749619375,8.5443740234375,8.25949619375,8.6883738234375,8.394495993749999C8.8233738234375,8.52949619375,8.895373823437499,8.72749619375,8.895373823437499,8.97049619375C8.895373823437499,9.23149629375,8.8233738234375,9.43849609375,8.6883738234375,9.58249619375Z" fill="#FFFFFF" fill-opacity="1"/></g></g></svg>