<svg xmlns="http://www.w3.org/2000/svg" xmlns:xlink="http://www.w3.org/1999/xlink" fill="none" version="1.1" width="15.16650390625" height="15.1669921875" viewBox="0 0 15.16650390625 15.1669921875"><g><g><ellipse cx="7.583251953125" cy="7.58349609375" rx="7" ry="7" fill="#007AFF" fill-opacity="1"/><path d="M15.166584953125,7.58349609375Q15.166584953125,7.76965619375,15.157450953125,7.95559219375Q15.148315953125,8.14152809375,15.130069953125,8.32679219375Q15.111821953125,8.512056393750001,15.084505953125,8.69620129375Q15.057189953125,8.88034629375,15.020871953125,9.06293009375Q14.984553953125,9.24551389375,14.939320953125,9.42609409375Q14.894086953125,9.60667609375,14.840047953125,9.78482059375Q14.786008953125,9.96296499375,14.723292953125,10.13824269375Q14.660577953125,10.31352139375,14.589335953125,10.48551079375Q14.518094953125,10.65750109375,14.438500953125,10.82578709375Q14.358907953125,10.99407509375,14.271152953125,11.15825409375Q14.183396953125,11.32243109375,14.087691953125,11.48210709375Q13.991986953125,11.64178209375,13.888561953125,11.79656909375Q13.785136953125,11.95135509375,13.674240953125,12.10088109375Q13.563345953125,12.25040609375,13.445247953125,12.39431009375Q13.327147953125,12.53821409375,13.202129953125,12.67614909375Q13.077112953125,12.81408509375,12.945477953125,12.94572109375Q12.813842953125,13.07735509375,12.675906953125,13.20237309375Q12.537971953125,13.32739109375,12.394067953125,13.44549109375Q12.250163953125,13.56358909375,12.100636953125,13.67448509375Q11.951112953125,13.78537909375,11.796325953125,13.88880509375Q11.641538953125,13.99223009375,11.481863953125,14.08793509375Q11.322188953125,14.18364109375,11.158010953125,14.27139709375Q10.993831953125,14.35915209375,10.825543953125,14.43874509375Q10.657256953125,14.51833909375,10.485267653125,14.58958009375Q10.313278153125,14.66082209375,10.137999553125,14.72353709375Q9.962720853125,14.78625309375,9.784577353125,14.84029309375Q9.606432953125,14.89433209375,9.425851853125,14.93956509375Q9.245269753125,14.98479809375,9.062686953125,15.02111609375Q8.880103153125,15.05743409375,8.695957153125,15.08475009375Q8.511812253125001,15.11206609375,8.326548553125,15.13031409375Q8.141284453125,15.14855909375,7.955348053125,15.15769509375Q7.769412053125,15.16682809375,7.583251953125,15.16682909375Q7.397091353125,15.16682809375,7.211155453125,15.15769509375Q7.025218953125,15.14855909375,6.839954853125,15.13031409375Q6.654690753125,15.11206609375,6.470545753125,15.08475009375Q6.286399853125,15.05743409375,6.103816553125,15.02111609375Q5.921233153125,14.98479809375,5.740652053125,14.93956509375Q5.560070553125,14.89433109375,5.381926553125,14.84029209375Q5.203782053125,14.78625309375,5.028503853125,14.72353709375Q4.853225753125,14.66082209375,4.681235353125,14.58958009375Q4.509245353124999,14.51833909375,4.340958553125001,14.43874509375Q4.172671553124999,14.35915209375,4.008492953125,14.27139709375Q3.844314053125,14.18364109375,3.684638953125,14.08793609375Q3.524964053125,13.99223109375,3.370177553125,13.88880609375Q3.215390653125,13.78538109375,3.065865553125,13.67448509375Q2.916340153125,13.56359009375,2.772436353125,13.44549209375Q2.628532453125,13.32739209375,2.490596553125,13.20237409375Q2.352660653125,13.07735709375,2.2210254531249998,12.94572209375Q2.089390253125,12.81408709375,1.964372653125,12.67615109375Q1.839354953125,12.53821609375,1.721256053125,12.39431209375Q1.603157053125,12.25040809375,1.492261533125,12.10088109375Q1.381365833125,11.95135709375,1.2779406931250001,11.79657009375Q1.174515483125,11.64178309375,1.078809973125,11.48210809375Q0.983104403125,11.32243309375,0.895349023125,11.15825509375Q0.807593643125,10.99407609375,0.727999823125,10.82578809375Q0.648406006125,10.65750109375,0.577165514225,10.48551179375Q0.505925022125,10.31352229375,0.44320948312499997,10.13824369375Q0.380493943125,9.96296499375,0.326454433125,9.78482149375Q0.272414923125,9.60667709375,0.227181643125,9.42609599375Q0.181948363125,9.24551389375,0.14563030312500003,9.06293109375Q0.10931223312499999,8.88034729375,0.08199680312500002,8.69620129375Q0.05468142312500002,8.512056393750001,0.03643447312500003,8.32679269375Q0.018187583125000018,8.14152859375,0.009053113125000012,7.95559219375Q-0.00008129687500002536,7.76965619375,-0.00008135687499999378,7.58349609375Q-0.00008129687500002536,7.39733549375,0.009053113125000012,7.21139959375Q0.018187583125000018,7.02546309375,0.03643447312500003,6.84019899375Q0.05468142312500002,6.65493489375,0.08199685312500005,6.47078989375Q0.10931223312499999,6.28664399375,0.14563030312500003,6.10406069375Q0.181948363125,5.92147729375,0.227181643125,5.74089619375Q0.272414923125,5.56031469375,0.326454433125,5.38217069375Q0.380493943125,5.20402619375,0.44320948312499997,5.02874799375Q0.505925022125,4.85346989375,0.577165514225,4.68147949375Q0.648406006125,4.509489493749999,0.727999823125,4.341202693750001Q0.807593643125,4.172915693749999,0.895349023125,4.00873709375Q0.983104403125,3.84455819375,1.078809943125,3.68488309375Q1.174515483125,3.52520819375,1.2779406931250001,3.37042169375Q1.381365833125,3.21563479375,1.492261533125,3.06610969375Q1.603157053125,2.91658429375,1.721256053125,2.77268049375Q1.839354953125,2.62877659375,1.964372653125,2.49084069375Q2.089390253125,2.35290479375,2.2210254531249998,2.2212695937499998Q2.352660653125,2.08963439375,2.490596553125,1.96461679375Q2.628532153125,1.83959909375,2.772436153125,1.72150019375Q2.916339853125,1.60340119375,3.065865253125,1.49250567375Q3.215390653125,1.38160997375,3.370177253125,1.2781848337500001Q3.524963853125,1.17475962375,3.684638953125,1.07905411375Q3.844314053125,0.98334854375,4.008492953125,0.89559316375Q4.172671553124999,0.80783778375,4.340958553125001,0.72824396375Q4.509245353124999,0.64865014675,4.681235353125,0.57740965485Q4.853225753125,0.50616916275,5.028503453125,0.44345362374999997Q5.203782053125,0.38073808375,5.381926553125,0.32669857375Q5.560070553125,0.27265906375,5.740652053125,0.22742578375Q5.921233153125,0.18219250375,6.103816553125,0.14587444375000003Q6.286399853125,0.10955637374999999,6.470545253125,0.08224094375000002Q6.654691253125,0.05492556375000002,6.839955353125,0.03667861375000003Q7.025218953125,0.018431723750000018,7.211154953125,0.009297253750000012Q7.397091353125,0.00016284374999997464,7.583251953125,0.00016278375000000622Q7.769412053125,0.00016284374999997464,7.955348053125,0.009297253750000012Q8.141283953125,0.018431723750000018,8.326548053125,0.03667861375000003Q8.511812253125001,0.05492556375000002,8.695957153125,0.08224099375000005Q8.880102153125,0.10955637374999999,9.062685953125,0.14587444375000003Q9.245269753125,0.18219250375,9.425849953125,0.22742578375Q9.606431953125,0.27265906375,9.784576453125,0.32669857375Q9.962720853125,0.38073808375,10.137998553125,0.44345362374999997Q10.313277253125,0.50616916275,10.485266653125,0.57740965485Q10.657256953125,0.64865014675,10.825542953125,0.72824396375Q10.993830953125,0.80783778375,11.158009953125,0.89559316375Q11.322186953125,0.98334854375,11.481862953125,1.07905408375Q11.641537953125,1.17475962375,11.796324953125,1.2781848337500001Q11.951110953125,1.38160997375,12.100636953125,1.49250567375Q12.250161953125,1.60340119375,12.394065953125,1.72150019375Q12.537969953125,1.83959909375,12.675904953125,1.96461679375Q12.813840953125,2.08963439375,12.945476953125,2.2212695937499998Q13.077110953125,2.35290479375,13.202128953125,2.49084069375Q13.327146953125,2.62877629375,13.445246953125,2.77268029375Q13.563344953125,2.91658399375,13.674240953125,3.06610939375Q13.785134953125,3.21563479375,13.888560953125,3.37042139375Q13.991985953125,3.52520799375,14.087690953125,3.68488309375Q14.183396953125,3.84455819375,14.271152953125,4.00873709375Q14.358907953125,4.172915693749999,14.438500953125,4.341202693750001Q14.518094953125,4.509489493749999,14.589335953125,4.68147949375Q14.660577953125,4.85346989375,14.723292953125,5.02874759375Q14.786008953125,5.20402619375,14.840048953125,5.38217069375Q14.894087953125,5.56031469375,14.939320953125,5.74089619375Q14.984553953125,5.92147729375,15.020871953125,6.10406069375Q15.057189953125,6.28664399375,15.084505953125,6.47078939375Q15.111821953125,6.65493539375,15.130069953125,6.84019949375Q15.148315953125,7.02546309375,15.157450953125,7.21139909375Q15.166584953125,7.39733549375,15.166584953125,7.58349609375ZM14.583251953125,7.58349609375Q14.583251953125,7.41165589375,14.574819953125,7.24002269375Q14.566386953125,7.06838939375,14.549543953125,6.89737649375Q14.532700953125,6.72636319375,14.507485953125,6.55638269375Q14.482270953125,6.38640209375,14.448747953125,6.21786359375Q14.415221953125,6.04932499375,14.373468953125,5.88263459375Q14.331715953125,5.71594429375,14.281833953125,5.55150319375Q14.231950953125,5.38706209375,14.174057953125,5.22526689375Q14.116166953125,5.06347179375,14.050406953125,4.90471169375Q13.984645953125,4.74595169375,13.911174953125,4.59061049375Q13.837703953125,4.43526839375,13.756699953125,4.283719093749999Q13.675694953125,4.13216929375,13.587350953125,3.98477649375Q13.499006953125,3.83738419375,13.403537953125,3.69450429375Q13.308067953125,3.55162429375,13.205703953125,3.41360089375Q13.103337953125,3.27557759375,12.994324953125,3.14274309375Q12.885309953125,3.00990869375,12.769908953125,2.88258309375Q12.654508953125,2.75525809375,12.532998953125,2.63374849375Q12.411489953125,2.51223899375,12.284163953125,2.39683809375Q12.156838953125,2.28143719375,12.024004953125,2.1724228937500003Q11.891169953125,2.06340849375,11.753144953125,1.96104339375Q11.615121953125,1.85867809375,11.472241953125,1.76320879375Q11.329362953125,1.66773929375,11.181970953125,1.57939577375Q11.034577953125,1.49105215375,10.883028953125,1.41004717375Q10.731479953125,1.32904213375,10.576137553125,1.25557094375Q10.420795453125,1.18209970375,10.262035353125,1.11633926375Q10.103275253125,1.05057883375,9.941480653125,0.99268758375Q9.779685953125,0.93479630375,9.615244853125,0.88491368375Q9.450803753125,0.83503106375,9.284112953125,0.79327727375Q9.117422153125,0.75152348375,8.948883053125,0.71799910375Q8.780344953125,0.68447471375,8.610364953125,0.65926051175Q8.440384853125,0.63404629375,8.269371953124999,0.61720300075Q8.098359153125,0.6003597027500001,7.926725353125,0.59192789815Q7.755092153125,0.58349609375,7.583251953125,0.58349609375Q7.411411753125,0.58349609375,7.239778553125,0.59192789815Q7.068145253125,0.6003597027500001,6.897132353125,0.61720300075Q6.726119053125,0.63404629375,6.556138553125,0.65926050375Q6.386157953125,0.68447471375,6.217619453125,0.71799910375Q6.049080853125,0.75152348375,5.882390453125,0.79327726375Q5.715700153125,0.83503106375,5.551259053125,0.88491368375Q5.386817953125,0.93479630375,5.225022753125,0.99268755375Q5.063227653125,1.05057883375,4.904467553125,1.11633926375Q4.745707553125,1.18209970375,4.590366353125,1.25557088375Q4.435024253125,1.3290420737500002,4.283474953124999,1.4100471137500001Q4.131925153125,1.49105203375,3.984532353125,1.57939565375Q3.837140053125,1.66773919375,3.694260153125,1.76320859375Q3.551380153125,1.85867799375,3.413356753125,1.96104319375Q3.275333453125,2.06340839375,3.142498953125,2.1724228937500003Q3.009664553125,2.28143719375,2.882338953125,2.39683819375Q2.755013953125,2.51223899375,2.633504353125,2.63374849375Q2.511994853125,2.75525809375,2.396593953125,2.88258309375Q2.281193053125,3.00990869375,2.1721787531250003,3.14274309375Q2.063164353125,3.27557759375,1.960799253125,3.41360089375Q1.858433953125,3.55162429375,1.762964653125,3.69450429375Q1.667495153125,3.83738419375,1.579151633125,3.98477669375Q1.490808013125,4.13216899375,1.409803033125,4.283718793749999Q1.328797993125,4.43526839375,1.255326803125,4.59060999375Q1.181855563125,4.74595169375,1.116095123125,4.90471169375Q1.050334693125,5.06347179375,0.992443443125,5.22526689375Q0.934552163125,5.38706209375,0.884669543125,5.55150319375Q0.834786923125,5.71594429375,0.793033133125,5.88263459375Q0.751279343125,6.04932499375,0.717754963125,6.21786359375Q0.684230573125,6.38640209375,0.659016371125,6.55638269375Q0.633802153125,6.72636319375,0.616958860125,6.89737609375Q0.6001155621250001,7.06838889375,0.591683757525,7.24002269375Q0.583251953125,7.41165589375,0.583251953125,7.58349609375Q0.583251953125,7.75533629375,0.591683757525,7.92696999375Q0.6001155621250001,8.09860329375,0.616958860125,8.269616093749999Q0.633802153125,8.44062899375,0.659016363125,8.61060909375Q0.684230573125,8.78058909375,0.717754963125,8.94912719375Q0.751279343125,9.11766629375,0.793033123125,9.28435709375Q0.834786923125,9.45104789375,0.884669543125,9.61548899375Q0.934552163125,9.77993009375,0.992443413125,9.94172479375Q1.050334693125,10.10351939375,1.116095123125,10.26227949375Q1.181855563125,10.42103959375,1.255326743125,10.57638169375Q1.3287979331250002,10.73172409375,1.4098029731250001,10.88327309375Q1.490807893125,11.03482209375,1.579151513125,11.18221509375Q1.667495053125,11.32960709375,1.762964453125,11.47248609375Q1.858433853125,11.61536609375,1.960799053125,11.75338909375Q2.063164253125,11.89141409375,2.1721787531250003,12.02424909375Q2.281193053125,12.15708309375,2.396594053125,12.28440809375Q2.511994853125,12.41173409375,2.633504353125,12.53324309375Q2.755013953125,12.65475309375,2.882338953125,12.77015409375Q3.009664553125,12.88555409375,3.142498953125,12.99456909375Q3.275333453125,13.10358209375,3.413356753125,13.20594709375Q3.551380153125,13.30831209375,3.694260153125,13.40378209375Q3.837140053125,13.49925109375,3.984532553125,13.58759509375Q4.131924853125,13.67593909375,4.283474653124999,13.75694509375Q4.435024253125,13.83795009375,4.590365853125,13.91142109375Q4.745707553125,13.98489209375,4.904467553125,14.05065109375Q5.063227653125,14.11641209375,5.225022753125,14.17430409375Q5.386817953125,14.23219509375,5.551259053125,14.28207909375Q5.715700153125,14.33196109375,5.882390453125,14.37371409375Q6.049080853125,14.41546709375,6.217619453125,14.44899209375Q6.386157953125,14.48251509375,6.556138553125,14.50773009375Q6.726119053125,14.53294609375,6.897131953125,14.54978909375Q7.068144753125,14.56663209375,7.239778553125,14.57506409375Q7.411411753125,14.58349609375,7.583251953125,14.58349609375Q7.755092153125,14.58349609375,7.926725853125,14.57506409375Q8.098359153125,14.56663109375,8.269371953124999,14.54978809375Q8.440384853125,14.53294509375,8.610364953125,14.50773009375Q8.780344953125,14.48251509375,8.948883053125,14.44899209375Q9.117422153125,14.41546609375,9.284112953125,14.37371309375Q9.450803753125,14.33196009375,9.615244853125,14.28207809375Q9.779685953125,14.23219509375,9.941480653125,14.17430209375Q10.103275253125,14.11641109375,10.262035353125,14.05065109375Q10.420795453125,13.98489009375,10.576137553125,13.91141909375Q10.731479953125,13.83794809375,10.883028953125,13.75694409375Q11.034577953125,13.67593909375,11.181970953125,13.58759509375Q11.329362953125,13.49925109375,11.472241953125,13.40378209375Q11.615121953125,13.30831209375,11.753144953125,13.20594809375Q11.891169953125,13.10358209375,12.024004953125,12.99456909375Q12.156838953125,12.88555409375,12.284163953125,12.77015309375Q12.411489953125,12.65475309375,12.532998953125,12.53324309375Q12.654508953125,12.41173409375,12.769909953125,12.28440809375Q12.885309953125,12.15708309375,12.994324953125,12.02424909375Q13.103337953125,11.89141409375,13.205702953125,11.75338909375Q13.308067953125,11.61536609375,13.403537953125,11.47248609375Q13.499006953125,11.32960709375,13.587350953125,11.18221509375Q13.675694953125,11.03482209375,13.756700953125,10.88327309375Q13.837705953125,10.73172409375,13.911176953125,10.57638169375Q13.984647953125,10.42103959375,14.050406953125,10.26227949375Q14.116167953125,10.10351939375,14.174059953125,9.94172479375Q14.231950953125,9.77993009375,14.281834953125,9.61548899375Q14.331716953125,9.45104789375,14.373469953125,9.28435709375Q14.415222953125,9.11766629375,14.448747953125,8.94912719375Q14.482270953125,8.78058909375,14.507485953125,8.61060909375Q14.532701953125,8.44062899375,14.549544953125,8.269616093749999Q14.566387953125,8.09860329375,14.574819953125,7.92696949375Q14.583251953125,7.75533629375,14.583251953125,7.58349609375Z" fill="#FFFFFF" fill-opacity="1"/></g><g><path d="M9.563251953125,10.58349609375L10.883252153125,5.06349559375L9.907251853125,5.06349559375L9.123251953125,8.95949599375L8.275251853124999,5.06349559375L6.971251753124999,5.06349559375L6.163251853125,8.95949599375L5.3312517531250005,5.06349559375L4.283251703125,5.06349559375L5.643251753125,10.58349609375L6.595251753125,10.58349609375L7.595251753125,6.49549579375L8.603251953125,10.58349609375L9.563251953125,10.58349609375Z" fill="#FFFFFF" fill-opacity="1"/></g></g></svg>