<svg xmlns="http://www.w3.org/2000/svg" xmlns:xlink="http://www.w3.org/1999/xlink" fill="none" version="1.1" width="12" height="12" viewBox="0 0 12 12"><defs><mask id="master_svg0_346_05167" style="mask-type:alpha" maskUnits="objectBoundingBox"><g><rect x="0" y="0" width="12" height="12" rx="0" fill="#FFFFFF" fill-opacity="1"/></g></mask></defs><g mask="url(#master_svg0_346_05167)"><g transform="matrix(1,-2.2348336514710354e-8,2.2348336514710354e-8,1,-2.2348336514710354e-8,3.7390905816003794e-8)"><path d="M1.712001692125,9.9992218C1.542901933125,10.3787565,1.958266283125,10.752944,2.318152073125,10.5452814L5.785619703125,8.544467000000001C5.918278703125,8.4679189,6.081689403125,8.4679189,6.214348803125,8.544465500000001L9.681884803125,10.5452938C10.041770003125,10.7529535,10.457132303125,10.378767,10.288033503125,9.9992332L6.391799403125,1.25435469C6.240697403125,0.915215075,5.759332203125,0.915215075,5.608230303125,1.25435469L1.712001692125,9.9992218Z" fill="#055FE7" fill-opacity="1"/><path d="M1.255282613125,9.7957335Q0.980612873125,10.4122124,1.482047453125,10.8639374Q1.9834820931250001,11.315662,2.568045973125,10.9783545L5.999985203125,8.9980412L9.431993003125001,10.9783688Q10.016555803125,11.315672,10.517988203125,10.8639469Q11.019421603125,10.4122219,10.744752903125,9.7957449L6.848518403125,1.050865903Q6.603082703125,0.5,6.000014803125,0.5Q5.396946203125,0.5,5.151511703125,1.050866768L1.255282613125,9.7957335ZM2.318152073125,10.5452814C1.958266283125,10.752944,1.542901933125,10.3787565,1.712001692125,9.9992218L5.608230303125,1.25435469C5.759332203125,0.915215075,6.240697403125,0.915215075,6.391799403125,1.25435469L10.288033503125,9.9992332C10.457132303125,10.378767,10.041770003125,10.7529535,9.681884803125,10.5452938L6.214348803125,8.544465500000001C6.081689403125,8.4679189,5.918278703125,8.4679189,5.785619703125,8.544467000000001L2.318152073125,10.5452814Z" fill-rule="evenodd" fill="#FFFFFF" fill-opacity="1"/></g></g></svg>