<svg xmlns="http://www.w3.org/2000/svg" xmlns:xlink="http://www.w3.org/1999/xlink" fill="none" version="1.1" width="12" height="12" viewBox="0 0 12 12"><defs><mask id="master_svg0_9_57785" style="mask-type:alpha" maskUnits="objectBoundingBox"><g><rect x="0" y="0" width="12" height="12" rx="0" fill="#FFFFFF" fill-opacity="1"/></g></mask></defs><g mask="url(#master_svg0_9_57785)"><g transform="matrix(0,0.9999999403953552,-0.9999999403953552,0,12.749999910593033,-9.749999329447746)"><path d="M11.288905989,10.4992218C11.11980623,10.8787565,11.53517058,11.252944,11.89505637,11.0452814L15.362524,9.044467000000001C15.495183,8.9679189,15.6585937,8.9679189,15.791253099999999,9.044465500000001L19.2587891,11.0452938C19.618674300000002,11.2529535,20.0340366,10.878767,19.8649378,10.4992332L15.968703699999999,1.75435469C15.8176017,1.415215075,15.3362365,1.415215075,15.1851346,1.75435469L11.288905989,10.4992218Z" fill="#055FE7" fill-opacity="1"/><path d="M10.94636667,10.3466053Q10.70865846,10.8801279,11.14261661,11.2710657Q11.57657504,11.662004,12.08247668,11.3700867L15.5499449,9.369272200000001Q15.5768895,9.3537245,15.603834599999999,9.369272200000001L19.0713701,11.3701Q19.5772724,11.662014,20.011228600000003,11.2710762Q20.4451847,10.8801384,20.2074776,10.3466167L16.3112431,1.60173813Q16.0988345,1.12499994,15.5769191,1.12499997Q15.0550036,1.12499997,14.8425956,1.60173833L10.94636667,10.3466053ZM11.89505637,11.0452814C11.53517058,11.252944,11.11980623,10.8787565,11.288905989,10.4992218L15.1851346,1.75435469C15.3362365,1.415215075,15.8176017,1.415215075,15.968703699999999,1.75435469L19.8649378,10.4992332C20.0340366,10.878767,19.618674300000002,11.2529535,19.2587891,11.0452938L15.791253099999999,9.044465500000001C15.6585937,8.9679189,15.495183,8.9679189,15.362524,9.044467000000001L11.89505637,11.0452814Z" fill-rule="evenodd" fill="#FFFFFF" fill-opacity="1"/></g></g></svg>