<svg xmlns="http://www.w3.org/2000/svg" xmlns:xlink="http://www.w3.org/1999/xlink" fill="none" version="1.1" width="18.02001953125" height="18.0201416015625" viewBox="0 0 18.02001953125 18.0201416015625"><g><g><ellipse cx="9.010079383850098" cy="9.010079383850098" rx="8.316964149475098" ry="8.316964149475098" fill="#FF0000" fill-opacity="1"/><path d="M18.020124234375,9.010079334375Q18.020122234375,9.231263134375,18.009269234375,9.452180834375Q17.998417234375,9.673099534375,17.976738234375,9.893219034375Q17.955059234375,10.113337534375,17.922603234375,10.332127534375Q17.890148234375,10.550916634375,17.846996234375,10.767851234375Q17.803844234375,10.984785234375,17.750103234375,11.199341234375Q17.696357234375,11.413896234375,17.632152234375,11.625557234375Q17.567945234375,11.837216234375,17.493431234375,12.045471234375Q17.418915234375,12.253725234375,17.334272234375,12.458072234375Q17.249628234375,12.662420234375,17.155060234375,12.862367234375Q17.060489234375,13.062317234375,16.956226234375,13.257383234375Q16.851959234375,13.452450234375,16.738249234375,13.642166234375Q16.624538234375002,13.831881234375,16.501656234374998,14.015790234375Q16.378773234375,14.199697234375,16.247013234375,14.377355234375Q16.115254234375,14.555012234375,15.974937234375,14.725990234375Q15.834619234375,14.896968234375,15.686081234375,15.060854234375Q15.537542234375,15.224741234375,15.381141234375,15.381141234375Q15.224741234375,15.537542234375,15.060855234375,15.686081234375Q14.896968234375,15.834619234375,14.725990234375,15.974937234375Q14.555012234375,16.115253234375,14.377355234375,16.247012234375Q14.199698234375,16.378772234375,14.015791234375,16.501655234375Q13.831882234375,16.624538234375002,13.642166234375,16.738249234375Q13.452450234375,16.851959234375,13.257383234375,16.956226234375Q13.062317234375,17.060489234375,12.862367234375,17.155060234375Q12.662420234375,17.249628234375,12.458072234375,17.334272234375Q12.253725234375,17.418915234375,12.045470234375,17.493431234375Q11.837216234375,17.567945234375,11.625557234375,17.632152234375Q11.413896234375,17.696357234375,11.199341234375,17.750103234375Q10.984785234375,17.803844234375,10.767851234375,17.846996234375Q10.550916634375,17.890148234375,10.332126634375,17.922603234375Q10.113336534375,17.955059234375,9.893218034375,17.976738234375Q9.673098534375,17.998417234375,9.452180834375,18.009269234375Q9.231263134375,18.020122234375,9.010079334375,18.020124234375Q8.788894634375,18.020122234375,8.567977434374999,18.009269234375Q8.347059734375,17.998417234375,8.126940734375001,17.976738234375Q7.906821234375,17.955059234375,7.688031234375,17.922603234375Q7.469240234375,17.890148234375,7.252306434375,17.846996234375Q7.035372234375,17.803844234375,6.820817034375,17.750103234375Q6.606261234375,17.696357234375,6.394601334375,17.632152234375Q6.182940934375,17.567945234375,5.974686134375,17.493431234375Q5.766431834375,17.418915234375,5.562084234375,17.334272234375Q5.357736634375,17.249628234375,5.157788734375,17.155060234375Q4.957840434375,17.060489234375,4.762773534375,16.956226234375Q4.567706634375,16.851959234375,4.3779904343750005,16.738249234375Q4.188274834375,16.624538234375002,4.004366834375,16.501656234374998Q3.820458934375,16.378773234375,3.642802234375,16.247013234375Q3.465145334375,16.115254234375,3.294167734375,15.974937234375Q3.123189934375,15.834619234375,2.959303334375,15.686081234375Q2.795416834375,15.537542234375,2.639015834375,15.381141234375Q2.4826150343749998,15.224741234375,2.334076834375,15.060855234375Q2.185538734375,14.896968234375,2.045220934375,14.725990234375Q1.904903134375,14.555012234375,1.773143934375,14.377355234375Q1.641384604375,14.199698234375,1.518501224375,14.015791234375Q1.395617844375,13.831882234375,1.2819064843749999,13.642166234375Q1.1681950643749999,13.452450234375,1.063929584375,13.257383234375Q0.959664074375,13.062317234375,0.865095644375,12.862367234375Q0.770527236375,12.662420234375,0.685883715775,12.458072234375Q0.601240188375,12.253725234375,0.5267254743750001,12.045470234375Q0.452210754375,11.837216234375,0.388004364375,11.625557234375Q0.323798004375,11.413896234375,0.270054604375,11.199341234375Q0.216311244375,10.984785234375,0.17316037437499998,10.767851234375Q0.130009474375,10.550916634375,0.09755504437499996,10.332126634375Q0.06510055437499995,10.113336534375,0.04342067437499997,9.893218034375Q0.02174091437500003,9.673098534375,0.010887864375,9.452180834375Q0.000034924374999967256,9.231263134375,0.00003486437499999884,9.010079334375Q0.000034924374999967256,8.788894634375,0.010887864375,8.567977434374999Q0.02174091437500003,8.347059734375,0.04342067437499997,8.126940734375001Q0.06510055437499995,7.906821234375,0.09755498437499999,7.688031234375Q0.13000941437500002,7.469240234375,0.173160314375,7.252306434375Q0.216311214375,7.035372234375,0.270054574375,6.820817034375Q0.323797944375,6.606261234375,0.388004334375,6.394601334375Q0.452210724375,6.182940934375,0.526725424375,5.974686134375Q0.601240120375,5.766431834375,0.685883641275,5.562084234375Q0.770527154375,5.357736634375,0.865095574375,5.157788734375Q0.959663984375,4.957840434375,1.063929494375,4.762773534375Q1.168194984375,4.567706634375,1.2819063643750002,4.3779904343750005Q1.395617724375,4.188274834375,1.518501044375,4.004366834375Q1.641384364375,3.820458934375,1.773143634375,3.642802234375Q1.904902934375,3.465145334375,2.045220734375,3.294167734375Q2.185538534375,3.123189934375,2.334076634375,2.959303334375Q2.482614834375,2.795416834375,2.639015634375,2.639015834375Q2.795416634375,2.4826150343749998,2.959303134375,2.334076834375Q3.123189934375,2.185538734375,3.294167534375,2.045220934375Q3.465145134375,1.904903134375,3.642802034375,1.773143934375Q3.820458634375,1.641384604375,4.004366634375,1.518501224375Q4.188274634375,1.395617844375,4.377990734375,1.2819064843749999Q4.567706634375,1.1681950643749999,4.762773534375,1.063929584375Q4.957840434375,0.959664074375,5.157788234375,0.865095644375Q5.357736634375,0.770527236375,5.562084234375,0.685883715775Q5.766431834375,0.601240188375,5.974686134375,0.5267254743750001Q6.182940934375,0.452210754375,6.394601334375,0.388004364375Q6.606261234375,0.323798004375,6.820817034375,0.270054604375Q7.035372734375,0.216311244375,7.252306934375,0.17316037437499998Q7.469241134375,0.130009474375,7.688031234375,0.09755504437499996Q7.906821234375,0.06510055437499995,8.126940734375001,0.04342067437499997Q8.347059734375,0.02174091437500003,8.567977434374999,0.010887864375Q8.788894634375,0.000034924374999967256,9.010079334375,0.00003486437499999884Q9.231263134375,0.000034924374999967256,9.452180834375,0.010887864375Q9.673099534375,0.02174091437500003,9.893219034375,0.04342067437499997Q10.113337534375,0.06510055437499995,10.332127534375,0.09755498437499999Q10.550916634375,0.13000941437500002,10.767851234375,0.173160314375Q10.984785234375,0.216311214375,11.199341234375,0.270054574375Q11.413896234375,0.323797944375,11.625557234375,0.388004334375Q11.837216234375,0.452210724375,12.045471234375,0.526725424375Q12.253725234375,0.601240120375,12.458072234375,0.685883641275Q12.662420234375,0.770527154375,12.862367234375,0.865095574375Q13.062317234375,0.959663984375,13.257383234375,1.063929494375Q13.452450234375,1.168194984375,13.642166234375,1.2819063643750002Q13.831881234375,1.395617724375,14.015790234375,1.518501044375Q14.199697234375,1.641384364375,14.377355234375,1.773143634375Q14.555012234375,1.904902934375,14.725990234375,2.045220734375Q14.896968234375,2.185538534375,15.060854234375,2.334076634375Q15.224741234375,2.482614834375,15.381141234375,2.639015634375Q15.537542234375,2.795416634375,15.686081234375,2.959303134375Q15.834619234375,3.123189934375,15.974937234375,3.294167534375Q16.115253234375,3.465145134375,16.247012234375,3.642802034375Q16.378772234375,3.820458634375,16.501655234375,4.004366634375Q16.624538234375002,4.188274634375,16.738249234375,4.377990734375Q16.851959234375,4.567706634375,16.956226234375,4.762773534375Q17.060489234375,4.957840434375,17.155060234375,5.157788234375Q17.249628234375,5.357736634375,17.334272234375,5.562084234375Q17.418915234375,5.766431834375,17.493431234375,5.974686134375Q17.567945234375,6.182940934375,17.632152234375,6.394601334375Q17.696357234375,6.606261234375,17.750103234375,6.820817034375Q17.803844234375,7.035372734375,17.846996234375,7.252306934375Q17.890148234375,7.469241134375,17.922603234375,7.688031234375Q17.955059234375,7.906821234375,17.976738234375,8.126940734375001Q17.998417234375,8.347059734375,18.009269234375,8.567977434374999Q18.020122234375,8.788894634375,18.020124234375,9.010079334375ZM17.327043234375,9.010079334375Q17.327041234375,8.805909134375,17.317024234375,8.601984934375Q17.307007234375,8.398060834375,17.286995234375,8.194874334375001Q17.266983234375,7.991687334375,17.237024234375,7.789727234375Q17.207065234375,7.587766634375,17.167234234375,7.387519834375Q17.127403234375,7.187273034375,17.077793234375,6.989222034375Q17.028183234375,6.791171034375,16.968916234375,6.595792334375Q16.909649234375,6.400413534375,16.840866234375,6.208178534375Q16.772083234375,6.015943034375,16.693950234375,5.827314334375Q16.615818234375,5.638686134375,16.528524234375,5.454118734375Q16.441231234375,5.269551234375,16.344986234375,5.089489434375Q16.248741234375,4.909427634375,16.143776234375,4.734305334375Q16.038811234375,4.559182634375,15.925380234375,4.389421434375Q15.811950234375,4.2196602343750005,15.690326234375,4.0556693343750005Q15.568702234375,3.891678334375,15.439179234375,3.733853134375Q15.309654234375,3.576027434375,15.172542234375,3.424747434375Q15.035429234375,3.273467534375,14.891060234375,3.129097434375Q14.746689234375,2.984727334375,14.595409234375,2.847615434375Q14.444130234375,2.710503134375,14.286304234375,2.580979134375Q14.128479234375,2.4514548343750002,13.964487234375,2.329831034375Q13.800497234375,2.208207134375,13.630735234375,2.094776434375Q13.460974234375,1.981345534375,13.285851234375,1.876381134375Q13.110729234375,1.771416934375,12.930668234375,1.675171794375Q12.750606234375,1.5789266843749998,12.566038234375,1.491632764375Q12.381470234375,1.4043388343749998,12.192842234375,1.326206324375Q12.004213234375,1.248073874375,11.811979234375,1.179291074375Q11.619744234375,1.110508264375,11.424366234375,1.051240864375Q11.228987234375,0.991973434375,11.030935234375,0.942364174375Q10.832884234375,0.892754914375,10.632637034375,0.852923334375Q10.432390234375,0.813091754375,10.230430634375,0.783133797375Q10.028470034375,0.753175839375,9.825284034375,0.733163684375Q9.622097034375,0.713151525375,9.418172834375,0.703133380375Q9.214248634375,0.693115234375,9.010079334375,0.693115234375Q8.805909134375,0.693115234375,8.601984934375,0.703133380375Q8.398060834375,0.713151525375,8.194874334375001,0.733163684375Q7.991687334375,0.753175839375,7.789727234375,0.783133790375Q7.587766634375,0.813091754375,7.387519834375,0.852923334375Q7.187273034375,0.892754914375,6.989222034375,0.942364184375Q6.791171034375,0.991973434375,6.595792334375,1.051240864375Q6.400413534375,1.110508264375,6.208178534375,1.179291074375Q6.015943034375,1.248073874375,5.827314334375,1.326206324375Q5.638686134375,1.4043388343749998,5.454118734375,1.491632764375Q5.269551234375,1.5789266843749998,5.089489434375,1.675171734375Q4.909427634375,1.771416734375,4.734305334375,1.876381134375Q4.559182634375,1.981345434375,4.389421434375,2.094776234375Q4.2196602343750005,2.208207034375,4.0556693343750005,2.329831034375Q3.891678334375,2.4514548343750002,3.733853134375,2.580979134375Q3.576027434375,2.710503134375,3.424747434375,2.847615234375Q3.273467534375,2.984727334375,3.129097434375,3.129097434375Q2.984727334375,3.273467534375,2.847615434375,3.424747434375Q2.710503134375,3.576027434375,2.580979134375,3.733853334375Q2.4514548343750002,3.891678534375,2.329831034375,4.0556693343750005Q2.208207134375,4.2196602343750005,2.094776434375,4.389421434375Q1.981345534375,4.559182634375,1.876381134375,4.734305334375Q1.771416934375,4.909427634375,1.675171794375,5.089489934375Q1.5789266843749998,5.269551234375,1.491632764375,5.454118734375Q1.4043388343749998,5.638686134375,1.326206324375,5.827314334375Q1.248073874375,6.015943034375,1.179291074375,6.208178534375Q1.110508264375,6.400413534375,1.051240864375,6.595792334375Q0.991973434375,6.791171034375,0.942364174375,6.989222034375Q0.892754914375,7.187273034375,0.852923334375,7.387519834375Q0.813091754375,7.587766634375,0.783133797375,7.789727234375Q0.753175839375,7.991687734375,0.733163684375,8.194874734375Q0.713151525375,8.398061234375,0.703133380375,8.601984934375Q0.693115234375,8.805909134375,0.693115234375,9.010079334375Q0.693115234375,9.214248634375,0.703133380375,9.418172834375Q0.713151525375,9.622096034375,0.733163684375,9.825283034375Q0.753175839375,10.028469134375,0.783133790375,10.230429634375Q0.813091754375,10.432390234375,0.852923334375,10.632637034375Q0.892754914375,10.832884234375,0.942364184375,11.030935234375Q0.991973434375,11.228987234375,1.051240864375,11.424366234375Q1.110508264375,11.619744234375,1.179291074375,11.811979234375Q1.248073874375,12.004213234375,1.326206324375,12.192842234375Q1.4043388343749998,12.381470234375,1.491632764375,12.566038234375Q1.5789266843749998,12.750606234375,1.675171734375,12.930669234375Q1.771416734375,13.110731234375,1.876381134375,13.285852234375Q1.981345434375,13.460975234375,2.094776234375,13.630736234375Q2.208207034375,13.800498234375,2.329831034375,13.964489234375Q2.4514548343750002,14.128480234375,2.580979134375,14.286305234375Q2.710503134375,14.444130234375,2.847615234375,14.595410234375Q2.984727334375,14.746691234375,3.129097434375,14.891061234375Q3.273467534375,15.035431234375,3.424747434375,15.172542234375Q3.576027434375,15.309655234375,3.733853334375,15.439179234375Q3.891678534375,15.568702234375,4.0556693343750005,15.690326234375Q4.2196602343750005,15.811950234375,4.389421434375,15.925380234375Q4.559182634375,16.038811234375,4.734305334375,16.143776234375Q4.909427634375,16.248741234375,5.089489934375,16.344986234375Q5.269551234375,16.441231234375,5.454118734375,16.528524234375Q5.638686134375,16.615818234375,5.827314334375,16.693950234375Q6.015943034375,16.772083234375,6.208178534375,16.840866234375Q6.400413534375,16.909649234375,6.595792334375,16.968916234375Q6.791171034375,17.028183234375,6.989222034375,17.077793234375Q7.187273034375,17.127403234375,7.387519834375,17.167234234375Q7.587766634375,17.207065234375,7.789727234375,17.237024234375Q7.991687734375,17.266983234375,8.194874734375,17.286995234375Q8.398061234375,17.307007234375,8.601984934375,17.317024234375Q8.805909134375,17.327041234375,9.010079334375,17.327043234375Q9.214248634375,17.327041234375,9.418172834375,17.317024234375Q9.622096034375,17.307007234375,9.825283034375,17.286995234375Q10.028469134375,17.266983234375,10.230429634375,17.237024234375Q10.432390234375,17.207065234375,10.632637034375,17.167234234375Q10.832884234375,17.127403234375,11.030935234375,17.077793234375Q11.228987234375,17.028183234375,11.424366234375,16.968916234375Q11.619744234375,16.909649234375,11.811979234375,16.840866234375Q12.004213234375,16.772083234375,12.192842234375,16.693950234375Q12.381470234375,16.615818234375,12.566038234375,16.528524234375Q12.750606234375,16.441231234375,12.930669234375,16.344986234375Q13.110731234375,16.248741234375,13.285852234375,16.143776234375Q13.460975234375,16.038811234375,13.630736234375,15.925380234375Q13.800498234375,15.811950234375,13.964489234375,15.690326234375Q14.128480234375,15.568702234375,14.286305234375,15.439179234375Q14.444130234375,15.309654234375,14.595410234375,15.172542234375Q14.746691234375,15.035429234375,14.891061234375,14.891060234375Q15.035431234375,14.746689234375,15.172542234375,14.595409234375Q15.309655234375,14.444130234375,15.439179234375,14.286304234375Q15.568702234375,14.128479234375,15.690326234375,13.964487234375Q15.811950234375,13.800497234375,15.925380234375,13.630735234375Q16.038811234375,13.460974234375,16.143776234375,13.285851234375Q16.248741234375,13.110729234375,16.344986234375,12.930668234375Q16.441231234375,12.750606234375,16.528524234375,12.566038234375Q16.615818234375,12.381470234375,16.693950234375,12.192842234375Q16.772083234375,12.004213234375,16.840866234375,11.811979234375Q16.909649234375,11.619744234375,16.968916234375,11.424366234375Q17.028183234375,11.228987234375,17.077793234375,11.030935234375Q17.127403234375,10.832884234375,17.167234234375,10.632637034375Q17.207065234375,10.432390234375,17.237024234375,10.230430634375Q17.266983234375,10.028470034375,17.286995234375,9.825284034375Q17.307007234375,9.622097034375,17.317024234375,9.418172834375Q17.327041234375,9.214248634375,17.327043234375,9.010079334375Z" fill="#FFFFFF" fill-opacity="1"/></g><g><path d="M7.829823017120361,12.85159728322754L7.829823017120361,5.942972183227539L9.275588517120362,5.942972183227539Q9.75104161712036,5.942972183227539,10.085799417120361,6.088519093227539Q10.420557217120361,6.234066013227539,10.63402601712036,6.476644043227539Q10.847494817120362,6.719222543227539,10.939674417120361,7.034573983227539Q11.03185411712036,7.349925483227539,11.03185411712036,7.689534683227539L11.03185411712036,7.9418162832275385Q11.03185411712036,8.223206483227539,10.988190217120362,8.417269183227539Q10.944526217120362,8.61133198322754,10.85719801712036,8.756878383227539Q10.692244817120361,9.02856588322754,10.35263541712036,9.22262858322754Q10.70194791712036,9.387581783227539,10.866901117120362,9.707785083227538Q11.03185411712036,10.02798798322754,11.03185411712036,10.58106608322754L11.03185411712036,10.969191083227539Q11.03185411712036,11.88128468322754,10.59036211712036,12.36644128322754Q10.14887001712036,12.85159728322754,9.178557417120361,12.85159728322754L7.829823017120361,12.85159728322754ZM8.81954180712036,9.649566183227538L8.81954180712036,11.86187838322754L9.246479317120361,11.86187838322754Q9.54727601712036,11.86187838322754,9.717080817120362,11.77455048322754Q9.88688541712036,11.68722248322754,9.97421361712036,11.53197238322754Q10.06154181712036,11.37672238322754,10.08094811712036,11.16325328322754Q10.100354217120362,10.949784783227539,10.100354217120362,10.69750358322754Q10.100354217120362,10.43551918322754,10.071244917120362,10.24145648322754Q10.04213551712036,10.04739428322754,9.95480731712036,9.91155048322754Q9.85777611712036,9.77570678322754,9.692822917120361,9.71263648322754Q9.527869917120361,9.649566183227538,9.25618241712036,9.649566183227538L8.81954180712036,9.649566183227538ZM8.81954180712036,6.874472613227539L8.81954180712036,8.776284683227539L9.265885317120361,8.776284683227539Q9.760744817120361,8.776284683227539,9.930549617120361,8.52885528322754Q10.100354217120362,8.281425483227538,10.100354217120362,7.805972583227539Q10.100354217120362,7.340222383227539,9.911143317120361,7.107347483227539Q9.721932417120362,6.874472613227539,9.227072917120362,6.874472613227539L8.81954180712036,6.874472613227539Z" fill="#FFFFFF" fill-opacity="1"/></g></g></svg>