<svg xmlns="http://www.w3.org/2000/svg" xmlns:xlink="http://www.w3.org/1999/xlink" fill="none" version="1.1" width="26" height="26" viewBox="0 0 26 26"><g><g><ellipse cx="13" cy="13" rx="12" ry="12" fill="#FFEC4E" fill-opacity="1"/><path d="M26,13Q26,13.319132,25.984341,13.637879Q25.968681,13.956627,25.937401,14.274222Q25.90612,14.591818,25.859293,14.907495Q25.812466,15.223173,25.750206,15.536173Q25.687946,15.849173,25.610403,16.15874Q25.53286,16.468307,25.44022,16.773699Q25.34758,17.07909,25.240067,17.379566Q25.132555,17.680042,25.010429,17.974882Q24.888302,18.269722,24.751856,18.558214Q24.61541,18.846706,24.464973,19.128157Q24.314535,19.409605,24.150469,19.683334Q23.986401,19.957062,23.809101,20.222412Q23.631802,20.487762,23.441696,20.744091Q23.251587,21.00042,23.049133,21.247112Q22.846678,21.493805,22.632362,21.730265Q22.418045,21.966726,22.192387,22.192387Q21.966726,22.418045,21.730267,22.632362Q21.493805,22.846678,21.247112,23.049133Q21.00042,23.251587,20.744091,23.441694Q20.487762,23.631802,20.222412,23.809103Q19.957062,23.986403,19.683334,24.150471Q19.409605,24.314537,19.128157,24.464975Q18.846706,24.615412,18.558214,24.751858Q18.269722,24.888306,17.974882,25.010431Q17.680042,25.132557,17.379566,25.24007Q17.07909,25.347584,16.773699999999998,25.440224Q16.468308,25.532862,16.158739,25.610405Q15.849172,25.687946,15.536172,25.750206Q15.223172,25.812466,14.907495,25.859293Q14.591818,25.90612,14.274222,25.937401Q13.956627,25.968681,13.637878,25.984341Q13.319132,26,13,26Q12.680868,26,12.362121,25.984341Q12.043373,25.968681,11.725779,25.937401Q11.408182,25.90612,11.092505,25.859293Q10.7768259,25.812466,10.4638252,25.750206Q10.1508255,25.687946,9.8412571,25.610403Q9.5316887,25.53286,9.2262993,25.44022Q8.9209089,25.34758,8.620431400000001,25.240067Q8.319954899999999,25.132555,8.025115,25.010429Q7.7302752,24.888302,7.4417839,24.751856Q7.1532917,24.61541,6.8718429,24.464973Q6.5903931,24.314535,6.3166642,24.150469Q6.0429354,23.986401,5.7775865,23.809101Q5.512238,23.631802,5.2559085,23.441696Q4.9995794,23.251587,4.7528872,23.049133Q4.506194600000001,22.846678,4.2697334,22.632362Q4.0332723,22.418045,3.8076117,22.192387Q3.5819511,21.966726,3.3676353,21.730267Q3.1533194,21.493805,2.950864,21.247112Q2.7484088,21.00042,2.5583019,20.744091Q2.3681951999999997,20.487762,2.1908947999999997,20.222412Q2.0135946000000002,19.957062,1.84952796,19.683334Q1.68546128,19.409605,1.53502351,19.128157Q1.38458568,18.846706,1.24813914,18.558214Q1.11169261,18.269722,0.989566058,17.974882Q0.86743951,17.680042,0.75992715,17.379566Q0.6524148000000001,17.07909,0.55977565,16.773699999999998Q0.46713649999999995,16.468308,0.38959372000000003,16.158739Q0.31205094,15.849172,0.24979138,15.536172Q0.18753182999999995,15.223172,0.14070541000000003,14.907495Q0.09387897999999995,14.591818,0.06259853000000004,14.274222Q0.031318190000000024,13.956627,0.015659089999999987,13.637878Q0,13.319132,0,13Q0,12.680868,0.015659089999999987,12.362121Q0.031318190000000024,12.043373,0.06259853000000004,11.725779Q0.09387897999999995,11.408182,0.14070541000000003,11.092505Q0.18753182999999995,10.7768259,0.24979143999999998,10.4638252Q0.31205106000000005,10.1508255,0.38959378,9.8412571Q0.46713656000000003,9.5316887,0.55977568,9.2262993Q0.6524148599999999,8.9209089,0.75992723,8.620431400000001Q0.86743958,8.319954899999999,0.989566147,8.025115Q1.1116927,7.7302752,1.24813926,7.4417839Q1.38458583,7.1532917,1.53502369,6.8718429Q1.68546146,6.5903931,1.84952813,6.3166642Q2.0135947,6.0429354,2.1908951,5.7775865Q2.3681954000000003,5.512238,2.5583022,5.2559085Q2.748409,4.9995794,2.9508643,4.7528872Q3.1533196,4.506194600000001,3.3676357,4.2697334Q3.5819516,4.0332723,3.8076119,3.8076117Q4.0332723,3.5819511,4.2697337,3.3676353Q4.506195099999999,3.1533194,4.7528875,2.950864Q4.9995799000000005,2.7484088,5.255909,2.5583019Q5.5122385,2.3681951999999997,5.7775869,2.1908947999999997Q6.0429354,2.0135946000000002,6.3166647,1.84952796Q6.5903931,1.68546128,6.8718429,1.53502351Q7.1532917,1.38458568,7.4417834,1.24813914Q7.7302752,1.11169261,8.025115,0.989566058Q8.319954899999999,0.86743951,8.620431400000001,0.75992715Q8.9209089,0.6524148000000001,9.2262993,0.55977565Q9.5316887,0.46713649999999995,9.8412571,0.38959372000000003Q10.1508255,0.31205094,10.4638252,0.24979138Q10.7768259,0.18753182999999995,11.092505,0.14070541000000003Q11.408182,0.09387897999999995,11.725778,0.06259853000000004Q12.043373,0.031318190000000024,12.36212,0.015659089999999987Q12.680868,0,13,0Q13.319132,0,13.637879,0.015659089999999987Q13.956627,0.031318190000000024,14.274222,0.06259853000000004Q14.591818,0.09387897999999995,14.907495,0.14070541000000003Q15.223173,0.18753182999999995,15.536173,0.24979143999999998Q15.849173,0.31205106000000005,16.15874,0.38959378Q16.468307,0.46713656000000003,16.773699,0.55977568Q17.07909,0.6524148599999999,17.379566,0.75992723Q17.680042,0.86743958,17.974882,0.989566147Q18.269722,1.1116927,18.558214,1.24813926Q18.846706,1.38458583,19.128157,1.53502369Q19.409605,1.68546146,19.683334,1.84952813Q19.957062,2.0135947,20.222412,2.1908951Q20.487762,2.3681954000000003,20.744091,2.5583022Q21.00042,2.748409,21.247112,2.9508643Q21.493805,3.1533196,21.730265,3.3676357Q21.966726,3.5819516,22.192387,3.8076119Q22.418045,4.0332723,22.632362,4.2697337Q22.846678,4.506195099999999,23.049133,4.7528875Q23.251587,4.9995799000000005,23.441694,5.255909Q23.631802,5.5122385,23.809103,5.7775869Q23.986403,6.0429354,24.150471,6.3166647Q24.314537,6.5903931,24.464975,6.8718429Q24.615412,7.1532917,24.751858,7.4417834Q24.888306,7.7302752,25.010431,8.025115Q25.132557,8.319954899999999,25.24007,8.620431400000001Q25.347584,8.9209089,25.440224,9.2262993Q25.532862,9.5316887,25.610405,9.8412571Q25.687946,10.1508255,25.750206,10.4638252Q25.812466,10.7768259,25.859293,11.092505Q25.90612,11.408182,25.937401,11.725778Q25.968681,12.043373,25.984341,12.36212Q26,12.680868,26,13ZM25,13Q25,12.705416,24.985544,12.411186Q24.97109,12.116959,24.942217,11.823793Q24.913342,11.530628,24.870117,11.239233Q24.826893,10.9478378,24.769421,10.6589146Q24.71195,10.3699913,24.640373,10.0842361Q24.568794,9.7984819,24.483284,9.5165834Q24.39777,9.234684,24.298527,8.957321199999999Q24.199284,8.6799579,24.086552,8.4077983Q23.97382,8.1356392,23.84787,7.8693385Q23.72192,7.6030383,23.583054,7.3432388Q23.444187,7.0834394,23.29274,6.8307667Q23.141294,6.578094,22.977633,6.3331566Q22.813971,6.0882196,22.638489,5.8516078Q22.463005,5.614996,22.276125,5.3872805Q22.089245,5.159564,21.891415,4.941292300000001Q21.693584,4.7230206,21.485281,4.5147185Q21.276979,4.3064165,21.058708,4.1085864999999995Q20.840437,3.9107563,20.612722,3.7238746Q20.385006,3.5369925,20.148394,3.3615096Q19.911781,3.1860261,19.666843,3.0223644Q19.421906,2.8587027000000003,19.169233,2.7072564Q18.916561,2.5558104999999998,18.656763,2.4169447Q18.396961,2.278079,18.130661,2.1521285Q17.864361,2.0261778,17.592201,1.91344553Q17.320042,1.8007133,17.042679,1.70147121Q16.765315,1.602229,16.483418,1.51671594Q16.201518,1.43120289,15.915762,1.35962492Q15.630007,1.28804699,15.341084,1.2305766Q15.05216,1.17310622,14.760766,1.12988187Q14.469372,1.086657502,14.176207,1.057783276Q13.883041,1.028909048,13.588812,1.014454524Q13.294583,1,13,1Q12.705416,1,12.411186,1.014454524Q12.116959,1.028909048,11.823793,1.057783276Q11.530628,1.086657502,11.239233,1.12988186Q10.9478378,1.17310622,10.6589146,1.2305766Q10.3699913,1.28804699,10.0842361,1.35962492Q9.7984819,1.43120289,9.5165834,1.51671594Q9.234684,1.602229,8.957321199999999,1.7014711500000002Q8.6799579,1.8007133,8.4077983,1.91344553Q8.1356392,2.0261778,7.8693385,2.1521285Q7.6030383,2.2780792,7.3432388,2.4169449Q7.0834394,2.5558106,6.8307667,2.7072567999999997Q6.578094,2.8587029,6.3331566,3.0223646Q6.0882196,3.1860266,5.8516078,3.3615096Q5.614996,3.5369928,5.3872805,3.7238746Q5.159564,3.9107563,4.941292300000001,4.1085863Q4.7230206,4.3064165,4.5147185,4.5147185Q4.3064165,4.7230206,4.1085864999999995,4.941292300000001Q3.9107563,5.159564,3.7238746,5.3872805Q3.5369925,5.614996,3.3615096,5.8516078Q3.1860261,6.0882196,3.0223644,6.3331566Q2.8587027000000003,6.578094,2.7072564,6.8307667Q2.5558104999999998,7.0834398,2.4169447,7.3432398Q2.278079,7.6030388,2.1521285,7.869339Q2.0261778,8.1356392,1.91344553,8.4077983Q1.8007133,8.6799579,1.70147121,8.957321199999999Q1.602229,9.234684,1.51671594,9.5165834Q1.43120289,9.7984819,1.35962492,10.0842371Q1.28804699,10.3699923,1.2305766,10.6589155Q1.17310622,10.9478378,1.12988187,11.239233Q1.086657502,11.530628,1.057783276,11.823793Q1.028909048,12.116959,1.014454524,12.411186Q1,12.705416,1,13Q1,13.294583,1.014454524,13.588813Q1.028909048,13.883041,1.057783276,14.176207Q1.086657502,14.469372,1.12988186,14.760765Q1.17310622,15.05216,1.2305766,15.341084Q1.28804699,15.630007,1.35962492,15.915763Q1.43120289,16.201517000000003,1.51671594,16.483417Q1.602229,16.765314,1.7014711500000002,17.042677Q1.8007133,17.32004,1.91344553,17.592199Q2.0261778,17.864359,2.1521285,18.130661Q2.2780792,18.396961,2.4169449,18.656761Q2.5558106,18.916561,2.7072567999999997,19.169233Q2.8587029,19.421906,3.0223646,19.666842Q3.1860266,19.911779,3.3615096,20.14839Q3.5369928,20.385002,3.7238746,20.612719Q3.9107563,20.840433,4.1085863,21.058704Q4.3064165,21.276978,4.5147185,21.485279Q4.7230206,21.693581,4.941292300000001,21.891413Q5.159564,22.089243,5.3872805,22.276125Q5.614996,22.463005,5.8516078,22.638487Q6.0882196,22.813971,6.3331566,22.977633Q6.578094,23.141294,6.8307667,23.292742Q7.0834398,23.444187,7.3432398,23.583054Q7.6030388,23.72192,7.869339,23.84787Q8.1356392,23.97382,8.4077983,24.086552Q8.6799579,24.199284,8.957321199999999,24.298527Q9.234684,24.39777,9.5165834,24.483284Q9.7984819,24.568794,10.0842371,24.640373Q10.3699923,24.71195,10.6589155,24.769421Q10.9478378,24.826893,11.239233,24.870115Q11.530628,24.913342,11.823793,24.942217Q12.116959,24.97109,12.411186,24.985546Q12.705416,25,13,25Q13.294583,25,13.588813,24.985544Q13.883041,24.97109,14.176207,24.942217Q14.469372,24.913342,14.760765,24.870117Q15.05216,24.826893,15.341084,24.769421Q15.630007,24.71195,15.915763,24.640373Q16.201517000000003,24.568794,16.483417,24.483284Q16.765314,24.39777,17.042677,24.298527Q17.32004,24.199284,17.592199,24.086552Q17.864359,23.97382,18.130661,23.84787Q18.396961,23.72192,18.656761,23.583054Q18.916561,23.444187,19.169233,23.29274Q19.421906,23.141294,19.666842,22.977633Q19.911779,22.813971,20.14839,22.638489Q20.385002,22.463005,20.612719,22.276125Q20.840433,22.089245,21.058704,21.891415Q21.276978,21.693584,21.485279,21.485281Q21.693581,21.276979,21.891413,21.058708Q22.089243,20.840437,22.276125,20.612722Q22.463005,20.385006,22.638487,20.148394Q22.813971,19.911781,22.977633,19.666843Q23.141294,19.421906,23.292742,19.169233Q23.444187,18.916561,23.583054,18.656763Q23.72192,18.396961,23.84787,18.130661Q23.97382,17.864361,24.086552,17.592201Q24.199284,17.320042,24.298527,17.042679Q24.39777,16.765315,24.483284,16.483418Q24.568794,16.201518,24.640373,15.915762Q24.71195,15.630007,24.769421,15.341084Q24.826893,15.05216,24.870115,14.760766Q24.913342,14.469372,24.942217,14.176207Q24.97109,13.883041,24.985546,13.588812Q25,13.294583,25,13Z" fill="#FFFFFF" fill-opacity="1"/></g><g><path d="M15.3590002,15.158L15.3590002,15.7740002Q15.3590002,16.2360001,15.184000000000001,16.6490002Q15.0090003,17.061999999999998,14.7010002,17.384Q14.3930001,17.706,13.9800003,17.895Q13.567000199999999,18.084,13.0910001,18.084Q12.685000200000001,18.084,12.2650001,17.972Q11.845,17.86,11.5090001,17.58Q11.1730001,17.3,10.95600003,16.8590002Q10.73900002,16.4180002,10.73900002,15.7320004L10.73900002,10.244Q10.73900002,9.7539997,10.90700006,9.3339996Q11.075,8.9139996,11.383,8.6059999Q11.6910001,8.2979994,12.118,8.1230001Q12.5450001,7.94799995,13.0630002,7.94799995Q14.0710001,7.94799995,14.7010002,8.6059999Q15.0090003,8.9279995,15.184000000000001,9.368999500000001Q15.3590002,9.8099995,15.3590002,10.3279996L15.3590002,10.888L13.9310002,10.888L13.9310002,10.411999699999999Q13.9310002,9.9919996,13.693000099999999,9.684000000000001Q13.4550002,9.375999499999999,13.049,9.375999499999999Q12.5170002,9.375999499999999,12.342,9.7049999Q12.1670001,10.0339999,12.1670001,10.5379996L12.1670001,15.6339998Q12.1670001,16.067999800000003,12.3560002,16.3619995Q12.5450001,16.6560001,13.0350001,16.6560001Q13.1750002,16.6560001,13.3360002,16.6070004Q13.4970002,16.557999600000002,13.6370001,16.4460001Q13.7630002,16.3339996,13.847000099999999,16.1379995Q13.9310002,15.9419994,13.9310002,15.6479998L13.9310002,15.158L15.3590002,15.158Z" fill="#FFFFFF" fill-opacity="1"/></g></g></svg>