<svg xmlns="http://www.w3.org/2000/svg" xmlns:xlink="http://www.w3.org/1999/xlink" fill="none" version="1.1" width="36" height="36" viewBox="0 0 36 36"><g><g><ellipse cx="18" cy="18" rx="16" ry="16" fill="#922ED1" fill-opacity="1"/><path d="M36,18Q36,18.441875,35.978317,18.883217Q35.956638,19.324562,35.91333,19.764309Q35.870018,20.204056,35.805176,20.641148Q35.740341,21.078239,35.654137,21.511623Q35.567928,21.945007,35.460564,22.373642Q35.353195,22.802277,35.22493,23.225124Q35.096657,23.647972,34.947792,24.064016Q34.798927,24.480061,34.629829,24.8883Q34.460732,25.296539,34.271805,25.695992Q34.082878,26.095442,33.874582000000004,26.485142Q33.666283,26.87484,33.439114000000004,27.253849Q33.211945,27.632858,32.966452000000004,28.000263Q32.720959,28.367668,32.457733000000005,28.722586Q32.19451,29.077503,31.914188,29.419079Q31.633865,29.760653,31.337118,30.08806Q31.040373,30.415466,30.727921,30.727921Q30.415466,31.040373,30.08806,31.337118Q29.760653,31.633865,29.419079,31.914188Q29.077503,32.19451,28.722586,32.457733000000005Q28.367668,32.720959,28.000263,32.966452000000004Q27.632858,33.211945,27.253849,33.439114000000004Q26.87484,33.666283,26.485142,33.874582000000004Q26.095442,34.082878,25.69599,34.271805Q25.296539,34.460732,24.8883,34.629829Q24.480061,34.798927,24.064016,34.947792Q23.647972,35.096657,23.225124,35.224926Q22.802277,35.353195,22.373642,35.460564Q21.945007,35.567928,21.511623,35.654137Q21.078239,35.740341,20.641148,35.80518Q20.204056,35.870018,19.764309,35.91333Q19.324562,35.956638,18.883219,35.978321Q18.441875,36,18,36Q17.558125,36,17.116781,35.978317Q16.675439,35.956638,16.235692,35.91333Q15.795944,35.870018,15.358851,35.805176Q14.921759,35.740341,14.488375,35.654137Q14.05499,35.567928,13.626357,35.460564Q13.197724,35.353195,12.774877,35.22493Q12.352028,35.096657,11.9359827,34.947792Q11.5199375,34.798927,11.1116982,34.629829Q10.7034588,34.460732,10.3040075,34.271805Q9.9045577,34.082878,9.5148587,33.874582000000004Q9.1251593,33.666283,8.74615,33.439114000000004Q8.3671408,33.211945,7.9997349,32.966452000000004Q7.632329,32.720959,7.2774119,32.457733000000005Q6.9224939,32.19451,6.5809202,31.914188Q6.239346,31.633865,5.9119382,31.337118Q5.5845304,31.040373,5.2720778,30.727921Q4.9596248,30.415466,4.6628796999999995,30.08806Q4.3661346000000005,29.760653,4.0858118999999995,29.419079Q3.8054891,29.077503,3.5422643000000003,28.722586Q3.2790396,28.367668,3.0335469,28.000263Q2.78805423,27.632858,2.56088501,27.253849Q2.33371574,26.87484,2.12541722,26.485142Q1.917118691,26.095442,1.72819272,25.69599Q1.53926674,25.296539,1.37016845,24.8883Q1.20107013,24.480061,1.05220687,24.064016Q0.9033437,23.647972,0.775074,23.225124Q0.6468045,22.802277,0.5394375,22.373642Q0.4320706999999999,21.945007,0.3458650999999999,21.511623Q0.25965949999999993,21.078239,0.19482299999999997,20.641148Q0.1299863000000001,20.204056,0.0866749,19.764309Q0.04336359999999995,19.324562,0.021681800000000084,18.883219Q0,18.441875,0,18Q0,17.558125,0.021681800000000084,17.116781Q0.04336359999999995,16.675439,0.08667479999999994,16.235692Q0.1299863000000001,15.795944,0.1948228999999999,15.358851Q0.25965949999999993,14.921759,0.3458650999999999,14.488375Q0.4320706999999999,14.05499,0.5394375,13.626357Q0.6468045,13.197724,0.775074,12.774877Q0.9033437,12.352028,1.05220693,11.9359827Q1.20107019,11.5199375,1.37016851,11.1116982Q1.53926679,10.7034588,1.72819275,10.3040075Q1.917118743,9.9045577,2.12541726,9.5148587Q2.33371574,9.1251593,2.56088495,8.74615Q2.78805423,8.3671408,3.0335469,7.9997349Q3.2790396,7.632329,3.5422645,7.2774119Q3.8054891,6.9224939,4.0858118999999995,6.5809202Q4.3661346000000005,6.239346,4.6628796999999995,5.9119382Q4.9596248,5.5845304,5.2720778,5.2720778Q5.5845304,4.9596248,5.9119382,4.6628796999999995Q6.239346,4.3661346000000005,6.5809202,4.0858118999999995Q6.9224939,3.8054891,7.2774115,3.5422643000000003Q7.632329,3.2790396,7.9997349,3.0335469Q8.3671408,2.78805423,8.74615,2.56088501Q9.125158800000001,2.33371574,9.5148578,2.12541722Q9.9045568,1.917118691,10.3040066,1.72819272Q10.7034569,1.53926674,11.1116972,1.37016845Q11.5199366,1.20107013,11.9359818,1.05220687Q12.352027,0.9033437,12.774876,0.775074Q13.197723,0.6468045,13.626356,0.5394375Q14.054989,0.4320706999999999,14.488374,0.3458650999999999Q14.921759,0.25965949999999993,15.35885,0.19482299999999997Q15.795944,0.1299863000000001,16.235692,0.0866749Q16.675439,0.04336359999999995,17.116781,0.021681800000000084Q17.558125,0,18,0Q18.441875,0,18.883217,0.021681800000000084Q19.324562,0.04336359999999995,19.764309,0.08667479999999994Q20.204056,0.1299863000000001,20.641148,0.1948228999999999Q21.078239,0.25965949999999993,21.511623,0.3458650999999999Q21.945007,0.4320706999999999,22.373642,0.5394375Q22.802277,0.6468045,23.225124,0.775074Q23.647972,0.9033437,24.064016,1.05220693Q24.480061,1.20107019,24.8883,1.37016851Q25.296539,1.53926679,25.695992,1.72819275Q26.095442,1.917118743,26.485142,2.12541726Q26.87484,2.33371574,27.253849,2.56088495Q27.632858,2.78805423,28.000263,3.0335469Q28.367668,3.2790396,28.722586,3.5422645Q29.077503,3.8054891,29.419079,4.0858118999999995Q29.760653,4.3661346000000005,30.08806,4.6628796999999995Q30.415466,4.9596248,30.727921,5.2720778Q31.040373,5.5845304,31.337118,5.9119382Q31.633865,6.239346,31.914188,6.5809202Q32.19451,6.9224939,32.457733000000005,7.2774115Q32.720959,7.632329,32.966452000000004,7.9997349Q33.211945,8.3671408,33.439114000000004,8.74615Q33.666283,9.125158800000001,33.874582000000004,9.5148578Q34.082878,9.9045568,34.271805,10.3040066Q34.460732,10.7034569,34.629829,11.1116972Q34.798927,11.5199366,34.947792,11.9359818Q35.096657,12.352027,35.224926,12.774876Q35.353195,13.197723,35.460564,13.626356Q35.567928,14.054989,35.654137,14.488374Q35.740341,14.921759,35.80518,15.35885Q35.870018,15.795944,35.91333,16.235692Q35.956638,16.675439,35.978321,17.116781Q36,17.558125,36,18ZM34,18Q34,17.607222,33.980726000000004,17.214917Q33.961454,16.822613,33.922956,16.431725999999998Q33.884457,16.040838,33.826824,15.652311Q33.769189999999995,15.263784,33.692561999999995,14.878554Q33.615933999999996,14.493323,33.520496,14.112316Q33.42506,13.73131,33.311043,13.355445Q33.197025,12.979579,33.064701,12.609761Q32.932377,12.239943,32.782067999999995,11.8770638Q32.63176,11.514184,32.463825,11.1591167Q32.295891,10.8040504,32.110737,10.4576511Q31.925583,10.1112518,31.723654,9.774355400000001Q31.521725,9.4374585,31.303509,9.1108756Q31.085293,8.7842927,30.851316,8.468810999999999Q30.61734,8.1533289,30.368164,7.8497076Q30.118988,7.5460863,29.855215,7.2550569Q29.591442,6.9640274,29.313705,6.6862912Q29.035969,6.408555,28.744942,6.1447821Q28.453911,5.8810084,28.150291,5.6318328Q27.846668,5.382657099999999,27.531185,5.1486792999999995Q27.215702,4.9147017,26.889118,4.696486Q26.562534,4.4782701,26.225639,4.2763419Q25.888744,4.0744138,25.542347,3.8892597Q25.195946,3.7041054,24.840878,3.5361711Q24.485809,3.3682369000000003,24.122932,3.2179273Q23.760052,3.0676178,23.390236,2.93529487Q23.020416,2.80297196,22.644554,2.68895459Q22.268688,2.57493716,21.88768,2.47949991Q21.506674,2.38406265,21.121443,2.30743548Q20.736212,2.2308083,20.347687,2.17317583Q19.95916,2.11554334,19.568275,2.077044368Q19.177387,2.038545396,18.785082,2.019272698Q18.392776,2,18,2Q17.607222,2,17.214917,2.019272698Q16.822613,2.038545396,16.431725999999998,2.077044368Q16.040838,2.11554334,15.652311,2.17317581Q15.263784,2.2308083,14.878554,2.30743548Q14.493323,2.38406265,14.112316,2.47949988Q13.73131,2.57493716,13.355445,2.68895459Q12.979579,2.80297196,12.609761,2.93529487Q12.239943,3.0676178,11.8770638,3.2179273Q11.514184,3.3682369000000003,11.1591167,3.5361711Q10.8040504,3.7041053,10.4576511,3.8892596Q10.1112518,4.0744138,9.774355400000001,4.2763419Q9.4374585,4.4782701,9.1108756,4.696486Q8.7842927,4.9147017,8.468810999999999,5.1486792999999995Q8.1533289,5.3826567999999995,7.8497076,5.6318326Q7.5460863,5.8810081,7.2550569,6.1447816Q6.9640274,6.408555,6.6862912,6.6862912Q6.408555,6.9640274,6.1447821,7.2550569Q5.8810084,7.5460863,5.6318328,7.8497076Q5.382657099999999,8.1533289,5.1486792999999995,8.468810999999999Q4.9147017,8.7842932,4.696486,9.110876099999999Q4.4782701,9.437459,4.2763419,9.774355400000001Q4.0744138,10.1112518,3.8892597,10.4576511Q3.7041054,10.8040504,3.5361711,11.1591167Q3.3682369000000003,11.514184,3.2179273,11.8770638Q3.0676178,12.239943,2.93529487,12.60976Q2.80297196,12.979579,2.68895459,13.355445Q2.57493716,13.73131,2.47949991,14.112316Q2.38406265,14.493323,2.30743548,14.878554Q2.2308083,15.263784,2.17317583,15.652311Q2.11554334,16.040838,2.077044368,16.431725999999998Q2.038545396,16.822613,2.019272698,17.214918Q2,17.607222,2,18Q2,18.392776,2.019272698,18.785082Q2.038545396,19.177387,2.077044368,19.568274Q2.11554334,19.95916,2.17317581,20.347685Q2.2308083,20.736212,2.30743548,21.121443Q2.38406265,21.506674,2.47949988,21.88768Q2.57493716,22.268688,2.68895459,22.644554Q2.80297196,23.020416,2.93529487,23.390234Q3.0676178,23.760052,3.2179273,24.122932Q3.3682369000000003,24.485809,3.5361711,24.840878Q3.7041053,25.195946,3.8892596,25.542345Q4.0744138,25.888744,4.2763419,26.225639Q4.4782701,26.562534,4.696486,26.889118Q4.9147017,27.215702,5.1486792999999995,27.531185Q5.3826567999999995,27.846668,5.6318326,28.150291Q5.8810081,28.453911,6.1447816,28.74494Q6.408555,29.035969,6.6862912,29.313705Q6.9640274,29.591442,7.2550569,29.855215Q7.5460863,30.118988,7.8497076,30.368164Q8.1533289,30.61734,8.468810999999999,30.851316Q8.7842932,31.085293,9.110876099999999,31.303509Q9.437459,31.521725,9.774355400000001,31.723654Q10.1112518,31.925583,10.4576511,32.110738999999995Q10.8040504,32.295891,11.1591167,32.463826999999995Q11.514184,32.63176,11.8770638,32.782070000000004Q12.239943,32.932381,12.60976,33.064703Q12.979579,33.197025,13.355445,33.311045Q13.73131,33.42506,14.112316,33.520498Q14.493323,33.615936000000005,14.878554,33.692561999999995Q15.263784,33.769189999999995,15.652311,33.826822Q16.040838,33.884457,16.431725999999998,33.922956Q16.822613,33.961454,17.214918,33.980728Q17.607222,34,18,34Q18.392776,34,18.785082,33.980726000000004Q19.177387,33.961454,19.568274,33.922956Q19.95916,33.884457,20.347685,33.826824Q20.736212,33.769189999999995,21.121443,33.692561999999995Q21.506674,33.615933999999996,21.88768,33.520496Q22.268688,33.42506,22.644554,33.311043Q23.020416,33.197025,23.390234,33.064701Q23.760052,32.932377,24.122932,32.782067999999995Q24.485809,32.63176,24.840878,32.463825Q25.195946,32.295891,25.542345,32.110737Q25.888744,31.925583,26.225639,31.723654Q26.562534,31.521725,26.889118,31.303509Q27.215702,31.085293,27.531185,30.851316Q27.846668,30.61734,28.150291,30.368164Q28.453911,30.118988,28.74494,29.855215Q29.035969,29.591442,29.313705,29.313705Q29.591442,29.035969,29.855215,28.744942Q30.118988,28.453911,30.368164,28.150291Q30.61734,27.846668,30.851316,27.531185Q31.085293,27.215702,31.303509,26.889118Q31.521725,26.562534,31.723654,26.225639Q31.925583,25.888744,32.110738999999995,25.542347Q32.295891,25.195946,32.463826999999995,24.840878Q32.63176,24.485809,32.782070000000004,24.122932Q32.932381,23.760052,33.064703,23.390236Q33.197025,23.020416,33.311045,22.644554Q33.42506,22.268688,33.520498,21.88768Q33.615936000000005,21.506674,33.692561999999995,21.121443Q33.769189999999995,20.736212,33.826822,20.347687Q33.884457,19.95916,33.922956,19.568275Q33.961454,19.177387,33.980728,18.785082Q34,18.392776,34,18Z" fill="#FFFFFF" fill-opacity="1"/></g><g><path d="M14.306602518750001,11C13.846566218749999,11,13.47363281875,11.37293324,13.47363281875,11.83296967C13.47363281875,12.2930061,13.846566218749999,12.6659393,14.306602518750001,12.6659393L22.711641718750002,12.6659393C23.17167771875,12.6659393,23.54461071875,12.2930061,23.54461071875,11.83296967C23.54461071875,11.37293324,23.17167771875,11,22.711641718750002,11L14.306602518750001,11ZM11.00657561875,13.6488638L10.41577711875,12.6655273L8.99951171875,12.6655273L9.94480049875,16.0941925L13.715949018749999,16.0976567L15.99931101875,20.0447426C16.34048981875,20.6344376,16.95445201875,20.995223,17.61694431875,20.995223L23.594884718750002,20.995223C24.27602971875,20.9959269,24.904688718750002,20.6154385,25.23980371875,19.999655699999998C25.57491671875,19.383872,25.56448171875,18.6283541,25.21249971875,18.0228038L24.947865718750002,17.5648727L23.23204571875,14.5993247C22.89086271875,14.0096369,22.27690171875,13.648896,21.61441371875,13.6488638L11.00657561875,13.6488638ZM19.07312571875,14.633904L21.750875718750002,14.633904C22.082103718749998,14.6571283,22.381559718749998,14.8467925,22.55304771875,15.1419716L23.62147571875,16.9911098L23.51497871875,16.9980183L19.07312571875,16.9980183L19.07312571875,14.633904ZM27.42055271875,21.724092C27.74672471875,21.399675000000002,27.74814571875,20.8722706,27.42373071875,20.5460997C27.09931571875,20.2199278,26.57191071875,20.2185059,26.24573871875,20.542922L25.12994371875,21.652712L13.61959071875,21.652712C13.15955451875,21.652712,12.78662111875,22.025644,12.78662111875,22.485682C12.78662111875,22.945718,13.15955451875,23.318651,13.61959071875,23.318651L25.47365571875,23.318651C25.69379571875,23.318651,25.90498371875,23.231507,26.06106571875,23.076266L27.42055271875,21.724092Z" fill-rule="evenodd" fill="#FFFFFF" fill-opacity="1"/></g></g></svg>