<svg xmlns="http://www.w3.org/2000/svg" xmlns:xlink="http://www.w3.org/1999/xlink" fill="none" version="1.1" width="40" height="40" viewBox="0 0 40 40"><g><g><rect x="5" y="2" width="30" height="30.000001907348633" rx="15" fill="#FFFFFF" fill-opacity="1"/><rect x="5" y="2" width="30" height="30.000001907348633" rx="15" fill-opacity="0" stroke-opacity="1" stroke="#FFFFFF" fill="none" stroke-width="2"/><g><path d="M19.896000100000002,13.652000453674315L17.5439999,15.012000553674316L17.5439999,12.852000253674316L19.896000100000002,11.460000053674317L21.9920001,11.460000053674317L21.9920001,22.500000953674316L19.896000100000002,22.500000953674316L19.896000100000002,13.652000453674315Z" fill="#007AFF" fill-opacity="1"/></g></g><g><g><path d="M16.25,29.875001907348633C16.25,29.875001907348633,23.75,29.875001907348633,23.75,29.875001907348633C23.75,29.875001907348633,21.665695200000002,35.25420190734863,20.9153457,37.19071390734863C20.752739,37.610370607348635,20.3555517,37.875000907348635,19.905493,37.875000907348635C19.9017134,37.87500190734863,19.897933000000002,37.87500190734863,19.8941529,37.87500190734863C19.434835,37.87500190734863,19.0373659,37.59595770734863,18.8813987,37.163930907348636C18.1742402,35.20511440734863,16.25,29.875001907348633,16.25,29.875001907348633Z" fill="#007AFF" fill-opacity="1"/><path d="M14.825817,28.875001907348633L16.75346881,34.21456430734863L17.940815399999998,37.503495207348635Q18.1651036,38.12476820734863,18.6994052,38.499899907348635Q19.2336631,38.87500190734863,19.8941529,38.87500190734863L19.8970952,38.87500190734863L19.905493,38.875000907348635Q20.5499301,38.875000907348635,21.0773487,38.519306207348635Q21.6129565,38.15808870734863,21.847794999999998,37.552014807348634L23.132548800000002,34.23630430734863L25.209919,28.87500180734863L16.25,28.875001907348633L14.825817,28.875001907348633ZM18.8813987,37.163930907348636L16.61101308,30.875001907348633L16.25,29.875001907348633L23.75,29.875001907348633L23.362524999999998,30.875001907348633L20.9153457,37.19071390734863C20.752739,37.610370607348635,20.3555517,37.875000907348635,19.905493,37.875000907348635L19.8941529,37.87500190734863C19.434835,37.87500190734863,19.0373659,37.59595770734863,18.8813987,37.163930907348636Z" fill-rule="evenodd" fill="#FFFFFF" fill-opacity="1"/></g></g><g><rect x="5" y="2" width="30" height="30.000001907348633" rx="15" fill="#FFFFFF" fill-opacity="1"/><rect x="6.25" y="3.25" width="27.5" height="27.500001907348633" rx="13.75" fill-opacity="0" stroke-opacity="1" stroke="#007AFF" fill="none" stroke-width="2.5"/></g></g></svg>