<svg xmlns="http://www.w3.org/2000/svg" xmlns:xlink="http://www.w3.org/1999/xlink" fill="none" version="1.1" width="160" height="160" viewBox="0 0 160 160"><defs><clipPath id="master_svg0_179_8081"><rect x="0" y="0" width="160" height="160" rx="0"/></clipPath></defs><g clip-path="url(#master_svg0_179_8081)"><g></g><g transform="matrix(0.7071067690849304,0.7071067690849304,-0.7071067690849304,0.7071067690849304,102.62614883353626,-23.765024794839974)"><path d="M80,111.99820709228516C80,111.99820709228516,113.94239400000001,111.99820709228516,113.94239400000001,111.99820709228516C113.94239400000001,111.99820709228516,113.94239400000001,132.98102409228517,113.94239400000001,141.95117809228515C113.94239,144.16031609228514,112.162109,145.94059709228515,109.952969,145.94059709228515C100.982817,145.94060109228516,80,145.94060109228516,80,145.94060109228516C80,145.94060109228516,80,111.99820709228516,80,111.99820709228516Z" fill="#286F1C" fill-opacity="1"/></g><g><path d="M33.973663,0C59.694344,0,100.305656,0,126.02634,0C139.28116,0,150,10.718824,150,23.973661C150,49.694344,150,90.305656,150,116.02634C150,129.28116,139.28116,140,126.02633,140C100.305656,140,59.694344,140,33.973663,140C20.718823999999998,140,10,129.28116,10,116.02633C10,90.305656,10,49.694344,10,23.973663C10,10.718824,20.718823999999998,0,33.973661,0" fill="#286F1C" fill-opacity="1"/></g><g><g><path d="M30.7593070939,49.73361796240235C30.91555713,37.800801962402346,35.07337,27.763302762402343,43.538995,19.357052682402344C43.997588,18.901583912402344,44.234306000000004,18.911740172402343,44.682747,19.357052682402344C45.78479,20.430627862402343,46.921864,21.467647762402343,48.092123,22.466427762402343C48.652275,22.946115262402344,48.595245,23.207053162402346,48.092123,23.714865662402346C43.410089,28.416427562402344,39.9202452,33.79299196240234,38.3858709,40.11095996240235C35.2725897,52.953925962402344,38.3335257,64.35158496240234,47.737434,74.16564896240234C48.721809,75.19533196240235,48.724152000000004,75.18127396240234,47.679623,76.12267696240235C46.634676,77.06192396240235,45.603318,78.01619296240234,44.585873,78.98517596240234C44.241341,79.31174096240235,44.05306,79.34924296240234,43.676497,78.98517596240234C36.3593073,71.73517996240234,32.0272759,63.21173896240234,30.98821335,53.22111096240234C30.846025802,51.93204896240234,30.713213332,50.646110962402346,30.7593070939,49.73361796240235Z" fill="#FFFFFF" fill-opacity="1" style="mix-blend-mode:passthrough"/></g><g><path d="M43.494140625,49.186317718750004C43.667578205,41.10663071875,46.459764925,34.19803521875,52.126951225,28.36131566875C53.094921125,27.36522216875,53.096484225,27.36522216875,54.087888625,28.31912827875C55.080077625,29.27303421875,55.977734625,30.19959731875,56.991797625000004,31.06756541875C57.569922625000004,31.56131621875,57.461329625,31.86443991875,56.991797625000004,32.33631561875C53.337889625,36.06287761875,50.970702125,40.39959571875,50.239453825,45.451942718750004C49.135547125,53.08788071875,51.249609425,59.84257171875,56.719140625,65.59647371874999C57.457421625,66.37069671875,57.457421625,66.79178271875,56.645701625,67.45584871874999C55.625315625,68.31276271875001,54.655705624999996,69.22837471874999,53.741797625000004,70.19803571874999C53.215235725,70.74647871875,52.895702325,70.64647671875,52.405860925,70.16054171875C46.432422925,64.21991371875,43.610548485,57.104289718749996,43.494140625,49.186317718750004Z" fill="#FFFFFF" fill-opacity="1" style="mix-blend-mode:passthrough"/></g><g><path d="M56.2767277956,48.511359421875C56.3845406775,44.219953521875,58.0564152875,40.081671021875,61.4446982875,36.562140521875C61.9525117875,36.036359011875,62.2478227875,36.030890281875,62.7595405875,36.544171211875C63.8165726875,37.609796521875,64.9298534875,38.623859121875,66.0439157875,39.634795921874996C66.4564131875,40.009795621875,66.5978201875,40.244171621875,66.1329764875,40.751984121875C61.5142268875,45.787141821875,61.5189113875,52.366827421875,66.1329764875,57.497295421874995C66.5173511875,57.925420421875,66.5446951875,58.140266421875,66.1017255875,58.526203421874996C65.0931310875,59.401203421874996,64.1650061875,60.356672421875004,63.1634425875,61.234798421875C61.9204740875,62.324640421875,62.2626614875,62.598857421874996,60.9267248875,61.115264421875C57.7712547875,57.614484421875005,56.2493811845,53.537139421875,56.2767277956,48.511359421875Z" fill="#FFFFFF" fill-opacity="1" style="mix-blend-mode:passthrough"/></g></g><g transform="matrix(-1,0,0,1,258.85546875,0)"><g><path d="M129.4370414689,49.73362559179688C129.593291505,37.80080959179688,133.751104375,27.763310391796875,142.216729375,19.357060311796875C142.675322375,18.901591541796876,142.912040375,18.911747801796874,143.360481375,19.357060311796875C144.462524375,20.430635491796874,145.599598375,21.467655391796875,146.76985737500002,22.466435391796875C147.330009375,22.946122891796875,147.272979375,23.207060791796877,146.76985737500002,23.714873291796877C142.087823375,28.416435191796875,138.597979575,33.79299959179687,137.063605275,40.11096759179688C133.950324075,52.953933591796876,137.011260075,64.35159259179687,146.415168375,74.16565659179687C147.399543375,75.19533959179688,147.401886375,75.18128159179687,146.357357375,76.12268459179688C145.312410375,77.06193159179688,144.281052375,78.01620059179687,143.263607375,78.98518359179687C142.919075375,79.31174859179688,142.730794375,79.34925059179687,142.354231375,78.98518359179687C135.037041675,71.73518759179687,130.705010275,63.211746591796874,129.665947725,53.22111859179687C129.523760177,51.93205659179687,129.390947707,50.64611859179688,129.4370414689,49.73362559179688Z" fill="#FFFFFF" fill-opacity="1" style="mix-blend-mode:passthrough"/></g><g><path d="M142.171875,49.186325348144535C142.34531258,41.10663834814453,145.1374993,34.19804284814453,150.8046856,28.36132329814453C151.7726555,27.365229798144533,151.7742186,27.365229798144533,152.765623,28.31913590814453C153.757812,29.27304184814453,154.655469,30.199604948144533,155.669532,31.06757304814453C156.247657,31.561323848144532,156.139064,31.864447548144533,155.669532,32.33632324814453C152.015624,36.06288524814453,149.6484365,40.39960334814453,148.9171882,45.451950348144535C147.8132815,53.08788834814453,149.9273438,59.84257934814453,155.396875,65.59648134814452C156.135156,66.37070434814453,156.135156,66.79179034814453,155.323436,67.45585634814452C154.30305,68.31277034814454,153.33344,69.22838234814452,152.419532,70.19804334814452C151.8929701,70.74648634814453,151.5734367,70.64648434814453,151.0835953,70.16054934814453C145.1101573,64.21992134814454,142.28828286,57.10429734814453,142.171875,49.186325348144535Z" fill="#FFFFFF" fill-opacity="1" style="mix-blend-mode:passthrough"/></g><g><path d="M154.9544621706,48.51136705126953C155.0622750525,44.21996115126953,156.7341496625,40.081678651269534,160.1224326625,36.56214815126953C160.6302461625,36.03636664126953,160.9255571625,36.030897911269534,161.4372749625,36.544178841269535C162.4943070625,37.60980415126953,163.6075878625,38.62386675126953,164.7216501625,39.63480355126953C165.1341475625,40.00980325126953,165.2755545625,40.24417925126953,164.8107108625,40.75199175126953C160.1919612625,45.78714945126953,160.1966457625,52.36683505126953,164.8107108625,57.497303051269526C165.1950855625,57.925428051269535,165.2224295625,58.14027405126953,164.7794599625,58.52621105126953C163.7708654625,59.40121105126953,162.8427405625,60.356680051269535,161.8411769625,61.23480605126953C160.5982084625,62.324648051269534,160.9403958625,62.59886505126953,159.6044592625,61.11527205126953C156.4489891625,57.614492051269536,154.9271155595,53.53714705126953,154.9544621706,48.51136705126953Z" fill="#FFFFFF" fill-opacity="1" style="mix-blend-mode:passthrough"/></g></g><g><path d="M82.575352,54.424154Q82.872791,54.308716000000004,83.160744,54.171307Q83.448696,54.033896999999996,83.725536,53.875288Q84.002375,53.716678,84.266544,53.53776Q84.530716,53.358843,84.780731,53.160624999999996Q85.030743,52.962407,85.26519400000001,52.746003Q85.49964299999999,52.5296,85.71721099999999,52.29623Q85.934776,52.06286,86.13423900000001,51.813836Q86.333698,51.564812,86.513931,51.301536999999996Q86.69416,51.03826,86.854149,50.762214Q87.014135,50.486168,87.152979,50.198904999999996Q87.291821,49.911642,87.408739,49.614779Q87.525656,49.317917,87.619989,49.013124Q87.714321,48.708330000000004,87.785538,48.397324Q87.856754,48.086317,87.90445700000001,47.770846399999996Q87.95215999999999,47.4553757,87.97608,47.1372166Q87.999998,46.8190575,88,46.5Q88,46.2913361,87.989761,46.0829248Q87.979523,45.8745127,87.95907199999999,45.6668544Q87.938618,45.4591956,87.907999,45.2527905Q87.87738,45.0463858,87.836674,44.841732Q87.795963,44.6370783,87.745262,44.4346685Q87.694563,44.2322588,87.633993,44.0325804Q87.57342,43.832902,87.503122,43.636436Q87.43282500000001,43.43997,87.352972,43.2471905Q87.273121,43.0544109,87.183905,42.8657813Q87.094688,42.677151699999996,86.996326,42.4931273Q86.897963,42.309103,86.790688,42.130126Q86.683414,41.9511499,86.567488,41.7776527Q86.451561,41.6041555,86.327259,41.4365559Q86.202961,41.2689562,86.070587,41.1076572Q85.938211,40.9463582,85.798082,40.791749Q85.65795299999999,40.6371396,85.510406,40.4895923Q85.362858,40.3420448,85.208248,40.2019153Q85.05364,40.0617857,84.89234400000001,39.9294112Q84.731043,39.7970365,84.563442,39.6727359Q84.395844,39.5484353,84.222345,39.4325082Q84.048847,39.3165811,83.869869,39.2093067Q83.690895,39.1020324,83.50686999999999,39.0036693Q83.322845,38.90530604,83.134216,38.81609094Q82.945585,38.7268759,82.75280599999999,38.64702392Q82.560026,38.56717193,82.36356,38.49687541Q82.167095,38.42657888,81.967419,38.36600712Q81.76773800000001,38.30543536,81.565331,38.25473434Q81.362919,38.20403329,81.158266,38.1633251Q80.953613,38.12261692,80.74721,38.09199965Q80.540806,38.061382398,80.333147,38.04092982Q80.125488,38.020477243,79.91707600000001,38.010238621Q79.708664,38,79.5,38Q79.291338,38,79.082926,38.010238621Q78.874514,38.020477243,78.666855,38.04092982Q78.459194,38.061382398,78.252789,38.091999657Q78.046385,38.12261692,77.84173,38.1633251Q77.637077,38.20403329,77.434668,38.25473434Q77.232258,38.30543539,77.032579,38.36600715Q76.83290099999999,38.42657888,76.636435,38.49687541Q76.439968,38.56717193,76.24718899999999,38.64702392Q76.05440899999999,38.7268759,75.86578,38.81609094Q75.677151,38.90530604,75.493128,39.0036693Q75.309103,39.1020324,75.130127,39.2093068Q74.951149,39.3165811,74.777653,39.4325082Q74.604156,39.5484353,74.436556,39.6727359Q74.268955,39.7970365,74.10765599999999,39.9294112Q73.946358,40.0617857,73.791748,40.2019153Q73.637138,40.3420448,73.48958999999999,40.4895923Q73.342043,40.6371396,73.201914,40.791749Q73.06178299999999,40.9463582,72.92941,41.1076572Q72.797035,41.2689562,72.672734,41.4365559Q72.548433,41.6041555,72.432507,41.7776527Q72.31658,41.9511499,72.209305,42.1301265Q72.102031,42.309103,72.003668,42.4931273Q71.905304,42.677151699999996,71.81609,42.8657813Q71.726874,43.0544109,71.64702199999999,43.2471905Q71.56717,43.43997,71.496874,43.636436Q71.426578,43.832902,71.366006,44.0325799Q71.305434,44.2322583,71.254732,44.4346685Q71.204031,44.6370783,71.163323,44.841732Q71.122616,45.0463858,71.091999,45.2527905Q71.061382,45.4591961,71.04093,45.6668549Q71.020477,45.8745127,71.010239,46.0829248Q71,46.2913361,71,46.5Q71,46.819068,71.02392,47.1372375Q71.04784000000001,47.4554081,71.095546,47.7708893Q71.14325099999999,48.08637,71.214476,48.397388Q71.285699,48.708405,71.380038,49.013207Q71.474378,49.318009,71.591301,49.614882Q71.708226,49.911753,71.847077,50.199024Q71.985929,50.486295,72.145927,50.762347Q72.305925,51.038401,72.486167,51.301682Q72.666409,51.564962,72.865883,51.813989Q73.065355,52.063017,73.282936,52.296389Q73.500519,52.529759999999996,73.734982,52.746164Q73.969448,52.962569,74.219477,53.160788Q74.469505,53.359003,74.733688,53.537918Q74.997871,53.716833,75.274727,53.875439Q75.551582,54.034042,75.83954800000001,54.171448Q76.127514,54.308848999999995,76.424973,54.424279999999996L62.8727765,115L57,115L57,123L102,123L102,115L96.12757500000001,115L83.403679,58.126619000000005L82.575352,54.424154ZM71.070559,114.999924L79.500175,77.321144L87.929794,114.999924L71.070559,114.999924Z" fill-rule="evenodd" fill="#FFFFFF" fill-opacity="1"/></g></g></svg>