<svg xmlns="http://www.w3.org/2000/svg" xmlns:xlink="http://www.w3.org/1999/xlink" fill="none" version="1.1" width="160" height="160" viewBox="0 0 160 160"><defs><clipPath id="master_svg0_179_8165"><rect x="0" y="0" width="160" height="160" rx="0"/></clipPath></defs><g clip-path="url(#master_svg0_179_8165)"><g></g><g><path d="M33.973663,0C59.694344,0,100.305656,0,126.02634,0C139.28116,0,150,10.718824,150,23.973661C150,49.694344,150,90.305656,150,116.02634C150,129.28116,139.28116,140,126.02633,140C100.305656,140,59.694344,140,33.973663,140C20.718823999999998,140,10,129.28116,10,116.02633C10,90.305656,10,49.694344,10,23.973663C10,10.718824,20.718823999999998,0,33.973661,0" fill="#286F1C" fill-opacity="1"/></g><g transform="matrix(0.7071067690849304,0.7071067690849304,-0.7071067690849304,0.7071067690849304,102.62614343873975,-23.765027029437988)"><path d="M80,111.99819946289062C80,111.99819946289062,113.94239400000001,111.99819946289062,113.94239400000001,111.99819946289062C113.94239400000001,111.99819946289062,113.94239400000001,132.98101646289064,113.94239400000001,141.95117046289062C113.94239,144.1603084628906,112.162109,145.9405894628906,109.952969,145.9405894628906C100.982817,145.94059346289063,80,145.94059346289063,80,145.94059346289063C80,145.94059346289063,80,111.99819946289062,80,111.99819946289062Z" fill="#286F1C" fill-opacity="1"/></g><g><g><path d="M80,123.50341796875C50.5,123.50341796875,26,99.00341796875,26,69.50341796875C26,40.00341796875,50.5,15.50341796875,80,15.50341796875C109.5,15.50341796875,134,40.00341796875,134,69.50341796875C134,99.00341796875,109.5,123.50341796875,80,123.50341796875ZM80,23.503418968749997C54.5,23.503418968749997,34.000001,44.003421968750004,34.000001,69.50341796875C34.000001,95.00340996875,54.500004000000004,115.50341796875,80,115.50341796875C105.499992,115.50341796875,126,95.00340996875,126,69.50341796875C126,44.003421968750004,105.499992,23.503418968749997,80,23.503418968749997Z" fill="#FFFFFF" fill-opacity="1" style="mix-blend-mode:passthrough"/></g><g><path d="M80.005859375,98.502685546875C64.005861375,98.502685546875,51.005859375,85.502685546875,51.005859375,69.502685546875C51.005859375,53.502687546875,64.005861375,40.502685546875,80.005859375,40.502685546875C96.005859375,40.502685546875,109.005859375,53.502687546875,109.005859375,69.502685546875C109.005859375,85.502685546875,96.005859375,98.502685546875,80.005859375,98.502685546875ZM80.005859375,48.502688446875C68.505861375,48.502688446875,59.005858875,58.002689546875004,59.005858875,69.502685546875C59.005858875,81.00268154687501,68.505857375,90.50268954687499,80.005859375,90.50268954687499C91.50585537500001,90.50268954687499,101.00586337499999,81.00269354687501,101.00586337499999,69.502685546875C101.00586337499999,58.002687546874995,91.50586737500001,48.502685046875,80.005859375,48.502688446875Z" fill="#FFFFFF" fill-opacity="1" style="mix-blend-mode:passthrough"/></g><g><path d="M79.99804287500001,123.50341796875C77.99803887499999,123.50341796875,75.99803887499999,122.00341796875,75.99803887499999,119.50340796875L75.99803887499999,19.50341776875C75.99803887499999,17.50341786875,77.49803887499999,15.50341796875,79.99804287500001,15.50341796875C82.498046875,15.50341796875,83.99803887499999,17.00341836875,83.99803887499999,19.50341776875L83.99803887499999,119.50340796875C83.99803887499999,121.50341796875,81.99803887499999,123.50339796875,79.99804287500001,123.50341796875ZM64.99804287500001,73.50341796875L29.998046875,73.50341796875C27.998047075,73.50341796875,26.498046875,72.00341796875,26.498046875,69.50341796875C26.498046875,67.00340996874999,27.998047075,66.00341396875001,30.498046375,66.00341396875001L65.49803887499999,66.00341396875001C67.49804287500001,66.00341396875001,68.99804287500001,67.50341396875001,68.99804287500001,70.00341796875C68.99804287500001,72.50340996874999,66.99803887499999,73.50341396875001,64.99804287500001,73.50341796875Z" fill="#FFFFFF" fill-opacity="1" style="mix-blend-mode:passthrough"/></g><g><path d="M130,73.501956025L29.9999998,73.501956025C27.9999999,73.501956025,26,72.001957925,26,69.501952925C26,67.001948125,27.5000004,65.501953125,29.9999998,65.501953125L129.99999,65.501953125C132,65.501953125,133.99998,67.001951725,133.99998,69.501952925C133.99998,72.001957925,132,73.501949325,130,73.501956025Z" fill="#FFFFFF" fill-opacity="1" style="mix-blend-mode:passthrough"/></g></g><g><ellipse cx="113.5" cy="32.00341796875" rx="12.5" ry="12.5" fill="#FFFFFF" fill-opacity="1"/><ellipse cx="113.5" cy="32.00341796875" rx="12.5" ry="12.5" fill-opacity="0" stroke-opacity="1" stroke="#286F1C" fill="none" stroke-width="8"/></g></g></svg>