<svg xmlns="http://www.w3.org/2000/svg" xmlns:xlink="http://www.w3.org/1999/xlink" fill="none" version="1.1" width="160" height="160" viewBox="0 0 160 160"><defs><clipPath id="master_svg0_179_8203"><rect x="0" y="0" width="160" height="160" rx="0"/></clipPath></defs><g clip-path="url(#master_svg0_179_8203)"><g></g><g transform="matrix(0.7071067690849304,0.7071067690849304,-0.7071067690849304,0.7071067690849304,102.62614883353626,-23.765024794839974)"><path d="M80,111.99820709228516C80,111.99820709228516,113.94239400000001,111.99820709228516,113.94239400000001,111.99820709228516C113.94239400000001,111.99820709228516,113.94239400000001,132.98102409228517,113.94239400000001,141.95117809228515C113.94239,144.16031609228514,112.162109,145.94059709228515,109.952969,145.94059709228515C100.982817,145.94060109228516,80,145.94060109228516,80,145.94060109228516C80,145.94060109228516,80,111.99820709228516,80,111.99820709228516Z" fill="#286F1C" fill-opacity="1"/></g><g><path d="M33.973663,0C59.694344,0,100.305656,0,126.02634,0C139.28116,0,150,10.718824,150,23.973661C150,49.694344,150,90.305656,150,116.02634C150,129.28116,139.28116,140,126.02633,140C100.305656,140,59.694344,140,33.973663,140C20.718823999999998,140,10,129.28116,10,116.02633C10,90.305656,10,49.694344,10,23.973663C10,10.718824,20.718823999999998,0,33.973661,0" fill="#286F1C" fill-opacity="1"/></g><g><rect x="37" y="109" width="77" height="6" rx="0" fill="#FFFFFF" fill-opacity="1"/></g><g><path d="M44,112L107,112L107,22.0000002C107,20.89543056,106.104568,20,105,20L46.0000002,20C44.89543056,20,44,20.89543056,44,21.9999999L44,112Z" fill="#FFFFFF" fill-opacity="1"/></g><g><rect x="55" y="32" width="40" height="24" rx="0" fill="#007100" fill-opacity="1"/></g><g><path d="M130.000002,97.07839565234374L130,49.99999985234375L124,50.00000015234375L124.000002,97.07839565234374Q124.000002,98.70277065234376,122.851395,99.85137165234374Q121.702785,100.99997665234375,120.078411,100.99996965234375Q116.15686,100.99995465234375,116.15686,97.07839965234375L116.15686,60.59722965234375Q116.15686,54.31905175234375,111.717517,49.87971015234375Q107.2781749,45.44036965234375,100.9999942779541,45.44036965234375L100.9999942779541,51.44036965234375Q104.7928946,51.44036985234375,107.4748774,54.12235165234375Q110.1568604,56.80433365234375,110.1568604,60.59722965234375L110.1568604,97.07839965234375Q110.1568604,101.18803765234375,113.062804,104.09399365234376Q115.96875,106.99995465234375,120.078388,106.99996965234375Q124.188051,106.99998465234376,127.094025,104.09402465234375Q130.000002,101.18806065234375,130.000002,97.07839565234374Z" fill-rule="evenodd" fill="#FFFFFF" fill-opacity="1"/></g><g><rect x="117" y="38" width="19" height="14" rx="1" fill="#FFFFFF" fill-opacity="1"/></g><g><rect x="121" y="42" width="11" height="6" rx="1" fill="#286F1C" fill-opacity="1"/></g><g><rect x="122" y="35" width="3" height="5" rx="1" fill="#FFFFFF" fill-opacity="1"/></g><g><rect x="128" y="35" width="3" height="5" rx="1" fill="#FFFFFF" fill-opacity="1"/></g><g><path d="M66,81.999996L73.9999981,81.999996L73.9999981,92.666664L84.66666599999999,76.666665L76.666665,76.666667L76.666665,66L66,81.999996Z" fill="#286F1C" fill-opacity="1" style="mix-blend-mode:passthrough"/></g></g></svg>