<svg xmlns="http://www.w3.org/2000/svg" xmlns:xlink="http://www.w3.org/1999/xlink" fill="none" version="1.1" width="160" height="160" viewBox="0 0 160 160"><defs><clipPath id="master_svg0_179_8413"><rect x="0" y="0" width="160" height="160" rx="0"/></clipPath><mask id="master_svg1_179_8427" style="mask-type:alpha" maskUnits="objectBoundingBox"><g><rect x="28" y="18" width="104" height="104" rx="0" fill="#FFFFFF" fill-opacity="1"/></g></mask></defs><g clip-path="url(#master_svg0_179_8413)"><g></g><g><path d="M33.973663,0C59.694344,0,100.305656,0,126.02634,0C139.28116,0,150,10.718824,150,23.973661C150,49.694344,150,90.305656,150,116.02634C150,129.28116,139.28116,140,126.02633,140C100.305656,140,59.694344,140,33.973663,140C20.718823999999998,140,10,129.28116,10,116.02633C10,90.305656,10,49.694344,10,23.973663C10,10.718824,20.718823999999998,0,33.973661,0" fill="#5A5A5A" fill-opacity="1"/></g><g transform="matrix(0.7071067690849304,0.7071067690849304,-0.7071067690849304,0.7071067690849304,102.62614883353626,-23.765024794839974)"><path d="M80,111.99820709228516C80,111.99820709228516,113.94239400000001,111.99820709228516,113.94239400000001,111.99820709228516C113.94239400000001,111.99820709228516,113.94239400000001,132.98102409228517,113.94239400000001,141.95117809228515C113.94239,144.16031609228514,112.162109,145.94059709228515,109.952969,145.94059709228515C100.982817,145.94060109228516,80,145.94060109228516,80,145.94060109228516C80,145.94060109228516,80,111.99820709228516,80,111.99820709228516Z" fill="#5A5A5A" fill-opacity="1"/></g><g style="opacity:0.5;" mask="url(#master_svg1_179_8427)"><g transform="matrix(0.7071067690849304,0.7071067690849304,-0.7071067690849304,0.7071067690849304,29.618277712696,-62.17769567747018)"><path d="M90.2014431325,82.65685321875C88.7359115125,85.94615921875,92.3357367125,89.18911721875,95.4547481125,87.38937421875L125.5061418125,70.04898021875C126.6558528125,69.38556621875,128.0720788125,69.38555921875,129.2217938125,70.04896521875L159.27378081249998,87.38948021875C162.3927838125,89.18920121875,165.9925918125,85.94625121875,164.5270688125,82.65695221875L130.7597008125,6.86798211875C129.4501498125,3.92877125875,125.27831681250001,3.92877125875,123.9687648125,6.86798211875L90.2014431325,82.65685321875Z" fill="#FFFFFF" fill-opacity="1"/></g></g></g></svg>