<svg xmlns="http://www.w3.org/2000/svg" xmlns:xlink="http://www.w3.org/1999/xlink" fill="none" version="1.1" width="160" height="160" viewBox="0 0 160 160"><defs><clipPath id="master_svg0_179_8249"><rect x="0" y="0" width="160" height="160" rx="0"/></clipPath></defs><g clip-path="url(#master_svg0_179_8249)"><g></g><g transform="matrix(0.7071067690849304,0.7071067690849304,-0.7071067690849304,0.7071067690849304,102.62614883353626,-23.765024794839974)"><path d="M80,111.99820709228516C80,111.99820709228516,113.94239400000001,111.99820709228516,113.94239400000001,111.99820709228516C113.94239400000001,111.99820709228516,113.94239400000001,132.98102409228517,113.94239400000001,141.95117809228515C113.94239,144.16031609228514,112.162109,145.94059709228515,109.952969,145.94059709228515C100.982817,145.94060109228516,80,145.94060109228516,80,145.94060109228516C80,145.94060109228516,80,111.99820709228516,80,111.99820709228516Z" fill="#5A5A5A" fill-opacity="1"/></g><g><path d="M33.973663,0C59.694344,0,100.305656,0,126.02634,0C139.28116,0,150,10.718824,150,23.973661C150,49.694344,150,90.305656,150,116.02634C150,129.28116,139.28116,140,126.02633,140C100.305656,140,59.694344,140,33.973663,140C20.718823999999998,140,10,129.28116,10,116.02633C10,90.305656,10,49.694344,10,23.973663C10,10.718824,20.718823999999998,0,33.973661,0" fill="#5A5A5A" fill-opacity="1"/></g><g><path d="M30.7593070939,49.73362559179688C30.91555713,37.80080959179688,35.07337,27.763310391796875,43.538995,19.357060311796875C43.997588,18.901591541796876,44.234306000000004,18.911747801796874,44.682747,19.357060311796875C45.78479,20.430635491796874,46.921864,21.467655391796875,48.092123,22.466435391796875C48.652275,22.946122891796875,48.595245,23.207060791796877,48.092123,23.714873291796877C43.410089,28.416435191796875,39.9202452,33.79299959179687,38.3858709,40.11096759179688C35.2725897,52.953933591796876,38.3335257,64.35159259179687,47.737434,74.16565659179687L47.761003,74.19030759179688C48.239849,74.69112759179689,48.478542000000004,74.94077259179687,48.469248,75.18081659179688C48.459894,75.42240559179687,48.199348,75.65427059179687,47.679623,76.12268459179688C46.634676,77.06193159179688,45.603318,78.01620059179687,44.585873,78.98518359179687C44.241341,79.31174859179688,44.05306,79.34925059179687,43.676497,78.98518359179687C36.3593073,71.73518759179687,32.0272759,63.211746591796874,30.98821335,53.22111859179687C30.846025802,51.93205659179687,30.713213332,50.64611859179688,30.7593070939,49.73362559179688ZM129.418427,49.73362559179688C129.262177,37.80080959179688,125.104362,27.763310391796875,116.638741,19.357060311796875C116.180145,18.901591541796876,115.943428,18.911747801796874,115.494987,19.357060311796875C114.392944,20.430635491796874,113.255875,21.467655391796875,112.085609,22.466435391796875C111.525459,22.946122891796875,111.582489,23.207060791796877,112.085609,23.714873291796877C116.767647,28.416435191796875,120.257492,33.79299959179687,121.791862,40.11096759179688C124.905144,52.953933591796876,121.844208,64.35159259179687,112.4403,74.16565659179687L112.41674,74.19029659179688C111.937889,74.69112759179689,111.699196,74.94076959179688,111.708488,75.18081659179688C111.717842,75.42240559179687,111.978386,75.65427059179687,112.498108,76.12268459179688C113.54306,77.06193159179688,114.574417,78.01620059179687,115.591858,78.98518359179687C115.936394,79.31174859179688,116.124672,79.34925059179687,116.501236,78.98518359179687C123.818428,71.73518759179687,128.150459,63.211746591796874,129.189522,53.22111859179687C129.33171099999998,51.93205659179687,129.46452299999999,50.64611859179688,129.418427,49.73362559179688ZM52.126951,28.361285191796874C46.459764,34.198004591796874,43.667578,41.10659959179688,43.494141,49.18628659179687C43.610548,57.104259591796875,46.432423,64.21988259179687,52.405861,70.16051059179688C52.895702,70.64644659179687,53.215237,70.74644859179688,53.741798,70.19800559179689C54.655704,69.22834359179687,55.625316999999995,68.31273259179687,56.645702,67.45581859179688C57.45742,66.79175159179687,57.45742,66.37066659179688,56.719141,65.59644359179688C51.249609,59.842540591796876,49.135548,53.087852591796874,50.239453999999995,45.45191159179687C50.970703,40.39956659179688,53.337891,36.062847591796874,56.991798,32.336284591796876C57.461330000000004,31.864409591796875,57.569923,31.561285591796874,56.991798,31.067535591796876C55.977734,30.199566591796874,55.080078,29.273003591796876,54.087889000000004,28.319097491796875C53.096485,27.365191491796875,53.094921,27.365191491796875,52.126951,28.361285191796874ZM108.050781,28.361285191796874C113.717972,34.198004591796874,116.510155,41.10659959179688,116.683594,49.18628659179687C116.567184,57.104259591796875,113.745308,64.21988259179687,107.771873,70.16051059179688C107.282028,70.64644659179687,106.962502,70.74644859179688,106.435936,70.19800559179689C105.522026,69.22834359179687,104.552422,68.31273259179687,103.532036,67.45581859179688C102.720314,66.79175159179687,102.720314,66.37066659179688,103.458595,65.59644359179688C108.928123,59.842540591796876,111.042191,53.087852591796874,109.938278,45.45191159179687C109.207031,40.39956659179688,106.839844,36.062847591796874,103.185936,32.336284591796876C102.716408,31.864409591796875,102.607811,31.561285591796874,103.185936,31.067535591796876C104.199997,30.199566591796874,105.097656,29.273003591796876,106.089844,28.319097491796875C107.081253,27.365191491796875,107.082809,27.365191491796875,108.050781,28.361285191796874ZM61.444698,36.56211059179687C58.056416,40.08164059179688,56.384541,44.21992259179687,56.276728,48.51132959179688C56.249382,53.53710959179688,57.771255,57.61445659179687,60.926725000000005,61.11523459179688C60.982088000000005,61.17671559179688,61.034571,61.23517959179687,61.084402,61.29069159179687C61.628916000000004,61.897273591796875,61.857044,62.15140559179687,62.071812,62.140575591796875C62.311661,62.128482591796875,62.534847,61.785922591796876,63.163445,61.234767591796874C64.16500500000001,60.356643591796875,65.093132,59.40117259179687,66.101727,58.52617259179687C66.544693,58.14023559179687,66.517349,57.92539259179687,66.132977,57.49726459179688C61.518911,52.36679859179687,61.514227000000005,45.78711159179687,66.132977,40.75195359179688C66.59782,40.24414059179688,66.456413,40.00976559179688,66.043915,39.63476559179688C64.929855,38.62382859179688,63.816574,37.60976559179687,62.759541,36.54413959179688C62.247822,36.03085859179687,61.952511,36.03632959179687,61.444698,36.56211059179687ZM98.733032,36.56211059179687C102.121323,40.08164059179688,103.79319,44.21992259179687,103.901009,48.51132959179688C103.928352,53.53710959179688,102.406479,57.61445659179687,99.251007,61.11523459179688C99.195633,61.17672359179687,99.14315,61.235195591796874,99.093315,61.29071459179688C98.548813,61.897281591796876,98.320686,62.15140559179687,98.105919,62.140575591796875C97.866074,62.128482591796875,97.642891,61.785922591796876,97.01429,61.234767591796874C96.012726,60.356643591796875,95.084602,59.40117259179687,94.076008,58.52617259179687C93.63304099999999,58.14023559179687,93.66038499999999,57.92539259179687,94.044758,57.49726459179688C98.658821,52.36679859179687,98.663506,45.78711159179687,94.044758,40.75195359179688C93.579914,40.24414059179688,93.721321,40.00976559179688,94.13382,39.63476559179688C95.247879,38.62382859179688,96.36116,37.60976559179687,97.418198,36.54413959179688C97.929909,36.03085859179687,98.22522,36.03632959179687,98.733032,36.56211059179687ZM88,46.49996959179688Q88,46.819024591796875,87.976078,47.137184591796874Q87.95216400000001,47.45534159179687,87.904461,47.77081459179688Q87.856758,48.086284591796876,87.78554199999999,48.39729159179687Q87.714325,48.70829759179688,87.619991,49.013093591796874Q87.525654,49.317884591796876,87.408737,49.61474759179687Q87.29181700000001,49.911609591796875,87.15297699999999,50.198873591796875Q87.014133,50.486135591796874,86.854149,50.76218059179688Q86.69416,51.03822659179688,86.513927,51.301505591796875Q86.33369400000001,51.564777591796876,86.134232,51.81380059179688Q85.93477200000001,52.062824591796875,85.717209,52.296195591796874Q85.499641,52.52956359179687,85.26518999999999,52.74596759179688Q85.030739,52.962371591796874,84.780731,53.16059459179687Q84.530716,53.358810591796875,84.26654400000001,53.53772759179687Q84.002373,53.71664459179687,83.725536,53.87525559179687Q83.448692,54.03386659179687,83.160744,54.171276591796875Q82.872791,54.30868559179687,82.57535200000001,54.42412559179687L83.403679,58.12658659179687L96.127579,114.99996959179687L102,114.99996959179687L102,122.99996659179688L57,122.99996659179688L57,114.99996959179687L62.872776,114.99996959179687L76.424973,54.42424759179688Q76.12751800000001,54.308822591796876,75.83955,54.171417591796875Q75.551582,54.034011591796876,75.274727,53.87540859179688Q74.997871,53.71680459179687,74.733688,53.537887591796874Q74.469505,53.35897459179687,74.219479,53.16075859179688Q73.969448,52.962539591796876,73.734982,52.74613559179687Q73.500519,52.529731591796875,73.282936,52.29635959179687Q73.065353,52.06298859179687,72.865883,51.81396059179688Q72.666409,51.56493359179687,72.48616799999999,51.30165059179687Q72.305923,51.038368591796875,72.145927,50.76231559179688Q71.985931,50.48626359179687,71.847076,50.19899359179688Q71.708225,49.91172359179687,71.591301,49.61485059179687Q71.47438,49.31798159179688,71.380039,49.01317959179687Q71.285698,48.70837559179688,71.214474,48.397357591796876Q71.14325,48.08633959179687,71.09554299999999,47.77085859179687Q71.04784000000001,47.45537559179688,71.023922,47.13720559179687Q71,46.81903659179687,71,46.49996959179688Q71,46.29130559179687,71.010239,46.08289559179687Q71.020477,45.874483591796874,71.040932,45.666824591796875Q71.061386,45.45916759179687,71.092003,45.252761591796876Q71.122616,45.04635659179688,71.163322,44.84170159179688Q71.20402899999999,44.637046591796874,71.25473,44.434636591796874Q71.305431,44.23222759179687,71.366005,44.032548591796875Q71.426575,43.832870591796876,71.496872,43.63640359179688Q71.567165,43.43993759179688,71.647018,43.24715759179688Q71.726871,43.054378591796876,71.81609,42.86574959179687Q71.905304,42.67712059179688,72.00367,42.49309559179687Q72.10202799999999,42.309070591796875,72.209305,42.130092591796874Q72.316574,41.95111459179687,72.432503,41.77761859179688Q72.548431,41.60412259179688,72.672729,41.43652359179687Q72.797031,41.268924591796875,72.92940899999999,41.107625591796875Q73.06178299999999,40.94632759179687,73.201912,40.791717591796875Q73.342041,40.63710759179688,73.489586,40.489560591796874Q73.637131,40.342014591796875,73.79174,40.20188359179687Q73.94635,40.06175459179687,74.107655,39.92938059179687Q74.268951,39.79700459179688,74.43655,39.67270459179687Q74.604149,39.54840259179687,74.777649,39.43247559179687Q74.951145,39.316547591796876,75.13011900000001,39.209272591796875Q75.30909700000001,39.101999591796876,75.49312599999999,39.003637591796874Q75.67714699999999,38.90527359179687,75.865776,38.81605959179687Q76.054405,38.726844591796876,76.247185,38.646991591796876Q76.439964,38.567138591796876,76.636433,38.496843591796875Q76.832897,38.426547591796876,77.032578,38.36597659179688Q77.232254,38.30540259179688,77.434662,38.254701591796874Q77.637074,38.20400059179687,77.841728,38.16329359179687Q78.04638299999999,38.12258559179688,78.252789,38.09196859179687Q78.459194,38.06135159179688,78.666855,38.040901591796874Q78.87451200000001,38.020446591796876,79.08292399999999,38.010208591796875Q79.291336,37.99996959179688,79.5,37.99996959179688Q79.708664,37.99996959179688,79.91707199999999,38.010208591796875Q80.12548799999999,38.020446591796876,80.333145,38.04089959179687Q80.540802,38.06135159179688,80.747208,38.09196859179687Q80.953609,38.12258559179688,81.158264,38.16329359179687Q81.362915,38.20400059179687,81.565327,38.254701591796874Q81.76773800000001,38.305400591796875,81.967415,38.36597459179687Q82.167091,38.42654659179688,82.363556,38.496843591796875Q82.56002000000001,38.567138591796876,82.75280000000001,38.646991591796876Q82.94558,38.726844591796876,83.13421199999999,38.81605959179687Q83.32284200000001,38.90527359179687,83.50686999999999,39.003637591796874Q83.690891,39.101999591796876,83.869865,39.20927459179687Q84.048843,39.316547591796876,84.22234,39.43247559179687Q84.395836,39.54840259179687,84.56343799999999,39.67270259179688Q84.731037,39.79700459179688,84.892338,39.92938059179687Q85.053635,40.06175459179687,85.20824400000001,40.201885591796874Q85.362854,40.342014591796875,85.510403,40.489560591796874Q85.657948,40.63710759179688,85.79808,40.79171559179687Q85.93821,40.94632759179687,86.070583,41.10762359179688Q86.202957,41.26892259179688,86.32725500000001,41.43652359179687Q86.45155299999999,41.60412259179688,86.567482,41.77761859179688Q86.683407,41.95111459179687,86.79068000000001,42.130092591796874Q86.89795699999999,42.309070591796875,86.99632299999999,42.49309559179687Q87.094685,42.67712059179688,87.183899,42.865747591796875Q87.273113,43.054378591796876,87.35296600000001,43.24715759179688Q87.432816,43.43993759179688,87.503113,43.63640359179688Q87.573414,43.832870591796876,87.63398699999999,44.032548591796875Q87.694557,44.23222759179687,87.745255,44.434636591796874Q87.79595900000001,44.63704459179688,87.83667,44.841699591796875Q87.877377,45.04635459179687,87.907993,45.252759591796874Q87.938614,45.459165591796875,87.959068,45.666824591796875Q87.97951900000001,45.874483591796874,87.989758,46.082893591796875Q88,46.29130559179687,88,46.49996959179688ZM79.500175,77.32111359179687L71.07055700000001,114.99989359179688L87.929794,114.99989359179688L79.500175,77.32111359179687Z" fill-rule="evenodd" fill="#FFFFFF" fill-opacity="0.5"/></g></g></svg>