<svg xmlns="http://www.w3.org/2000/svg" xmlns:xlink="http://www.w3.org/1999/xlink" fill="none" version="1.1" width="160" height="160" viewBox="0 0 160 160"><defs><clipPath id="master_svg0_179_8350"><rect x="0" y="0" width="160" height="160" rx="0"/></clipPath></defs><g clip-path="url(#master_svg0_179_8350)"><g></g><g><path d="M33.973663,0C59.694344,0,100.305656,0,126.02634,0C139.28116,0,150,10.718824,150,23.973661C150,49.694344,150,90.305656,150,116.02634C150,129.28116,139.28116,140,126.02633,140C100.305656,140,59.694344,140,33.973663,140C20.718823999999998,140,10,129.28116,10,116.02633C10,90.305656,10,49.694344,10,23.973663C10,10.718824,20.718823999999998,0,33.973661,0" fill="#5A5A5A" fill-opacity="1"/></g><g transform="matrix(0.7071067690849304,0.7071067690849304,-0.7071067690849304,0.7071067690849304,102.62614343873975,-23.765027029437988)"><path d="M80,111.99819946289062C80,111.99819946289062,113.94239400000001,111.99819946289062,113.94239400000001,111.99819946289062C113.94239400000001,111.99819946289062,113.94239400000001,132.98101646289064,113.94239400000001,141.95117046289062C113.94239,144.1603084628906,112.162109,145.9405894628906,109.952969,145.9405894628906C100.982817,145.94059346289063,80,145.94059346289063,80,145.94059346289063C80,145.94059346289063,80,111.99819946289062,80,111.99819946289062Z" fill="#5A5A5A" fill-opacity="1"/></g><g><path d="M79.998043,123.50341796875C50.498917,123.50233796875,26,99.00276196875,26,69.50341796875L26,69.49463296875C26.0048646629,39.99948296875,50.501385,15.50496091145,79.997211,15.50341796875L80,15.50341796875C87.90834799999999,15.50341796875,95.457359,17.26415086875,102.271355,20.40992926875C100.31562,22.22714706875,98.80146,24.51314356875,97.907661,27.08914296875C93.574524,25.268253368750003,88.898731,24.090229968750002,83.998039,23.67284006875L83.998039,40.77601396875C96.805321,42.54422396875,106.959404,52.69584996875,108.731346,65.50195296875L125.830284,65.50195296875C125.276619,59.00684396875,123.386856,52.90683696875,120.435188,47.476111968750004C122.881264,46.34146896875,125.002663,44.625182968749996,126.6218,42.50484496875C131.30299,50.47886696875,133.99973,59.71523696875,134,69.50195296875L134,69.50341796875C134,99.00341796875,109.5,123.50341796875,80,123.50341796875L79.998043,123.50341796875ZM113.5,41.999999968750004Q113.733208,41.999999968750004,113.966141,41.98855596875Q114.199066,41.977111968749995,114.43116,41.954253968749995Q114.663246,41.93139696875,114.893929,41.89717496875Q115.124619,41.86295696875,115.353348,41.81745896875Q115.582085,41.77196096875,115.808304,41.71529596875Q116.034531,41.65862796875,116.257698,41.59093096875Q116.480865,41.52323196875,116.700447,41.44466396875Q116.920029,41.36609696875,117.135483,41.27685196875Q117.350937,41.18760496875,117.561768,41.087893968749995Q117.772591,40.98818396875,117.978271,40.87824996875Q118.183945,40.76831396875,118.383972,40.648417968749996Q118.584,40.528522968749996,118.777908,40.39895796875Q118.971817,40.26939196875,119.159142,40.13046796875Q119.346466,39.99154696875,119.526741,39.84359896875Q119.707016,39.695649968750004,119.879814,39.539033968750005Q120.052612,39.38241996875,120.217514,39.21751396875Q120.382416,39.05260896875,120.539032,38.87980796875Q120.695648,38.707011968749995,120.843605,38.52673696875Q120.991547,38.34646196875,121.13047,38.15914196875Q121.269394,37.97182496875,121.398956,37.77791596875Q121.528519,37.58400696875,121.648422,37.38397596875Q121.768311,37.18394296875,121.87825,36.97826796875Q121.988182,36.772592968750004,122.087891,36.56177096875Q122.187592,36.35094796875,122.27684,36.13548996875Q122.366089,35.92002896875,122.444664,35.700450968750005Q122.523224,35.48087296875,122.590927,35.25770396875Q122.658623,35.03453296875,122.715286,34.808309968749995Q122.771957,34.582084968749996,122.817451,34.35335496875Q122.862946,34.12462396875,122.897171,33.89393596875Q122.931396,33.66324996875,122.954254,33.431161968750004Q122.977112,33.19907396875,122.988548,32.96614096875Q123,32.73321196875,123,32.499999968750004Q123,32.26678896875,122.988556,32.03385696875Q122.977112,31.80092596875,122.954254,31.56883796875Q122.931396,31.33674796875,122.897171,31.10605996875Q122.862946,30.875371968750002,122.817451,30.64664096875Q122.771957,30.41790996875,122.715294,30.19168696875Q122.65863,29.96546396875,122.590935,29.742293968749998Q122.523232,29.51912496875,122.444656,29.29954496875Q122.366089,29.079965968750003,122.27684,28.864505968750002Q122.187592,28.649045968750002,122.087891,28.43822596875Q121.988182,28.22740496875,121.87825,28.02172996875Q121.768311,27.816054968750002,121.648407,27.616021968749997Q121.528519,27.41598996875,121.398949,27.22208096875Q121.269386,27.02817296875,121.130463,26.84085496875Q120.991547,26.65353796875,120.843605,26.47326296875Q120.695648,26.292987968749998,120.539032,26.120189968749997Q120.382416,25.94739096875,120.217514,25.782484968749998Q120.052612,25.61757896875,119.879814,25.46096326875Q119.707016,25.30434796875,119.526741,25.156400668750003Q119.346466,25.00845146875,119.159142,24.86952776875Q118.971825,24.73060416875,118.777916,24.60103796875Q118.584015,24.47147276875,118.38398,24.351577768749998Q118.183945,24.231683768750003,117.978271,24.12174796875Q117.772598,24.011812168749998,117.561775,23.91210176875Q117.350952,23.812391268749998,117.13549,23.72314456875Q116.920029,23.63389776875,116.700455,23.555331268750002Q116.480873,23.47676466875,116.257706,23.40906716875Q116.034531,23.34136916875,115.808319,23.28470326875Q115.582092,23.22803686875,115.353363,23.18253996875Q115.124634,23.13704256875,114.893944,23.10282376875Q114.663254,23.06860446875,114.431168,23.04574586875Q114.199074,23.02288676875,113.966141,23.01144316875Q113.733208,22.99999996875,113.5,22.99999996875Q113.266785,22.99999996875,113.033852,23.01144356875Q112.800919,23.02288626875,112.568832,23.045745368749998Q112.336746,23.06860446875,112.106056,23.10282326875Q111.875366,23.13704206875,111.646637,23.18253946875Q111.417908,23.22803636875,111.191689,23.28470226875Q110.965462,23.34136816875,110.742294,23.40906616875Q110.519119,23.47676466875,110.299538,23.555331268750002Q110.079956,23.63389776875,109.864502,23.72314356875Q109.64904,23.812390368750002,109.438217,23.91210176875Q109.227402,24.011812168749998,109.021729,24.12174796875Q108.81604,24.231683768750003,108.616005,24.351577768749998Q108.41597,24.47147276875,108.222069,24.60103796875Q108.02816,24.73060416875,107.840851,24.86952776875Q107.653534,25.00845146875,107.473259,25.156400668750003Q107.292984,25.30434796875,107.120178,25.46096416875Q106.947388,25.61757896875,106.782478,25.782484968749998Q106.617569,25.94739096875,106.460953,26.120189968749997Q106.304337,26.292987968749998,106.156395,26.47326396875Q106.008446,26.65353896875,105.869522,26.84085696875Q105.730591,27.02817296875,105.601028,27.22208196875Q105.471466,27.415990968750002,105.351562,27.616022968750002Q105.231674,27.816054968750002,105.121742,28.02172996875Q105.011803,28.22740496875,104.912094,28.43822596875Q104.812378,28.649045968750002,104.723137,28.864505968750002Q104.633896,29.079965968750003,104.555321,29.29954496875Q104.476761,29.51912496875,104.409058,29.742294968750002Q104.341362,29.96546496875,104.284698,30.19168796875Q104.228027,30.41790996875,104.182533,30.64663996875Q104.137039,30.875371968750002,104.102814,31.10605996875Q104.068604,31.33674796875,104.045746,31.56883796875Q104.022888,31.80092596875,104.011444,32.03385496875Q104,32.26678896875,104,32.499999968750004Q104,32.73321196875,104.011444,32.96614296875Q104.022888,33.19907396875,104.045746,33.431161968750004Q104.068604,33.66324996875,104.102814,33.893937968749995Q104.137039,34.12462396875,104.182533,34.35335496875Q104.228027,34.582084968749996,104.284698,34.808309968749995Q104.34137,35.03453296875,104.409065,35.25770396875Q104.476761,35.48087296875,104.555328,35.700450968750005Q104.633896,35.92002896875,104.723137,36.13548996875Q104.812378,36.35094796875,104.912094,36.56177096875Q105.011803,36.772592968750004,105.121742,36.97826796875Q105.231674,37.18394296875,105.35157,37.38397396875Q105.471466,37.58400696875,105.601028,37.77791596875Q105.730591,37.97182496875,105.869522,38.159142968750004Q106.008446,38.34646196875,106.156395,38.52673696875Q106.304337,38.707011968749995,106.460953,38.87980796875Q106.617569,39.05260896875,106.782478,39.21751396875Q106.947388,39.38241996875,107.120178,39.539031968749995Q107.292984,39.695647968749995,107.473259,39.84359696875Q107.653534,39.99154496875,107.840851,40.13046596875Q108.028168,40.269389968750005,108.222076,40.39895596875Q108.415985,40.528522968749996,108.616013,40.64841696875Q108.816048,40.76831196875,109.021729,40.87824796875Q109.227402,40.98818196875,109.438217,41.08789296875Q109.64904,41.18760496875,109.864502,41.27685196875Q110.079956,41.36609696875,110.299538,41.44466396875Q110.519119,41.52323196875,110.742294,41.59093096875Q110.965462,41.65862796875,111.191681,41.715293968750004Q111.417908,41.77196096875,111.646637,41.81745896875Q111.875366,41.86295696875,112.106056,41.89717896875Q112.336746,41.93139696875,112.56884,41.954255968750005Q112.800926,41.977113968750004,113.033859,41.98855796875Q113.266785,41.999999968750004,113.5,41.999999968750004ZM75.998039,23.67317386875C53.707094,25.57357596875,36.069883000000004,43.210940968749995,34.169714,65.50195296875L51.280371,65.50195296875C53.051592,52.70106096875,63.198128,42.552489968749995,75.998039,40.77817896875L75.998039,23.67317386875ZM83.998039,65.50195296875L83.998039,48.89054096875C92.327148,50.52769496875,98.975739,57.17400396875,100.616325,65.50195296875L83.998039,65.50195296875ZM75.998039,65.50195296875L59.395397,65.50195296875C61.034954,57.17921796875,67.67625799999999,50.53601796875,75.998039,48.89362296875L75.998039,65.50195296875ZM65.130177,73.50195696875L75.998039,73.50195696875L75.998039,90.11174796875C67.67625799999999,88.46935296875,61.034954,81.82614896875,59.395397,73.50341796875L64.998043,73.50341796875C65.042095,73.50341796875,65.086147,73.50293396875,65.130177,73.50195696875ZM83.998039,115.33399996875C106.291809,113.43524896875,123.931549,95.79565396875,125.830536,73.50195696875L108.731552,73.50195696875C106.960182,86.30874596875,96.805809,96.46108196875,83.998039,98.22935496875L83.998039,115.33399996875ZM83.998039,73.50195696875L100.616608,73.50195696875C98.976517,81.83058896875,92.327629,88.47758496875,83.998039,90.11482996875L83.998039,73.50195696875ZM34.169589,73.50341796875L51.280371,73.50341796875C53.051590000000004,86.30430596875,63.198128,96.45288096875,75.998039,98.22719596875L75.998039,115.33366396875C53.706608,113.43321996875,36.069111,95.79511996875,34.169589,73.50341796875Z" fill-rule="evenodd" fill="#FFFFFF" fill-opacity="0.5"/></g></g></svg>