<svg xmlns="http://www.w3.org/2000/svg" xmlns:xlink="http://www.w3.org/1999/xlink" fill="none" version="1.1" width="160" height="160" viewBox="0 0 160 160"><defs><clipPath id="master_svg0_179_8373"><rect x="0" y="0" width="160" height="160" rx="0"/></clipPath></defs><g clip-path="url(#master_svg0_179_8373)"><g></g><g><path d="M33.973663,0C59.694344,0,100.305656,0,126.02634,0C139.28116,0,150,10.718824,150,23.973661C150,49.694344,150,90.305656,150,116.02634C150,129.28116,139.28116,140,126.02633,140C100.305656,140,59.694344,140,33.973663,140C20.718823999999998,140,10,129.28116,10,116.02633C10,90.305656,10,49.694344,10,23.973663C10,10.718824,20.718823999999998,0,33.973661,0" fill="#5A5A5A" fill-opacity="1"/></g><g transform="matrix(0.7071067690849304,0.7071067690849304,-0.7071067690849304,0.7071067690849304,102.62614343873975,-23.765027029437988)"><path d="M80,111.99819946289062C80,111.99819946289062,113.94239400000001,111.99819946289062,113.94239400000001,111.99819946289062C113.94239400000001,111.99819946289062,113.94239400000001,132.98101646289064,113.94239400000001,141.95117046289062C113.94239,144.1603084628906,112.162109,145.9405894628906,109.952969,145.9405894628906C100.982817,145.94059346289063,80,145.94059346289063,80,145.94059346289063C80,145.94059346289063,80,111.99819946289062,80,111.99819946289062Z" fill="#5A5A5A" fill-opacity="1"/></g><g style="opacity:0.5;"><path d="M63.476162125,35.99191333984375L35.731214525,17.81831550598175L30.25182151794,26.18349643984375L52.858948125,40.99170133984375L30.25175285339,55.80049133984375L35.731283225,64.16558033984376L63.475323125,45.99191333984375L75.000000125,45.99191333984375L75.000000125,110.99194333984374L49.000000125,110.99194333984374L49.000000125,120.99194833984374L110.000000125,120.99194833984374L110.000000125,110.99194333984374L85.000000125,110.99194333984374L85.000000125,45.99191333984375L105.000000125,45.99191333984375L105.000000125,51.99191333984375L131.000003125,40.99185933984375L105.000000125,29.991913339843748L105.000000125,35.99191333984375L63.476162125,35.99191333984375Z" fill-rule="evenodd" fill="#FFFFFF" fill-opacity="1"/></g></g></svg>