<svg xmlns="http://www.w3.org/2000/svg" xmlns:xlink="http://www.w3.org/1999/xlink" fill="none" version="1.1" width="160" height="160" viewBox="0 0 160 160"><defs><clipPath id="master_svg0_179_8311"><rect x="0" y="0" width="160" height="160" rx="0"/></clipPath></defs><g clip-path="url(#master_svg0_179_8311)"><g></g><g><path d="M130.13638,0L29.863609,0C18.8179111,0,10,8.8179111,10,19.863613L10,120.1364C10,131.18208,18.8179111,140,29.863613,140L59.99992,140L76.417198,156.4173C78.36982,158.3699,81.63018,158.3699,83.582802,156.41728L100.000099,140L130.13639999999998,140C141.18208,140,150,131.18208,150,120.13638L150,19.863607C150,8.8179111,141.18208,0,130.13638,0Z" fill-rule="evenodd" fill="#5A5A5A" fill-opacity="1"/></g><g><g><path d="M37.99999713897705,67.00000399999999C37.99999713897705,80.834969,44.68932913897705,93.107559,55.01007913897705,100.759857L58.574012138977054,94.423973C50.43275013897705,88.054317,45.19999743897705,78.138252,45.19999743897705,67.00000399999999C45.19999743897705,47.780491,60.78048813897705,32.2000003,80.00000113897704,32.2000003C99.21951013897706,32.2000003,114.80000013897705,47.780491,114.80000013897705,67.00000399999999C114.80000013897705,78.138252,109.56724213897705,88.054317,101.42598013897705,94.423973L104.98991113897705,100.759857C115.31066613897706,93.107559,122.00000513897704,80.834969,122.00000513897704,67.00000399999999C122.00000513897704,43.804039,103.19595813897705,25,80.00000113897704,25C56.804036138977054,25,37.99999713897705,43.804039,37.99999713897705,67.00000399999999ZM63.055390138977046,86.456062C57.62895913897705,81.726269,54.199704138977054,74.763466,54.199704138977054,66.99971C54.199704138977054,52.750759,65.75075613897705,41.199707000000004,79.99970713897704,41.199707000000004C94.24865413897706,41.199707000000004,105.79971013897705,52.750759,105.79971013897705,66.99971C105.79971013897705,74.76351199999999,102.37041213897704,81.72636,96.94392113897706,86.45614599999999L93.30858313897704,79.993324C96.58232213897705,76.640663,98.59970613897704,72.055779,98.59970613897704,66.99971C98.59970613897704,56.727209,90.27220213897705,48.399705999999995,79.99970713897704,48.399705999999995C69.72720613897705,48.399705999999995,61.399703138977046,56.727209,61.399703138977046,66.99971C61.399703138977046,72.055733,63.41705013897705,76.64057199999999,66.69073213897705,79.993229L63.055390138977046,86.456062ZM84.41235113897704,74.844177C87.24624313897705,73.250118,89.00000113897704,70.251461,89.00000113897704,67.00000399999999C89.00000113897704,62.029434,84.97055913897705,58,80.00000113897704,58C75.02943113897706,58,70.99999713897705,62.029434,70.99999713897705,67.00000399999999C70.99999713897705,70.251461,72.75375113897705,73.250118,75.58764313897706,74.844177L57.04999813897705,107.800003L52.99999713897705,115L106.99999713897705,115L102.94999413897705,107.800003L84.41235113897704,74.844177ZM94.68909913897704,107.800003L80.00000113897704,81.68605L65.31089913897705,107.800003L94.68909913897704,107.800003Z" fill-rule="evenodd" fill="#A1A1A1" fill-opacity="1"/></g></g></g></svg>