<svg xmlns="http://www.w3.org/2000/svg" xmlns:xlink="http://www.w3.org/1999/xlink" fill="none" version="1.1" width="160" height="160" viewBox="0 0 160 160"><defs><clipPath id="master_svg0_179_8108"><rect x="0" y="0" width="160" height="160" rx="0"/></clipPath></defs><g clip-path="url(#master_svg0_179_8108)"><g></g><g><path d="M33.973663,0C59.694344,0,100.305656,0,126.02634,0C139.28116,0,150,10.718824,150,23.973661C150,49.694344,150,90.305656,150,116.02634C150,129.28116,139.28116,140,126.02633,140C100.305656,140,59.694344,140,33.973663,140C20.718823999999998,140,10,129.28116,10,116.02633C10,90.305656,10,49.694344,10,23.973663C10,10.718824,20.718823999999998,0,33.973661,0" fill="#286F1C" fill-opacity="1"/></g><g transform="matrix(0.7071067690849304,0.7071067690849304,-0.7071067690849304,0.7071067690849304,102.62614343873975,-23.765027029437988)"><path d="M80,111.99819946289062C80,111.99819946289062,113.94239400000001,111.99819946289062,113.94239400000001,111.99819946289062C113.94239400000001,111.99819946289062,113.94239400000001,132.98101646289064,113.94239400000001,141.95117046289062C113.94239,144.1603084628906,112.162109,145.9405894628906,109.952969,145.9405894628906C100.982817,145.94059346289063,80,145.94059346289063,80,145.94059346289063C80,145.94059346289063,80,111.99819946289062,80,111.99819946289062Z" fill="#286F1C" fill-opacity="1"/></g><g><g><path d="M112.552734375,53.395996C113.441230775,54.694570999999996,114.193481475,56.071087,114.808593775,57.535645C116.048583975,60.454996,116.672851575,63.559709999999995,116.672851575,66.771973C116.672851575,69.97447199999999,116.048583975,73.079674,114.808593775,76.00878900000001C114.193481475,77.463585,113.441230775,78.849865,112.552734375,80.148438L117.688476575,83.70263700000001C120.988616975,78.87935999999999,122.921875375,73.050041,122.921875375,66.771973C122.921875375,60.493902,120.988609275,54.665075,117.688476575,49.8417969L112.552734375,53.395996ZM122.495323175,89.804726L127.63104237499999,93.35871900000001C132.971794375,85.743019,136.105949375,76.477249,136.105949375,66.479202C136.105949375,56.656902,133.079193375,47.53759,127.914184375,40L122.778473375,43.5539935C124.301612375,45.7801208,125.609954375,48.162468000000004,126.664436375,50.671744000000004C128.783157375,55.670768,129.857162375,60.991993,129.857162375,66.479204C129.857162375,71.966415,128.783157375,77.28764000000001,126.664428375,82.286663C125.541603375,84.94239400000001,124.145385375,87.461433,122.495323175,89.804726Z" fill="#FFFFFF" fill-opacity="1" style="mix-blend-mode:passthrough"/></g><g transform="matrix(-1,0,0,1,95.10450744628906,0)"><path d="M47.55225372314453,53.395996C48.44075012314453,54.694570999999996,49.19300082314453,56.071087,49.80811312314453,57.535645C51.04810332314453,60.454996,51.672370923144534,63.559709999999995,51.672370923144534,66.771973C51.672370923144534,69.97447199999999,51.04810332314453,73.079674,49.80811312314453,76.00878900000001C49.19300082314453,77.463585,48.44075012314453,78.849865,47.55225372314453,80.148438L52.687995923144534,83.70263700000001C55.98813632314453,78.87935999999999,57.92139472314453,73.050041,57.92139472314453,66.771973C57.92139472314453,60.493902,55.98812862314453,54.665075,52.687995923144534,49.8417969L47.55225372314453,53.395996ZM57.49484252314453,89.804726L62.63056172314453,93.35871900000001C67.97131372314453,85.743019,71.10546872314453,76.477249,71.10546872314453,66.479202C71.10546872314453,56.656902,68.07871272314453,47.53759,62.91370372314453,40L57.777992723144536,43.5539935C59.30113172314453,45.7801208,60.60947372314453,48.162468000000004,61.66395572314453,50.671744000000004C63.78267672314453,55.670768,64.85668172314453,60.991993,64.85668172314453,66.479204C64.85668172314453,71.966415,63.78267672314453,77.28764000000001,61.66394772314453,82.286663C60.54112272314453,84.94239400000001,59.144904723144535,87.461433,57.49484252314453,89.804726Z" fill="#FFFFFF" fill-opacity="1" style="mix-blend-mode:passthrough"/></g><g transform="matrix(0,1,-1,0,131.99951934814453,-83.99951934814453)"><rect x="107.99951934814453" y="24" width="92" height="56" rx="2" fill="#FFFFFF" fill-opacity="1"/><rect x="110.99951934814453" y="27" width="86" height="50" rx="-1" fill-opacity="0" stroke-opacity="1" stroke="#FFFFFF" fill="none" stroke-width="6"/></g><g><rect x="69" y="36" width="23" height="5" rx="0" fill="#286F1C" fill-opacity="1"/></g><g><rect x="69" y="49" width="23" height="5" rx="0" fill="#286F1C" fill-opacity="1"/></g><g><ellipse cx="80.5" cy="76.5" rx="3.5" ry="3.5" fill="#286F1C" fill-opacity="1"/></g><g><ellipse cx="80.5" cy="90.5" rx="3.5" ry="3.5" fill="#286F1C" fill-opacity="1"/></g></g></g></svg>