<svg xmlns="http://www.w3.org/2000/svg" xmlns:xlink="http://www.w3.org/1999/xlink" fill="none" version="1.1" width="160" height="160" viewBox="0 0 160 160"><defs><clipPath id="master_svg0_179_8186"><rect x="0" y="0" width="160" height="160" rx="0"/></clipPath></defs><g clip-path="url(#master_svg0_179_8186)"><g></g><g><path d="M33.973663,0C59.694344,0,100.305656,0,126.02634,0C139.28116,0,150,10.718824,150,23.973661C150,49.694344,150,90.305656,150,116.02634C150,129.28116,139.28116,140,126.02633,140C100.305656,140,59.694344,140,33.973663,140C20.718823999999998,140,10,129.28116,10,116.02633C10,90.305656,10,49.694344,10,23.973663C10,10.718824,20.718823999999998,0,33.973661,0" fill="#286F1C" fill-opacity="1"/></g><g transform="matrix(0.7071067690849304,0.7071067690849304,-0.7071067690849304,0.7071067690849304,102.62614343873975,-23.765027029437988)"><path d="M80,111.99819946289062C80,111.99819946289062,113.94239400000001,111.99819946289062,113.94239400000001,111.99819946289062C113.94239400000001,111.99819946289062,113.94239400000001,132.98101646289064,113.94239400000001,141.95117046289062C113.94239,144.1603084628906,112.162109,145.9405894628906,109.952969,145.9405894628906C100.982817,145.94059346289063,80,145.94059346289063,80,145.94059346289063C80,145.94059346289063,80,111.99819946289062,80,111.99819946289062Z" fill="#286F1C" fill-opacity="1"/></g><g><g><rect x="49.00045394897461" y="110.99189758300781" width="61" height="10" rx="0" fill="#FFFFFF" fill-opacity="1"/></g><g><rect x="75.00045013427734" y="43.99189758300781" width="10" height="72" rx="0" fill="#FFFFFF" fill-opacity="1"/></g><g transform="matrix(0.7071067690849304,-0.7071067690849304,0.7071067690849304,0.7071067690849304,-25.30760583924041,20.885824882635802)"><path d="M45.3300321875,40.99189567565918L53.9598961875,82.39365567565918L12.5576171875,73.76440967565918L14.5980147875,63.97478467565918L41.0551131875,69.48909167565918L35.5404411875,43.03245637565918L45.3300321875,40.99189567565918Z" fill-rule="evenodd" fill="#FFFFFF" fill-opacity="1"/></g><g><rect x="59.00045394897461" y="35.99189567565918" width="48" height="10" rx="0" fill="#FFFFFF" fill-opacity="1"/></g><g transform="matrix(0,1,-1,0,160.99189567565918,-101.00810432434082)"><path d="M141.999946,29.99189567565918L153.000002,55.991897675659175L131,55.991897675659175L141.999946,29.99189567565918Z" fill="#FFFFFF" fill-opacity="1"/></g></g></g></svg>