<svg xmlns="http://www.w3.org/2000/svg" xmlns:xlink="http://www.w3.org/1999/xlink" fill="none" version="1.1" width="160" height="160" viewBox="0 0 160 160"><defs><clipPath id="master_svg0_179_8135"><rect x="0" y="0" width="160" height="160" rx="0"/></clipPath></defs><g clip-path="url(#master_svg0_179_8135)"><g></g><g transform="matrix(0.7071067690849304,0.7071067690849304,-0.7071067690849304,0.7071067690849304,102.62614883353626,-23.765024794839974)"><path d="M80,111.99820709228516C80,111.99820709228516,113.94239400000001,111.99820709228516,113.94239400000001,111.99820709228516C113.94239400000001,111.99820709228516,113.94239400000001,132.98102409228517,113.94239400000001,141.95117809228515C113.94239,144.16031609228514,112.162109,145.94059709228515,109.952969,145.94059709228515C100.982817,145.94060109228516,80,145.94060109228516,80,145.94060109228516C80,145.94060109228516,80,111.99820709228516,80,111.99820709228516Z" fill="#286F1C" fill-opacity="1"/></g><g><path d="M33.973663,0C59.694344,0,100.305656,0,126.02634,0C139.28116,0,150,10.718824,150,23.973661C150,49.694344,150,90.305656,150,116.02634C150,129.28116,139.28116,140,126.02633,140C100.305656,140,59.694344,140,33.973663,140C20.718823999999998,140,10,129.28116,10,116.02633C10,90.305656,10,49.694344,10,23.973663C10,10.718824,20.718823999999998,0,33.973661,0" fill="#286F1C" fill-opacity="1"/></g><g><rect x="37" y="109" width="77" height="6" rx="0" fill="#FFFFFF" fill-opacity="1"/></g><g><path d="M44,112L107,112L107,22.0000002C107,20.89543056,106.104568,20,105,20L46.0000002,20C44.89543056,20,44,20.89543056,44,21.9999999L44,112Z" fill="#FFFFFF" fill-opacity="1"/></g><g><g><path d="M82.799999,90.299999L82.799999,69L78.27,69L78.27,77.52L72,77.52L72,69L67.4699999,69L67.4699999,90.299999L72,90.299999L72,81.540001L78.27,81.540001L78.27,90.299999L82.799999,90.299999Z" fill="#286F1C" fill-opacity="1"/></g><g><path d="M89.592,84.6740003L85.43399996,90.074L85.43399996,92.18L92.9939995,92.18L92.9939995,89.75L88.9439998,89.75L91.8239999,86.0240002C92.2019997,85.5200005,92.48999979999999,85.05199999999999,92.6879997,84.5840001C92.9039993,84.0980005,92.9939995,83.5760002,92.9939995,83.0180006L92.9939995,82.7120008C92.9939995,82.0820007,92.8319998,81.4880009,92.5259995,80.9480009C92.2199998,80.4080009,91.7699995,79.9940004,91.1939998,79.6700001C90.6179996,79.3640003,89.9519997,79.2020006,89.2139997,79.2020006C88.4399998,79.2020006,87.7739999,79.3460007,87.1799998,79.6520004C86.604,79.9580002,86.1539999,80.3720007,85.8479999,80.9120007C85.54199994,81.4520006,85.38,82.0640001,85.38,82.7300005L85.38,83.342L88.0259998,83.342L88.0259998,82.8740005C88.0259998,82.4420004,88.1339998,82.118,88.3319998,81.9020004C88.5119998,81.6680002,88.7819996,81.5600004,89.1239996,81.5600004C89.4659996,81.5600004,89.7359996,81.6680002,89.934,81.8840008C90.132,82.1000004,90.23999979999999,82.3880005,90.23999979999999,82.7840004L90.23999979999999,83.0360003C90.23999979999999,83.54,90.0239997,84.0980005,89.592,84.6740003Z" fill="#286F1C" fill-opacity="1"/></g></g><g><rect x="55" y="32" width="40" height="24" rx="0" fill="#007100" fill-opacity="1"/></g><g><path d="M117.69911801171875,25.24883723L100.20651036171876,22.0489678L99.12686366171874,27.9510322L116.61947101171876,31.1509018Q119.82572001171874,31.7374115,121.91286101171875,34.2409792Q124.00000201171875,36.744547,124.00000201171875,40.003999L124.00000201171875,95.07843Q124.00000201171875,97.531219,122.26561401171875,99.26561Q120.53122301171875,101,118.07843001171875,101Q115.62563901171875,101,113.89124901171876,99.26561Q112.15686001171875,97.531219,112.15685901171875,95.07843L112.15686001171875,56.597231Q112.15686001171875,51.975905999999995,108.88909241171875,48.708138000000005Q105.62132451171875,45.440369000000004,101.00000001171875,45.440369000000004L101.00000001171875,51.440369000000004Q103.13604121171875,51.440369000000004,104.64645101171875,52.950779Q106.15686031171875,54.461189000000005,106.15686031171875,56.597231L106.15685941171876,95.07843Q106.15686221171875,100.01651,109.64860911171876,103.508255Q113.14035401171876,107,118.07843001171875,107Q123.01651001171875,107,126.50825501171875,103.508255Q130.00000201171875,100.01651,130.00000201171875,95.07843L130.00000201171875,40.003999Q130.00000201171875,34.5715828,126.52143101171875,30.3989668Q123.04286201171875,26.2263522,117.69911801171875,25.24883723Z" fill-rule="evenodd" fill="#FFFFFF" fill-opacity="1"/></g></g></svg>