<svg xmlns="http://www.w3.org/2000/svg" xmlns:xlink="http://www.w3.org/1999/xlink" fill="none" version="1.1" width="160" height="160" viewBox="0 0 160 160"><defs><clipPath id="master_svg0_321_02226"><rect x="0" y="0" width="160" height="160" rx="0"/></clipPath></defs><g clip-path="url(#master_svg0_321_02226)"><g></g><g><path d="M80,7C47.415199,7,21,33.415199,21,65.99999600000001C21,82.506165,27.7782302,97.429192,38.703064,108.13745L77.10888299999999,148.83478C78.687569,150.50766,81.305962,150.50766,82.88464400000001,148.83476L121.21265,108.2199C132.18689,97.505859,139,82.548569,139,65.99999600000001C139,33.415199,112.584801,7,80,7Z" fill-rule="evenodd" fill="#FF6F00" fill-opacity="1"/></g><g><rect x="60" y="33" width="38" height="8" rx="0" fill="#FFFFFF" fill-opacity="1"/></g><g><rect x="75" y="41" width="8" height="12" rx="0" fill="#FFFFFF" fill-opacity="1"/></g><g><rect x="75" y="63" width="8" height="12" rx="0" fill="#FFFFFF" fill-opacity="1"/></g><g><rect x="75" y="85" width="8" height="12" rx="0" fill="#FFFFFF" fill-opacity="1"/></g><g><rect x="60" y="97" width="38" height="8" rx="0" fill="#FFFFFF" fill-opacity="1"/></g></g></svg>