<svg xmlns="http://www.w3.org/2000/svg" xmlns:xlink="http://www.w3.org/1999/xlink" fill="none" version="1.1" width="160" height="160" viewBox="0 0 160 160"><defs><clipPath id="master_svg0_321_02204"><rect x="0" y="0" width="160" height="160" rx="0"/></clipPath></defs><g clip-path="url(#master_svg0_321_02204)"><g></g><g><path d="M80,7C47.415199,7,21,33.415199,21,65.99999600000001C21,82.506165,27.7782302,97.429192,38.703064,108.13745L77.10888299999999,148.83478C78.687569,150.50766,81.305962,150.50766,82.88464400000001,148.83476L121.21265,108.2199C132.18689,97.505859,139,82.548569,139,65.99999600000001C139,33.415199,112.584801,7,80,7Z" fill-rule="evenodd" fill="#FF6F00" fill-opacity="1"/></g><g><path d="M66,54.689417C66,54.689417,66,49.183844,66,49.183844C66,47.255342,66.36601293,45.420153,67.0980392,43.678278C67.8300651,41.9363985,68.8366008,40.4122572,70.1176467,39.1058526C71.3986921,37.8616569,72.8932452,36.8662994,74.601306,36.1197797C76.309367,35.37326017,78.139432,35,80.091501,35C82.348581,35,84.392155,35.46657482,86.222221,36.3997252C88.11328900000001,37.3328719,89.668842,38.6392794,90.888887,40.3189454C91.498907,41.1898832,91.986925,41.9986091,92.35294,42.7451248C92.779955,43.4294357,93.115467,44.2070608,93.359478,45.077998C93.786491,46.633243,94,48.841692,94,51.703344C94,53.320803,93.969498,54.689417,93.90849299999999,55.809193C93.90849299999999,56.866762,93.84749,57.79991,93.725487,58.608637C93.603481,59.417366,93.450977,60.132776,93.267971,60.754875C93.084965,61.314764,92.840958,61.843548,92.535948,62.341227C92.535948,62.341227,86.222221,73.352367,86.222221,73.352367C85.79520600000001,74.098888,85.429192,74.876511,85.12418,75.685242C84.81917,76.431759,84.666664,77.240486,84.666664,78.111423C84.666664,78.111423,84.666664,85.576603,84.666664,85.576603C84.666664,85.576603,75.3333321,85.576603,75.3333321,85.576603C75.3333321,85.576603,75.3333321,76.898331,75.3333321,76.898331C75.3333321,75.529713,75.5468388,74.22330500000001,75.9738541,72.979107C76.400869,71.734913,76.94989,70.521816,77.620914,69.339832C77.620914,69.339832,83.477121,59.635098,83.477121,59.635098C83.965139,58.826372,84.270149,57.955435,84.392155,57.022287C84.57516100000001,56.08914,84.666664,55.155992999999995,84.666664,54.222843C84.666664,54.222843,84.666664,49.277164,84.666664,49.277164C84.666664,47.970757,84.20915,46.850977,83.294117,45.91783C82.44008600000001,44.9846802,81.372547,44.5181046,80.091501,44.5181046C78.993463,44.5181046,77.925925,44.9224691,76.888888,45.731197C75.8518505,46.539927,75.3333321,47.721916,75.3333321,49.277164C75.3333321,49.277164,75.3333321,54.689417,75.3333321,54.689417C75.3333321,54.689417,66,54.689417,66,54.689417ZM75.3333321,102C75.3333321,102,75.3333321,92.481892,75.3333321,92.481892C75.3333321,92.481892,84.666664,92.481892,84.666664,92.481892C84.666664,92.481892,84.666664,102,84.666664,102C84.666664,102,75.3333321,102,75.3333321,102Z" fill="#FFFFFF" fill-opacity="1"/></g></g></svg>