<svg xmlns="http://www.w3.org/2000/svg" xmlns:xlink="http://www.w3.org/1999/xlink" fill="none" version="1.1" width="160" height="160" viewBox="0 0 160 160"><defs><clipPath id="master_svg0_321_02240"><rect x="0" y="0" width="160" height="160" rx="0"/></clipPath></defs><g clip-path="url(#master_svg0_321_02240)"><g></g><g><path d="M80,7C47.415199,7,21,33.415199,21,65.99999600000001C21,82.506165,27.7782302,97.429192,38.703064,108.13745L77.10888299999999,148.83478C78.687569,150.50766,81.305962,150.50766,82.88464400000001,148.83476L121.21265,108.2199C132.18689,97.505859,139,82.548569,139,65.99999600000001C139,33.415199,112.584801,7,80,7Z" fill-rule="evenodd" fill="#FF6F00" fill-opacity="1"/></g><g><path d="M73,35C73,35,86.500001,35,86.500001,35C86.500001,35,84.000001,85.900005,84.000001,85.900005C84.000001,85.900005,75.5,85.900005,75.5,85.900005C75.5,85.900005,73,35,73,35ZM79.6999998,91.300007C81.8999996,91.300007,83.800002,92.00000399999999,85.300002,93.400005C86.700002,94.800007,87.500001,96.60000600000001,87.500001,98.800007C87.500001,101.000008,86.700002,102.900002,85.300002,104.300003C83.700002,105.700005,81.8999996,106.400009,79.6999998,106.400009C77.5,106.400009,75.7,105.600014,74.3000002,104.200012C72.69999993,102.800011,72,101.000008,72,98.800007C72,96.60000600000001,72.69999993,94.800007,74.3000002,93.400005C75.7,92.00000399999999,77.5,91.300007,79.6999998,91.300007Z" fill="#FFFFFF" fill-opacity="1"/></g></g></svg>