<svg xmlns="http://www.w3.org/2000/svg" xmlns:xlink="http://www.w3.org/1999/xlink" fill="none" version="1.1" width="160" height="160" viewBox="0 0 160 160"><defs><clipPath id="master_svg0_321_02216"><rect x="0" y="0" width="160" height="160" rx="0"/></clipPath></defs><g clip-path="url(#master_svg0_321_02216)"><g></g><g><path d="M80,7C47.415199,7,21,33.415199,21,65.99999600000001C21,82.506165,27.7782302,97.429192,38.703064,108.13745L77.10888299999999,148.83478C78.687569,150.50766,81.305962,150.50766,82.88464400000001,148.83476L121.21265,108.2199C132.18689,97.505859,139,82.548569,139,65.99999600000001C139,33.415199,112.584801,7,80,7Z" fill-rule="evenodd" fill="#FF6F00" fill-opacity="1"/></g><g><path d="M94.466228,86.48850999999999C94.509804,86.44537700000001,94.553375,86.445381,94.59695099999999,86.402248C94.509804,86.186588,94.466228,85.927795,94.422657,85.712135C92.94117399999999,78.72472400000001,102.61438,67.165302,120,48.3165474C108.496735,49.696776,99.041393,52.284705,91.633984,56.080336C91.503265,56.123468,91.41611900000001,56.209732,91.28540000000001,56.252865C91.06753499999999,56.339128,90.893246,56.468527,90.675381,56.55479C90.326797,56.72732,90.02178599999999,56.899847,89.673203,57.115509C89.455338,57.244905,89.28104400000001,57.331169,89.06317899999999,57.460566C88.714596,57.676226,88.409584,57.848755,88.061001,58.064417C87.88671099999999,58.150681,87.712414,58.280077,87.581696,58.366343C87.102394,58.668266,86.623093,58.97019,86.187363,59.315248C85.751633,53.190481,85.925922,46.4187322,86.666664,39C79.825706,40.337097,74.291939,43.3994808,70.457516,48.5753403C67.102396,53.061085,68.191721,58.754532,70.936819,66.34579099999999C71.285402,67.380964,71.764704,72.858746,69.455336,74.88596C68.627449,75.619205,67.233114,75.058491,66.056644,74.282112C62.004356,71.996105,58.649237,72.039238,55.991285,74.368374C48.6274509,73.16067100000001,43.2679737,72.470558,40,72.34116399999999C44.7058821,73.807655,50.152506,75.317284,56.296296999999996,77.085701C58.910675,77.81894700000001,61.132896,79.63049699999999,62.919388,82.30469099999999C66.535946,87.82560699999999,76.775597,90.801727,86.71023600000001,92.181957C90.41394,92.699543,95.599129,93.907246,100.47930099999999,96.408913C104.313728,98.349857,107.538124,99.385029,110.32679,98.86744300000001C103.66012599999999,96.279514,98.387798,92.181957,94.466228,86.48850999999999ZM94.11764500000001,86.01405700000001C93.725487,85.453339,93.333332,84.849491,92.984749,84.202507C93.376904,84.849491,93.769058,85.453339,94.11764500000001,86.01405700000001ZM91.938995,82.261562C91.808277,81.959637,91.633984,81.657707,91.503265,81.355782C91.633984,81.657707,91.764702,81.959637,91.938995,82.261562ZM86.274506,60.005363C86.318081,60.436686,86.36165600000001,60.911139,86.36165600000001,61.342461C86.318081,60.868006,86.274506,60.436686,86.274506,60.005363ZM91.15468200000001,80.665668C91.15468200000001,80.665668,90.762524,79.759895,90.762524,79.759895C90.84967,80.06181699999999,91.023964,80.363743,91.15468200000001,80.665668ZM88.32243700000001,72.72935100000001C88.23529400000001,72.384293,88.14814799999999,71.99610100000001,88.061001,71.651047C88.14814799999999,71.99610100000001,88.23529400000001,72.34116,88.32243700000001,72.72935100000001ZM87.843136,70.788403C87.75599299999999,70.40021300000001,87.668842,70.05515700000001,87.581696,69.666967C87.668842,70.012024,87.75599299999999,70.40021300000001,87.843136,70.788403ZM87.40740600000001,68.761192C87.320263,68.373003,87.27668800000001,67.984814,87.18954099999999,67.59662399999999C87.27668800000001,67.984814,87.363834,68.373003,87.40740600000001,68.761192ZM87.05882299999999,66.690847C86.971676,66.30265800000001,86.928101,65.87133800000001,86.884529,65.483149C86.928101,65.91447099999999,86.971676,66.30265800000001,87.05882299999999,66.690847Z" fill="#FFFFFF" fill-opacity="1"/></g></g></svg>