<svg xmlns="http://www.w3.org/2000/svg" xmlns:xlink="http://www.w3.org/1999/xlink" fill="none" version="1.1" width="160" height="160" viewBox="0 0 160 160"><defs><clipPath id="master_svg0_321_01530"><rect x="0" y="0" width="160" height="160" rx="0"/></clipPath></defs><g clip-path="url(#master_svg0_321_01530)"><g><path d="M80,7C47.415199,7,21,33.415199,21,65.99999600000001C21,82.506165,27.7782302,97.429192,38.703064,108.13745L77.10888299999999,148.83478C78.687569,150.50766,81.305962,150.50766,82.88464400000001,148.83476L121.21265,108.2199C132.18689,97.505859,139,82.548569,139,65.99999600000001C139,33.415199,112.584801,7,80,7Z" fill-rule="evenodd" fill="#FF6F00" fill-opacity="1"/></g><g><g><path d="M73.515625,98.900932C73.515625,98.900932,73.515625,34,73.515625,34C73.515625,34,79.515625,34,79.515625,34C79.515625,34,79.515625,98.900932,79.515625,98.900932C79.515625,98.900932,73.515625,98.900932,73.515625,98.900932Z" fill-rule="evenodd" fill="#FFFFFF" fill-opacity="1"/></g><g><path d="M88.28535099999999,103.8485107421875C88.28535099999999,103.8485107421875,65,103.8485107421875,65,103.8485107421875C65,103.8485107421875,65,97.8485107421875,65,97.8485107421875C65,97.8485107421875,88.28535099999999,97.8485107421875,88.28535099999999,97.8485107421875C88.28535099999999,97.8485107421875,88.28535099999999,103.8485107421875,88.28535099999999,103.8485107421875Z" fill-rule="evenodd" fill="#FFFFFF" fill-opacity="1"/></g></g><g><path d="M79,34L79,69L110.401901,55.093443C111.892494,54.433321,112.05582,52.361269,110.64913200000001,51.537348L80.7073171,34L79,34Z" fill-rule="evenodd" fill="#FFFFFF" fill-opacity="1"/><path d="M79.169348,34L80.7073171,34L110.64913,51.537348C112.05582,52.361269,111.892494,54.433321,110.401899,55.093443L79.169348,68.925003L79,69L79,34L79.169348,34ZM79.169348,34.169348L79.169348,68.739796L110.333326,54.938601Q110.830482,54.718430999999995,111.126926,54.280279Q111.406429,53.867174,111.443096,53.3645Q111.479782,52.861607,111.26190600000001,52.423103Q111.030224,51.95682,110.56354,51.683475L80.6613728,34.169348L79.169348,34.169348Z" fill-rule="evenodd" fill="#FFFFFF" fill-opacity="1"/></g></g></svg>