<svg xmlns="http://www.w3.org/2000/svg" xmlns:xlink="http://www.w3.org/1999/xlink" fill="none" version="1.1" width="160" height="160" viewBox="0 0 160 160"><defs><clipPath id="master_svg0_321_02250"><rect x="0" y="0" width="160" height="160" rx="0"/></clipPath></defs><g clip-path="url(#master_svg0_321_02250)"><g></g><g><path d="M80,7C47.415199,7,21,33.415199,21,65.99999600000001C21,82.506165,27.7782302,97.429192,38.703064,108.13745L77.10888299999999,148.83478C78.687569,150.50766,81.305962,150.50766,82.88464400000001,148.83476L121.21265,108.2199C132.18689,97.505859,139,82.548569,139,65.99999600000001C139,33.415199,112.584801,7,80,7Z" fill-rule="evenodd" fill="#FF6F00" fill-opacity="1"/></g><g><path d="M48.8339062,53.452929Q49.7426662,51.659649,50.8480768,49.980434Q51.9534874,48.301219,53.2414131,46.757541Q54.5293388,45.213862,55.983312,43.8254604Q57.437284,42.4370584,59.03871,41.2216868L62.66597,46.001121Q57.255943,50.106958,54.1859207,56.16511L48.8339062,53.452929ZM48.2655985,84.37257Q47.461169,82.62907,46.8494874,80.808975Q46.2378057,78.988884,45.82600933,77.11343Q45.41421291,75.23798,45.20710646,73.32905199999999Q45,71.420128,45,69.5Q45,69.18266299999999,45.0056729638,68.865376L51.004714,68.97263699999999Q51,69.23629,51,69.5Q51,75.977375,53.7136669,81.85889399999999L48.2655985,84.37257ZM72.271395,104.033173Q70.317476,103.567596,68.428549,102.884583Q66.539619,102.201569,64.739792,101.309845Q62.939964,100.418114,61.252211,99.329056Q59.564457000000004,98.239998,58.010322,96.967514L61.811398,92.325119Q67.06151,96.623779,73.66214,98.196579L72.271395,104.033173ZM102.478951,97.377872Q100.902546,98.620697,99.196087,99.677902Q97.489632,100.7351,95.67487299999999,101.593193Q93.860111,102.451279,91.960186,103.099312Q90.06025700000001,103.747345,88.099392,104.177071L86.81497999999999,98.316162Q93.438972,96.864521,98.764206,92.66611499999999L102.478951,97.377872ZM116,69.5Q116,71.50180399999999,115.774963,73.490917Q115.549911,75.480034,115.102676,77.431232Q114.655449,79.382439,113.991699,81.270996Q113.327942,83.159554,112.456085,84.961514L107.055058,82.348297Q110,76.261654,110,69.5L116,69.5ZM103.493217,42.4525995Q105.02385699999999,43.753809000000004,106.397919,45.219398Q107.771984,46.684986,108.971924,48.29624Q110.171867,49.907495,111.182365,51.643840999999995Q112.192863,53.380184,113.001015,55.219448L107.507889,57.633061999999995Q104.77781300000001,51.419708,99.60704,47.023993000000004L103.493217,42.4525995ZM89.358341,35.1229758L87.861156,40.933177Q84.239727,40,80.5,40Q77.57512299999999,40,74.707193,40.574351300000004L73.528988,34.69116521Q76.98023,33.99999999999999,80.5,34Q82.74121099999999,34,84.96462199999999,34.28186294Q87.188034,34.56372589,89.358341,35.1229758Z" fill-rule="evenodd" fill="#FFFFFF" fill-opacity="1"/></g><g><rect x="67" y="65" width="27" height="8" rx="0" fill="#FFFFFF" fill-opacity="1"/></g></g></svg>