<svg xmlns="http://www.w3.org/2000/svg" xmlns:xlink="http://www.w3.org/1999/xlink" fill="none" version="1.1" width="40" height="40" viewBox="0 0 40 40"><g><g><rect x="5" y="2" width="30" height="30" rx="15" fill="#FFFFFF" fill-opacity="1"/><rect x="5" y="2" width="30" height="30" rx="15" fill-opacity="0" stroke-opacity="1" stroke="#FFFFFF" fill="none" stroke-width="2"/><g><path d="M26.244,18.15L24.858001,17.688000000000002C24.816000000000003,18.374000000000002,24.759999999999998,18.85,24.676001,19.102C24.592,19.354,24.410001,19.493999000000002,24.102,19.493999000000002L22.4780006,19.493999000000002C22.1700001,19.48,22.0160007,19.34,22.0160007,19.059998999999998L22.0160007,16.2460003L25.642,16.2460003L25.642,11.29L20.4060001,11.29L20.4060001,12.647999800000001L24.214001,12.647999800000001L24.214001,14.8599997L20.5600004,14.8599997L20.5600004,19.648C20.5600004,20.488,20.98,20.908,21.8200006,20.908L24.34,20.908C25.068001000000002,20.908,25.530001,20.726,25.740001,20.39C25.964001,20.04,26.131999999999998,19.298000000000002,26.244,18.15ZM14.47,17.226C14.386,19.158,14.036,20.908,13.42000002,22.490000000000002L14.554,23.483999C14.8340001,22.798000000000002,15.058000100000001,22.07,15.2540002,21.314C15.7160001,21.93,16.2480001,22.364,16.8360002,22.644C17.6620002,23.007999,19.7200003,23.204,23.009999999999998,23.204L26.258,23.204L26.509999999999998,21.804000000000002C25.67,21.86,24.396,21.887999999999998,22.6880007,21.902C20.4760003,21.902,18.9360003,21.804000000000002,18.0680003,21.636L18.0680003,19.424L19.887999999999998,19.424L19.887999999999998,18.108L18.0680003,18.108L18.0680003,16.54L19.9580002,16.54L19.9580002,15.1959991L17.7740002,15.1959991L17.7740002,13.5439997L19.776,13.5439997L19.776,12.2279997L17.7740002,12.2279997L17.7740002,10.4359999L16.3180001,10.4359999L16.3180001,12.2279997L14.1620001,12.2279997L14.1620001,13.5439997L16.3180001,13.5439997L16.3180001,15.1959991L13.92400002,15.1959991L13.92400002,16.54L16.654,16.54L16.654,21.006C16.2620001,20.712,15.898,20.305999999999997,15.562,19.774C15.674,19.003999999999998,15.7440002,18.205999,15.7720001,17.379998999999998L14.47,17.226Z" fill="#00B48F" fill-opacity="1"/></g></g><g><g><path d="M16.25,29.875C16.25,29.875,23.75,29.875,23.75,29.875C23.75,29.875,21.665695200000002,35.2542,20.9153457,37.190712C20.752739,37.6103687,20.3555517,37.874999,19.905493,37.874999C19.9017134,37.875,19.897933000000002,37.875,19.8941529,37.875C19.434835,37.875,19.0373659,37.5959558,18.8813987,37.163929C18.1742402,35.2051125,16.25,29.875,16.25,29.875Z" fill="#00B48F" fill-opacity="1"/><path d="M14.825817,28.875L16.75346881,34.2145624L17.940815399999998,37.5034933Q18.1651036,38.1247663,18.6994052,38.499898Q19.2336631,38.875,19.8941529,38.875L19.8970952,38.875L19.905493,38.874999Q20.5499301,38.874999,21.0773487,38.5193043Q21.6129565,38.1580868,21.847794999999998,37.5520129L23.132548800000002,34.2363024L25.209919,28.8749999L16.25,28.875L14.825817,28.875ZM18.8813987,37.163929L16.61101308,30.875L16.25,29.875L23.75,29.875L23.362524999999998,30.875L20.9153457,37.190712C20.752739,37.6103687,20.3555517,37.874999,19.905493,37.874999L19.8941529,37.875C19.434835,37.875,19.0373659,37.5959558,18.8813987,37.163929Z" fill-rule="evenodd" fill="#FFFFFF" fill-opacity="1"/></g></g><g><rect x="5" y="2" width="30" height="30" rx="15" fill="#FFFFFF" fill-opacity="1"/><rect x="6.25" y="3.25" width="27.5" height="27.5" rx="13.75" fill-opacity="0" stroke-opacity="1" stroke="#00B48F" fill="none" stroke-width="2.5"/><g><path d="M26.244,18.15L24.858001,17.688000000000002C24.816000000000003,18.374000000000002,24.759999999999998,18.85,24.676001,19.102C24.592,19.354,24.410001,19.493999000000002,24.102,19.493999000000002L22.4780006,19.493999000000002C22.1700001,19.48,22.0160007,19.34,22.0160007,19.059998999999998L22.0160007,16.2460003L25.642,16.2460003L25.642,11.29L20.4060001,11.29L20.4060001,12.647999800000001L24.214001,12.647999800000001L24.214001,14.8599997L20.5600004,14.8599997L20.5600004,19.648C20.5600004,20.488,20.98,20.908,21.8200006,20.908L24.34,20.908C25.068001000000002,20.908,25.530001,20.726,25.740001,20.39C25.964001,20.04,26.131999999999998,19.298000000000002,26.244,18.15ZM14.47,17.226C14.386,19.158,14.036,20.908,13.42000002,22.490000000000002L14.554,23.483999C14.8340001,22.798000000000002,15.058000100000001,22.07,15.2540002,21.314C15.7160001,21.93,16.2480001,22.364,16.8360002,22.644C17.6620002,23.007999,19.7200003,23.204,23.009999999999998,23.204L26.258,23.204L26.509999999999998,21.804000000000002C25.67,21.86,24.396,21.887999999999998,22.6880007,21.902C20.4760003,21.902,18.9360003,21.804000000000002,18.0680003,21.636L18.0680003,19.424L19.887999999999998,19.424L19.887999999999998,18.108L18.0680003,18.108L18.0680003,16.54L19.9580002,16.54L19.9580002,15.1959991L17.7740002,15.1959991L17.7740002,13.5439997L19.776,13.5439997L19.776,12.2279997L17.7740002,12.2279997L17.7740002,10.4359999L16.3180001,10.4359999L16.3180001,12.2279997L14.1620001,12.2279997L14.1620001,13.5439997L16.3180001,13.5439997L16.3180001,15.1959991L13.92400002,15.1959991L13.92400002,16.54L16.654,16.54L16.654,21.006C16.2620001,20.712,15.898,20.305999999999997,15.562,19.774C15.674,19.003999999999998,15.7440002,18.205999,15.7720001,17.379998999999998L14.47,17.226Z" fill="#00B48F" fill-opacity="1"/></g></g></g></svg>