<svg xmlns="http://www.w3.org/2000/svg" xmlns:xlink="http://www.w3.org/1999/xlink" fill="none" version="1.1" width="160" height="159.99998474121094" viewBox="0 0 160 159.99998474121094"><defs><clipPath id="master_svg0_321_01063"><rect x="0" y="0" width="160" height="159.99998474121094" rx="0"/></clipPath></defs><g clip-path="url(#master_svg0_321_01063)"><g><ellipse cx="80" cy="79.99999237060547" rx="80" ry="79.99999237060547" fill="#FFFFFF" fill-opacity="1"/></g><g><ellipse cx="79.99999904632568" cy="79.99999046325684" rx="72.7272720336914" ry="72.72726440429688" fill="#000000" fill-opacity="1"/></g><g><path d="M28,49.101008L28,50.111109C28,51.784698,29.3567125,53.141411,31.0303023,53.141411L36.1414108,53.141411C39.45512,53.141411,42.141412,55.827702,42.141412,59.141411000000005L42.141412,65.262619C42.141412,66.378345,43.045888,67.282822,44.161615,67.282822C45.277344,67.282822,46.181818,68.187298,46.181818,69.303024L46.181818,71.323227C46.181818,72.438953,47.086292,73.34343,48.202019,73.34343C49.317745,73.34343,50.222218999999996,72.438953,50.222218999999996,71.323227L50.222218999999996,70.313126C50.222218999999996,68.639534,51.578931999999995,67.282822,53.252523,67.282822L58.946291,67.282822C61.053867,67.282822,63.006908,68.388615,64.09124800000001,70.195848L72.716827,84.571812C73.80116699999999,86.379047,75.754208,87.48483999999999,77.861786,87.48483999999999L83.188709,87.48483999999999C85.296288,87.48483999999999,87.249325,86.379047,88.333664,84.571815L96.959251,70.195847C98.043594,68.388615,99.996635,67.282822,102.10421,67.282822L107.797974,67.282822C109.471565,67.282822,110.828278,68.639534,110.828278,70.313126L110.828278,71.323227C110.828278,72.438953,111.73275,73.34343,112.84848,73.34343C113.964211,73.34343,114.868683,72.438953,114.868683,71.323227L114.868683,69.30302C114.868683,68.187296,115.773163,67.282822,116.888885,67.282822C118.004608,67.282822,118.909081,66.378347,118.909081,65.262623L118.909081,59.141411000000005C118.909081,55.827702,121.595367,53.141411,124.909081,53.141411L130.0202,53.141411C131.69379,53.141411,133.0505,51.784698,133.0505,50.111109C133.0505,48.4375191,131.69379,47.0808067,130.0202,47.0808067L122.949486,47.0808067C120.718033,47.0808067,118.909081,45.271856299999996,118.909081,43.0404015C118.909081,40.8089492,117.100136,39,114.868683,39C112.63723,39,110.828278,40.8089492,110.828278,43.0404015C110.828278,45.271856299999996,109.019325,47.0808067,106.787872,47.0808067L97.696968,47.0808067C96.023376,47.0808067,94.666664,48.4375191,94.666664,50.111109C94.666664,51.784698,96.023376,53.141411,97.696968,53.141411L104.76767,53.141411C106.999123,53.141411,108.808075,54.950361,108.808075,57.181814C108.808075,59.413267000000005,106.999123,61.222218,104.76767,61.222218L98.707069,61.222218L92.646454,61.222218C91.530727,61.222218,90.626255,60.317743,90.626255,59.202017C90.626255,58.086290000000005,89.721783,57.181816,88.606056,57.181816L72.444443,57.181816C71.328716,57.181816,70.42424,58.086290000000005,70.42424,59.202017C70.42424,60.317743,69.51976400000001,61.222218,68.404037,61.222218L60.323231,61.222218L56.282825,61.222218C54.051373,61.222218,52.242422000000005,59.413267000000005,52.242422000000005,57.181814C52.242422000000005,54.950361,54.051373,53.141411,56.282825,53.141411L65.373734,53.141411C67.047325,53.141411,68.404037,51.784698,68.404037,50.111109C68.404037,48.4375191,67.047325,47.0808067,65.373734,47.0808067L56.282825,47.0808067C54.051373,47.0808067,52.242422000000005,45.271856299999996,52.242422000000005,43.0404034C52.242422000000005,40.8089502,50.433471999999995,39,48.202019,39L46.181816,39C43.950362999999996,39,42.141412,40.8089502,42.141412,43.0404034C42.141412,45.271856299999996,40.332461,47.0808067,38.101008,47.0808067L30.0202019,47.0808067C28.90447521,47.0808067,28,47.985281900000004,28,49.101008ZM105.260506,79.404053C102.164688,79.404053,100.557045,83.239513,102.540939,85.616116Q108.380013,92.611012,110.828247,99.60595699999999Q113.727234,107.888779,113.230225,116.1717C113.113731,118.113014,114.597412,119.808105,116.542229,119.808105C117.947021,119.808105,119.196045,118.903648,119.514168,117.535347Q121.598442,108.570602,118.909058,99.60595699999999Q116.04921,90.073132,107.791397,80.54040499999999C107.154846,79.80557999999999,106.232704,79.404053,105.260506,79.404053ZM44.161615,99.606049Q41.472221,108.570694,43.556501,117.535339C43.874628,118.903625,45.123636000000005,119.808067,46.528418,119.808067C48.473213,119.808067,49.956879,118.113014,49.840402999999995,116.1717Q49.343433000000005,107.88887,52.242422000000005,99.606049C54.010098,94.55554599999999,54.010098,94.55554599999999,57.040401,89.505043C58.494946999999996,87.080803,59.251310000000004,85.820194,60.119385,84.606133C61.655689,82.457504,60.304241,79.404034,57.66287,79.404034C56.78443,79.404034,55.93766,79.782658,55.361436999999995,80.445698Q47.035667000000004,90.025875,44.161615,99.606049Z" fill="#FFFFFF" fill-opacity="1"/></g></g></svg>